<svg width="1041" height="381" viewBox="0 0 1041 381" fill="none" xmlns="http://www.w3.org/2000/svg">
<rect x="1.5" y="1.5" width="1038" height="378" rx="38.5" fill="#FFD6E4" stroke="#D98D97" stroke-width="3"/>
<path d="M118.711 157.301L286.8 139.8C298.356 138.597 308.641 145.583 309.655 155.325L320.72 261.599C321.734 271.341 313.109 280.296 301.553 281.499L133.464 299C121.908 300.204 111.623 293.217 110.609 283.476L99.5436 177.201C98.5293 167.459 107.154 158.504 118.711 157.301Z" fill="#FFDBE7"/>
<path d="M309.655 155.325L211.054 228.256L99.5436 177.201" fill="#FFDBE7"/>
<path d="M309.655 155.325C308.641 145.583 298.356 138.597 286.8 139.8L118.711 157.301C107.154 158.504 98.5293 167.459 99.5436 177.201M309.655 155.325L320.72 261.599C321.734 271.341 313.109 280.296 301.553 281.499L133.464 299C121.908 300.204 111.623 293.217 110.609 283.476L99.5436 177.201M309.655 155.325L211.054 228.256L99.5436 177.201" stroke="#E38594" stroke-width="4" stroke-linecap="round" stroke-linejoin="round"/>
<g clip-path="url(#clip0_45_67)">
<path d="M211.736 243.219C225.657 241.78 235.826 229.809 234.449 216.481C233.072 203.153 220.669 193.514 206.748 194.953C192.826 196.392 182.657 208.363 184.034 221.691C185.412 235.02 197.814 244.658 211.736 243.219Z" fill="#E38594"/>
<path d="M210.239 228.739L209.242 219.086M208.244 209.433L208.269 209.43M234.449 216.481C235.826 229.809 225.657 241.78 211.736 243.219C197.814 244.658 185.412 235.02 184.034 221.691C182.657 208.363 192.826 196.392 206.748 194.953C220.669 193.514 233.072 203.153 234.449 216.481Z" stroke="#B95663" stroke-width="4" stroke-linecap="round" stroke-linejoin="round"/>
</g>
<g clip-path="url(#clip1_45_67)">
<path d="M458.368 125.665L624.299 153.426C635.707 155.335 643.696 164.934 642.052 174.759L624.122 281.932C622.478 291.757 611.8 298.233 600.392 296.325L434.46 268.563C423.053 266.655 415.064 257.055 416.708 247.231L434.638 140.057C436.282 130.233 446.96 123.756 458.368 125.665Z" fill="#FFDBE7"/>
<path d="M642.052 174.759L527.886 219.926L434.638 140.057" fill="#FFDBE7"/>
<path d="M642.052 174.759C643.696 164.934 635.707 155.335 624.299 153.426L458.368 125.665C446.96 123.756 436.282 130.233 434.638 140.057M642.052 174.759L624.122 281.932C622.478 291.757 611.8 298.233 600.392 296.325L434.46 268.563C423.053 266.655 415.064 257.055 416.708 247.231L434.638 140.057M642.052 174.759L527.886 219.926L434.638 140.057" stroke="#E38594" stroke-width="4" stroke-linecap="round" stroke-linejoin="round"/>
</g>
<g clip-path="url(#clip2_45_67)">
<path d="M555.365 196.501C554.261 194.967 552.862 193.664 551.251 192.664C549.639 191.665 547.845 190.989 545.972 190.676C544.099 190.362 542.183 190.417 540.334 190.838C538.484 191.258 536.738 192.036 535.194 193.126L531.991 195.387L529.698 192.206C527.466 189.11 524.087 187.016 520.304 186.383C516.522 185.75 512.645 186.631 509.527 188.832C506.409 191.033 504.305 194.373 503.679 198.119C503.052 201.864 503.954 205.707 506.185 208.803L525.308 235.33L552.024 216.472C553.568 215.383 554.88 214.002 555.883 212.408C556.887 210.815 557.563 209.04 557.874 207.186C558.184 205.331 558.122 203.433 557.692 201.599C557.261 199.766 556.471 198.033 555.365 196.501Z" fill="#E38594" stroke="#B95663" stroke-width="4" stroke-linecap="round" stroke-linejoin="round"/>
</g>
<path d="M747.186 157.441L915.916 147.936C927.516 147.283 937.458 154.749 938.009 164.528L944.018 271.208C944.569 280.987 935.529 289.523 923.929 290.176L755.199 299.681C743.598 300.335 733.657 292.869 733.106 283.09L727.096 176.41C726.545 166.631 735.586 158.095 747.186 157.441Z" fill="#FFDBE7"/>
<path d="M938.009 164.528L836.058 232.699L727.096 176.41" fill="#FFDBE7"/>
<path d="M938.009 164.528C937.458 154.749 927.516 147.283 915.916 147.936L747.186 157.441C735.586 158.095 726.545 166.631 727.096 176.41M938.009 164.528L944.018 271.208C944.569 280.987 935.529 289.523 923.929 290.176L755.199 299.681C743.598 300.335 733.657 292.869 733.106 283.09L727.096 176.41M938.009 164.528L836.058 232.699L727.096 176.41" stroke="#E38594" stroke-width="4" stroke-linecap="round" stroke-linejoin="round"/>
<g clip-path="url(#clip3_45_67)">
<path d="M837.438 232.531C842.351 232.015 845.913 227.597 845.395 222.664C844.877 217.731 840.475 214.151 835.562 214.667C830.649 215.183 827.087 219.6 827.605 224.533C828.123 229.466 832.525 233.047 837.438 232.531Z" fill="#E38594"/>
<path d="M844.457 213.732L845.63 224.897C845.816 226.674 846.698 228.304 848.081 229.429C849.464 230.554 851.235 231.081 853.005 230.896C854.774 230.71 856.397 229.826 857.516 228.438C858.635 227.05 859.159 225.273 858.973 223.496L858.738 221.263C858.208 216.223 855.996 211.51 852.462 207.89C848.927 204.27 844.278 201.956 839.27 201.324C834.262 200.692 829.19 201.779 824.878 204.409C820.566 207.039 817.269 211.057 815.522 215.809C813.774 220.562 813.68 225.769 815.254 230.585C816.829 235.401 819.979 239.542 824.192 242.334C828.406 245.127 833.435 246.407 838.463 245.967C843.49 245.526 848.22 243.391 851.883 239.909" fill="#E38594"/>
<path d="M844.457 213.732L845.63 224.897C845.816 226.674 846.698 228.304 848.081 229.429C849.464 230.554 851.235 231.081 853.005 230.896C854.774 230.71 856.397 229.826 857.516 228.438C858.635 227.05 859.159 225.273 858.973 223.496L858.738 221.263C858.208 216.223 855.996 211.51 852.462 207.89C848.927 204.27 844.278 201.956 839.27 201.324C834.262 200.692 829.19 201.779 824.878 204.409C820.566 207.039 817.269 211.057 815.522 215.809C813.774 220.562 813.68 225.769 815.254 230.585C816.829 235.401 819.979 239.542 824.192 242.334C828.406 245.127 833.435 246.407 838.463 245.967C843.49 245.526 848.22 243.391 851.883 239.909M845.395 222.664C845.913 227.597 842.351 232.015 837.438 232.531C832.525 233.047 828.123 229.466 827.605 224.533C827.087 219.6 830.649 215.183 835.562 214.667C840.475 214.151 844.877 217.731 845.395 222.664Z" stroke="#B95663" stroke-width="4" stroke-linecap="round" stroke-linejoin="round"/>
</g>
<path d="M402.29 58.736C402.29 56.5173 402.77 54.544 403.73 52.816C404.69 51.0667 406.024 49.712 407.73 48.752C409.458 47.7707 411.41 47.28 413.586 47.28C416.253 47.28 418.536 47.984 420.434 49.392C422.333 50.8 423.602 52.72 424.242 55.152H418.226C417.778 54.2133 417.138 53.4987 416.306 53.008C415.496 52.5173 414.568 52.272 413.522 52.272C411.837 52.272 410.472 52.8587 409.426 54.032C408.381 55.2053 407.858 56.7733 407.858 58.736C407.858 60.6987 408.381 62.2667 409.426 63.44C410.472 64.6133 411.837 65.2 413.522 65.2C414.568 65.2 415.496 64.9547 416.306 64.464C417.138 63.9733 417.778 63.2587 418.226 62.32H424.242C423.602 64.752 422.333 66.672 420.434 68.08C418.536 69.4667 416.253 70.16 413.586 70.16C411.41 70.16 409.458 69.68 407.73 68.72C406.024 67.7387 404.69 66.384 403.73 64.656C402.77 62.928 402.29 60.9547 402.29 58.736ZM433.065 65.776H440.233V70H427.593V47.536H433.065V65.776ZM448.315 47.536V70H442.843V47.536H448.315ZM451.353 58.736C451.353 56.5173 451.833 54.544 452.793 52.816C453.753 51.0667 455.086 49.712 456.793 48.752C458.521 47.7707 460.473 47.28 462.649 47.28C465.316 47.28 467.598 47.984 469.497 49.392C471.396 50.8 472.665 52.72 473.305 55.152H467.289C466.841 54.2133 466.201 53.4987 465.369 53.008C464.558 52.5173 463.63 52.272 462.585 52.272C460.9 52.272 459.534 52.8587 458.489 54.032C457.444 55.2053 456.921 56.7733 456.921 58.736C456.921 60.6987 457.444 62.2667 458.489 63.44C459.534 64.6133 460.9 65.2 462.585 65.2C463.63 65.2 464.558 64.9547 465.369 64.464C466.201 63.9733 466.841 63.2587 467.289 62.32H473.305C472.665 64.752 471.396 66.672 469.497 68.08C467.598 69.4667 465.316 70.16 462.649 70.16C460.473 70.16 458.521 69.68 456.793 68.72C455.086 67.7387 453.753 66.384 452.793 64.656C451.833 62.928 451.353 60.9547 451.353 58.736ZM489.68 70L482.128 60.08V70H476.656V47.536H482.128V57.392L489.616 47.536H496.048L487.344 58.544L496.368 70H489.68ZM519.734 66.032H511.35L510.006 70H504.278L512.406 47.536H518.742L526.87 70H521.078L519.734 66.032ZM518.326 61.808L515.542 53.584L512.79 61.808H518.326ZM535.197 58.736C535.197 56.5173 535.677 54.544 536.637 52.816C537.597 51.0667 538.93 49.712 540.637 48.752C542.365 47.7707 544.317 47.28 546.493 47.28C549.159 47.28 551.442 47.984 553.341 49.392C555.239 50.8 556.509 52.72 557.149 55.152H551.133C550.685 54.2133 550.045 53.4987 549.213 53.008C548.402 52.5173 547.474 52.272 546.429 52.272C544.743 52.272 543.378 52.8587 542.333 54.032C541.287 55.2053 540.765 56.7733 540.765 58.736C540.765 60.6987 541.287 62.2667 542.333 63.44C543.378 64.6133 544.743 65.2 546.429 65.2C547.474 65.2 548.402 64.9547 549.213 64.464C550.045 63.9733 550.685 63.2587 551.133 62.32H557.149C556.509 64.752 555.239 66.672 553.341 68.08C551.442 69.4667 549.159 70.16 546.493 70.16C544.317 70.16 542.365 69.68 540.637 68.72C538.93 67.7387 537.597 66.384 536.637 64.656C535.677 62.928 535.197 60.9547 535.197 58.736ZM574.484 66.032H566.1L564.756 70H559.028L567.156 47.536H573.492L581.62 70H575.828L574.484 66.032ZM573.076 61.808L570.292 53.584L567.54 61.808H573.076ZM595.549 70L590.877 61.52H589.565V70H584.093V47.536H593.277C595.048 47.536 596.552 47.8453 597.789 48.464C599.048 49.0827 599.987 49.936 600.605 51.024C601.224 52.0907 601.533 53.2853 601.533 54.608C601.533 56.1013 601.107 57.4347 600.253 58.608C599.421 59.7813 598.184 60.6133 596.541 61.104L601.725 70H595.549ZM589.565 57.648H592.957C593.96 57.648 594.707 57.4027 595.197 56.912C595.709 56.4213 595.965 55.728 595.965 54.832C595.965 53.9787 595.709 53.3067 595.197 52.816C594.707 52.3253 593.96 52.08 592.957 52.08H589.565V57.648ZM613.384 47.536C615.752 47.536 617.822 48.0053 619.592 48.944C621.363 49.8827 622.728 51.2053 623.688 52.912C624.67 54.5973 625.16 56.5493 625.16 58.768C625.16 60.9653 624.67 62.9173 623.688 64.624C622.728 66.3307 621.352 67.6533 619.56 68.592C617.79 69.5307 615.731 70 613.384 70H604.968V47.536H613.384ZM613.032 65.264C615.102 65.264 616.712 64.6987 617.864 63.568C619.016 62.4373 619.592 60.8373 619.592 58.768C619.592 56.6987 619.016 55.088 617.864 53.936C616.712 52.784 615.102 52.208 613.032 52.208H610.44V65.264H613.032ZM635.418 46.736L634.778 62.064H630.138L629.498 46.736H635.418ZM632.538 70.256C631.578 70.256 630.789 69.9787 630.17 69.424C629.573 68.848 629.274 68.144 629.274 67.312C629.274 66.4587 629.573 65.744 630.17 65.168C630.789 64.592 631.578 64.304 632.538 64.304C633.477 64.304 634.245 64.592 634.842 65.168C635.461 65.744 635.77 66.4587 635.77 67.312C635.77 68.144 635.461 68.848 634.842 69.424C634.245 69.9787 633.477 70.256 632.538 70.256Z" fill="#B95663"/>
<defs>
<clipPath id="clip0_45_67">
<rect width="60.8199" height="58.2279" fill="white" transform="translate(176 193.252) rotate(-5.90031)"/>
</clipPath>
<clipPath id="clip1_45_67">
<rect width="252.356" height="217.327" fill="white" transform="translate(422.862 83) rotate(9.49789)"/>
</clipPath>
<clipPath id="clip2_45_67">
<rect width="63.0891" height="62.4652" fill="white" transform="translate(503.314 175.627) rotate(9.49789)"/>
</clipPath>
<clipPath id="clip3_45_67">
<rect width="53.6649" height="53.8866" fill="white" transform="translate(807 199.605) rotate(-5.99574)"/>
</clipPath>
</defs>
</svg>
