<svg width="62" height="62" viewBox="0 0 62 62" fill="none" xmlns="http://www.w3.org/2000/svg">
<path d="M53.8367 11.9092C52.5172 10.5892 50.9506 9.542 49.2264 8.82754C47.5021 8.11309 45.6539 7.74536 43.7875 7.74536C41.9211 7.74536 40.073 8.11309 38.3487 8.82754C36.6244 9.542 35.0578 10.5892 33.7384 11.9092L31 14.6476L28.2617 11.9092C25.5965 9.24404 21.9817 7.74674 18.2125 7.74674C14.4434 7.74674 10.8286 9.24404 8.16336 11.9092C5.49815 14.5744 4.00085 18.1892 4.00085 21.9584C4.00085 25.7276 5.49815 29.3424 8.16336 32.0076L31 54.8442L53.8367 32.0076C55.1568 30.6881 56.2039 29.1215 56.9184 27.3972C57.6328 25.673 58.0006 23.8248 58.0006 21.9584C58.0006 20.092 57.6328 18.2438 56.9184 16.5196C56.2039 14.7953 55.1568 13.2287 53.8367 11.9092Z" fill="#FFDBE7" stroke="#E38594" stroke-width="7" stroke-linecap="round" stroke-linejoin="round"/>
</svg>
