<svg width="743" height="150" viewBox="0 0 743 150" fill="none" xmlns="http://www.w3.org/2000/svg">
<g filter="url(#filter0_d_84_334)">
<mask id="path-1-outside-1_84_334" maskUnits="userSpaceOnUse" x="3.4375" y="7" width="735" height="127" fill="black">
<rect fill="white" x="3.4375" y="7" width="735" height="127"/>
<path d="M50.125 81.125C50.5417 81.125 50.9167 81.0208 51.25 80.8125V75.125C54.0833 73.2083 58.0417 71.6458 63.125 70.4375C68.25 69.2292 73.2292 68.625 78.0625 68.625C80.2708 70.875 82.1042 74.25 83.5625 78.75C85.0625 83.2083 85.8542 87.25 85.9375 90.875C85.1042 92.5417 83.6875 94.3333 81.6875 96.25C79.7292 98.1667 77.3542 99.9375 74.5625 101.562C67.6458 105.646 59.7083 107.688 50.75 107.688C37.9167 107.688 27.8125 103.958 20.4375 96.5C12.8125 88.9583 9 78.5208 9 65.1875C9 51.8125 13.1667 41.3125 21.5 33.6875C25.1667 30.2708 29.4375 27.7083 34.3125 26C39.1875 24.25 44.3125 23.375 49.6875 23.375C60.1875 23.375 68.7917 25.9167 75.5 31C82.2083 36.0833 85.5625 42.3542 85.5625 49.8125C85.5625 55.4375 83.8333 59.6042 80.375 62.3125C76.9167 64.9792 72.2292 66.3125 66.3125 66.3125C63.0625 66.3125 59.7917 65.5208 56.5 63.9375C53.2083 62.3125 51.25 60.7917 50.625 59.375C50.625 55.9583 50.6875 53.2708 50.8125 51.3125C50.7292 51.2708 50.5833 51.25 50.375 51.25H49.9375C49.3125 51.25 48.8125 51.4375 48.4375 51.8125C48.1042 52.1458 47.7917 52.875 47.5 54C47.25 55.125 47.125 58.1875 47.125 63.1875C47.125 75.1458 48.125 81.125 50.125 81.125ZM124.25 78.75C124.75 78.75 125.292 78.5417 125.875 78.125C125.458 76.75 125.25 74.6042 125.25 71.6875V40.8125C129.667 38.1458 134.979 36.8125 141.188 36.8125C144.688 36.8125 147.75 37.2917 150.375 38.25C153.042 39.1667 155.083 40.3958 156.5 41.9375V74.5C156.5 80.7083 158 84.75 161 86.625C161.042 86.8333 161.062 87.2292 161.062 87.8125V88.9375C161.062 95.0208 159.458 99.625 156.25 102.75C153.333 105.667 149.312 107.125 144.188 107.125C140.979 107.125 138.062 106.396 135.438 104.938C132.854 103.479 130.917 101.354 129.625 98.5625C128.208 98.5625 127.5 99.25 127.5 100.625C127.5 101.583 127.979 102.542 128.938 103.5C127.604 104.583 126 105.458 124.125 106.125C122.25 106.792 119.479 107.125 115.812 107.125C112.188 107.125 108.646 106.375 105.188 104.875C100.896 103.042 97.6042 100.229 95.3125 96.4375C92.5208 91.9375 91.125 86.2292 91.125 79.3125V63.625C89 59.9167 87.9375 55.8333 87.9375 51.375C87.9375 49.0833 88.2292 46.7083 88.8125 44.25C89.3958 41.7917 90.3333 39.6042 91.625 37.6875H105.375C110.542 37.6875 114.583 38.9167 117.5 41.375C120.458 43.7917 121.938 47.4792 121.938 52.4375V72.6875C121.938 76.7292 122.708 78.75 124.25 78.75ZM196.75 72.25V80.625C197.042 80.9167 197.521 81.0625 198.188 81.0625C198.854 81.0625 199.333 80.8333 199.625 80.375C199.917 79.9167 200.062 79.125 200.062 78V71.625C200.062 67.625 199.896 64.9792 199.562 63.6875C199.229 62.3542 198.604 61.6875 197.688 61.6875C197.104 61.6875 196.604 61.8958 196.188 62.3125C196.562 66.4375 196.75 69.75 196.75 72.25ZM176.812 45.3125C176.812 46.5625 177.542 47.1875 179 47.1875C181.5 43.2708 184.438 40.375 187.812 38.5C191.188 36.5833 195.25 35.625 200 35.625C204.75 35.625 209.083 36.375 213 37.875C218.375 40 222.625 43.4167 225.75 48.125C229.667 54.0833 231.625 61.8958 231.625 71.5625C231.625 82.4375 228.708 90.8958 222.875 96.9375C217.083 102.938 209.042 105.938 198.75 105.938C193 105.938 188.521 105.229 185.312 103.812C185.021 103.979 184.875 104.333 184.875 104.875C184.875 106.125 185.833 107.021 187.75 107.562C189.708 108.104 193.062 108.5 197.812 108.75V125.375C193.521 127.292 188.812 128.25 183.688 128.25C177.646 128.25 173.083 127.146 170 124.938C166.5 122.562 164.75 118.917 164.75 114V63.6875C162.292 60.2292 161.062 55.9375 161.062 50.8125C161.062 48.7292 161.396 46.4583 162.062 44C162.729 41.5417 163.625 39.4375 164.75 37.6875H173.625C177.25 37.6875 180.021 38.1875 181.938 39.1875C178.521 41.7292 176.812 43.7708 176.812 45.3125ZM267 49.75V74.5C267 80.7083 268.5 84.75 271.5 86.625C271.542 86.8333 271.562 87.2292 271.562 87.8125V88.9375C271.562 95.0625 269.896 99.6667 266.562 102.75C263.479 105.667 259.354 107.125 254.188 107.125C249.062 107.125 244.833 105.667 241.5 102.75C237.292 99.0417 235.188 93.625 235.188 86.5V45.875C235.938 45.3333 236.75 44.8958 237.625 44.5625C238.5 44.2292 239.417 43.8125 240.375 43.3125C238.583 42.3958 236.958 40.8125 235.5 38.5625C234.042 36.2708 233.312 33.6042 233.312 30.5625C233.312 25.3125 235.042 21.0208 238.5 17.6875C241.958 14.3542 246.188 12.6875 251.188 12.6875C256.229 12.6875 260.438 14.3958 263.812 17.8125C267.229 21.1875 268.938 25.4375 268.938 30.5625C268.938 34.6875 267.646 38.3125 265.062 41.4375C262.479 44.5208 259.333 46.4583 255.625 47.25C255.625 48.8333 256.229 49.625 257.438 49.625C259.562 49.625 261.729 48.7917 263.938 47.125C265.604 48.4167 266.625 49.2917 267 49.75ZM308.75 61.6875C308.333 61.2708 307.833 61.0625 307.25 61.0625C306.333 61.0625 305.708 61.7292 305.375 63.0625C305.042 64.3542 304.875 67 304.875 71V77.375C304.875 78.5 305.021 79.2917 305.312 79.75C305.604 80.2083 306.083 80.4375 306.75 80.4375C307.417 80.4375 307.896 80.2917 308.188 80V71.625C308.188 67.5417 308.375 64.2292 308.75 61.6875ZM304.25 24.75C306.458 22.1667 308.896 20.2292 311.562 18.9375C314.229 17.6042 317.625 16.9375 321.75 16.9375C326.75 16.9375 330.812 18.3333 333.938 21.125C337.146 24.125 338.75 28.1667 338.75 33.25V74.5C338.75 80.7083 340.25 84.75 343.25 86.625C343.292 86.8333 343.312 87.2292 343.312 87.8125V88.9375C343.312 94.8542 341.521 99.4583 337.938 102.75C334.771 105.667 330.854 107.125 326.188 107.125C322.938 107.125 320.125 106.438 317.75 105.062C314.958 103.479 313 101.312 311.875 98.5625C310.458 98.5625 309.75 99.25 309.75 100.625C309.75 101.25 309.979 101.979 310.438 102.812C310.938 103.604 311.604 104.312 312.438 104.938C309.979 106.396 306.792 107.125 302.875 107.125C297.583 107.125 292.625 105.917 288 103.5C283.417 101.042 279.771 97.3542 277.062 92.4375C273.938 86.8125 272.375 80 272.375 72C272.375 61.3333 275.354 52.9583 281.312 46.875C287.312 40.7917 294.958 37.75 304.25 37.75C309.75 37.75 314.542 38.7917 318.625 40.875C319.083 40.4167 319.312 39.9375 319.312 39.4375C319.312 38.1875 317.833 37.125 314.875 36.25C311.917 35.375 308.938 34.9375 305.938 34.9375C305.938 30.6875 305.375 27.2917 304.25 24.75ZM360.75 47.0625C360.75 46.6458 360.667 46.375 360.5 46.25C360.375 46.0833 360.229 45.875 360.062 45.625C358.604 46.5 356.583 46.9375 354 46.9375C350.542 46.9375 347.667 45.7917 345.375 43.5C342.875 41.125 341.625 38.0833 341.625 34.375C341.625 29.75 343.062 26.1458 345.938 23.5625C348.854 20.9375 352.583 19.625 357.125 19.625C362.417 19.625 366.583 21.4375 369.625 25.0625C372.708 28.6875 374.25 33.2708 374.25 38.8125C374.25 45.6875 372.396 51.0208 368.688 54.8125C365.021 58.5625 360.625 60.4375 355.5 60.4375C352.292 60.4375 349.708 59.7292 347.75 58.3125C345.792 56.8542 344.812 54.8542 344.812 52.3125C344.812 50.3542 345.312 48.7917 346.312 47.625C348.604 49.0417 350.938 49.75 353.312 49.75C355.729 49.75 357.562 49.5208 358.812 49.0625C360.104 48.6042 360.75 47.9375 360.75 47.0625ZM407.812 57C406.729 57.3333 406.188 57.9792 406.188 58.9375V59.25C406.188 59.4583 406.208 59.5833 406.25 59.625C406.708 59.5833 407.312 59.5625 408.062 59.5625H409.562C414.312 59.5625 418.75 60.2917 422.875 61.75C427.042 63.1667 430.438 65.4583 433.062 68.625C435.979 72.2083 437.438 76.7292 437.438 82.1875C437.438 90.6875 434.5 97.1042 428.625 101.438C422.75 105.771 414.896 107.938 405.062 107.938C395.229 107.938 387.521 106.312 381.938 103.062C376.396 99.8125 373.625 95.0417 373.625 88.75C373.625 86.4167 374.125 84.2917 375.125 82.375C376.125 80.4167 377.25 79.0417 378.5 78.25C380.792 80.1667 384.104 81.8333 388.438 83.25C392.812 84.625 397.438 85.3125 402.312 85.3125C404.271 85.3125 405.25 84.7708 405.25 83.6875C405.25 83.1875 405.188 82.7708 405.062 82.4375C404.771 82.4792 404.417 82.5 404 82.5H403.312C394.479 82.5 387.417 80.75 382.125 77.25C376.125 73.2917 373.125 67.7083 373.125 60.5C373.125 53.2917 375.812 47.4583 381.188 43C387.146 38.0833 395.333 35.625 405.75 35.625C410.875 35.625 415.646 36.1667 420.062 37.25C424.521 38.3333 428.333 39.7708 431.5 41.5625C432.292 43.2708 432.688 45.7917 432.688 49.125C432.688 54.2083 431.292 58.1042 428.5 60.8125C426.375 59.6458 423.771 58.6875 420.688 57.9375C417.646 57.1458 414.896 56.75 412.438 56.75C409.979 56.75 408.438 56.8333 407.812 57ZM503.438 76.4375C503.438 77.1458 503.771 77.625 504.438 77.875C505.438 76.75 506.854 75.7708 508.688 74.9375C510.521 74.0625 512.583 73.625 514.875 73.625C519.25 73.625 522.875 74.9167 525.75 77.5C525.75 77.5 525.896 77.625 526.188 77.875C526.729 77.5833 527 77.0625 527 76.3125C527 75.0208 525.979 73.7917 523.938 72.625C521.562 71.3333 518.521 70.6875 514.812 70.6875C513.812 70.6875 512.896 70.7708 512.062 70.9375V54.625C512.062 52.8333 511.438 51.9375 510.188 51.9375C508.979 51.9375 508.375 52.8542 508.375 54.6875V71.8125C505.083 73.1458 503.438 74.6875 503.438 76.4375ZM508.562 106.062C501.354 106.062 494.812 104.708 488.938 102C483.062 99.25 478.375 95.0208 474.875 89.3125C470.958 82.8542 469 74.8125 469 65.1875C469 55.5625 471 47.4583 475 40.875C478.583 34.9583 483.438 30.5625 489.562 27.6875C495.729 24.8125 502.354 23.375 509.438 23.375C522.354 23.375 532.479 27.1667 539.812 34.75C547.188 42.2917 550.875 52.1667 550.875 64.375C550.875 71.8333 549.292 78.375 546.125 84H555.188C556.688 88.5 557.438 92.75 557.438 96.75C557.438 102.833 555.75 107.729 552.375 111.438C549 115.146 544.292 117 538.25 117C532.208 117 527.188 115 523.188 111C519.229 107.042 516 100.771 513.5 92.1875H513.188C511.854 92.1875 511.188 92.8542 511.188 94.1875C511.188 96.6875 512.583 100.521 515.375 105.688C513.208 105.938 510.938 106.062 508.562 106.062ZM592.125 78.75C592.625 78.75 593.167 78.5417 593.75 78.125C593.333 76.75 593.125 74.6042 593.125 71.6875V40.8125C597.542 38.1458 602.854 36.8125 609.062 36.8125C612.562 36.8125 615.625 37.2917 618.25 38.25C620.917 39.1667 622.958 40.3958 624.375 41.9375V74.5C624.375 80.7083 625.875 84.75 628.875 86.625C628.917 86.8333 628.938 87.2292 628.938 87.8125V88.9375C628.938 95.0208 627.333 99.625 624.125 102.75C621.208 105.667 617.188 107.125 612.062 107.125C608.854 107.125 605.938 106.396 603.312 104.938C600.729 103.479 598.792 101.354 597.5 98.5625C596.083 98.5625 595.375 99.25 595.375 100.625C595.375 101.583 595.854 102.542 596.812 103.5C595.479 104.583 593.875 105.458 592 106.125C590.125 106.792 587.354 107.125 583.688 107.125C580.062 107.125 576.521 106.375 573.062 104.875C568.771 103.042 565.479 100.229 563.188 96.4375C560.396 91.9375 559 86.2292 559 79.3125V63.625C556.875 59.9167 555.812 55.8333 555.812 51.375C555.812 49.0833 556.104 46.7083 556.688 44.25C557.271 41.7917 558.208 39.6042 559.5 37.6875H573.25C578.417 37.6875 582.458 38.9167 585.375 41.375C588.333 43.7917 589.812 47.4792 589.812 52.4375V72.6875C589.812 76.7292 590.583 78.75 592.125 78.75ZM663.875 49.75V74.5C663.875 80.7083 665.375 84.75 668.375 86.625C668.417 86.8333 668.438 87.2292 668.438 87.8125V88.9375C668.438 95.0625 666.771 99.6667 663.438 102.75C660.354 105.667 656.229 107.125 651.062 107.125C645.938 107.125 641.708 105.667 638.375 102.75C634.167 99.0417 632.062 93.625 632.062 86.5V45.875C632.812 45.3333 633.625 44.8958 634.5 44.5625C635.375 44.2292 636.292 43.8125 637.25 43.3125C635.458 42.3958 633.833 40.8125 632.375 38.5625C630.917 36.2708 630.188 33.6042 630.188 30.5625C630.188 25.3125 631.917 21.0208 635.375 17.6875C638.833 14.3542 643.062 12.6875 648.062 12.6875C653.104 12.6875 657.312 14.3958 660.688 17.8125C664.104 21.1875 665.812 25.4375 665.812 30.5625C665.812 34.6875 664.521 38.3125 661.938 41.4375C659.354 44.5208 656.208 46.4583 652.5 47.25C652.5 48.8333 653.104 49.625 654.312 49.625C656.438 49.625 658.604 48.7917 660.812 47.125C662.479 48.4167 663.5 49.2917 663.875 49.75ZM731.625 53.6875C731.625 54.8125 731.458 56.4583 731.125 58.625C730.792 60.75 730.396 62.4583 729.938 63.75C726.062 69.0833 721.417 73.5833 716 77.25C710.667 77.5 706.75 78.0417 704.25 78.875C701.792 79.7083 700.562 80.6458 700.562 81.6875C700.562 82.3542 700.792 82.8542 701.25 83.1875C703 82.2292 705.417 81.4792 708.5 80.9375C711.583 80.3542 714.542 80.0625 717.375 80.0625H729.438C730.521 81.9375 731.396 84.0417 732.062 86.375C732.729 88.6667 733.062 90.6875 733.062 92.4375C733.062 97.2708 731.75 100.854 729.125 103.188C727.042 105.062 724.188 106 720.562 106H676C672.292 102.125 670.438 96.0833 670.438 87.875C670.438 84.875 670.979 81.3125 672.062 77.1875C675.854 72.9792 681.229 68.2083 688.188 62.875C689.562 61.7917 691.104 60.5208 692.812 59.0625C692.562 58.1042 692 57.625 691.125 57.625C690.958 57.625 690.667 57.6667 690.25 57.75C689.042 58.125 686.521 60.1042 682.688 63.6875H674.938C672.479 59.6458 671.25 55.3125 671.25 50.6875C671.25 47.7708 671.708 45.1875 672.625 42.9375C673.542 40.6875 674.667 38.9375 676 37.6875H727.562C730.271 41.6458 731.625 46.9792 731.625 53.6875Z"/>
</mask>
<path d="M50.125 81.125C50.5417 81.125 50.9167 81.0208 51.25 80.8125V75.125C54.0833 73.2083 58.0417 71.6458 63.125 70.4375C68.25 69.2292 73.2292 68.625 78.0625 68.625C80.2708 70.875 82.1042 74.25 83.5625 78.75C85.0625 83.2083 85.8542 87.25 85.9375 90.875C85.1042 92.5417 83.6875 94.3333 81.6875 96.25C79.7292 98.1667 77.3542 99.9375 74.5625 101.562C67.6458 105.646 59.7083 107.688 50.75 107.688C37.9167 107.688 27.8125 103.958 20.4375 96.5C12.8125 88.9583 9 78.5208 9 65.1875C9 51.8125 13.1667 41.3125 21.5 33.6875C25.1667 30.2708 29.4375 27.7083 34.3125 26C39.1875 24.25 44.3125 23.375 49.6875 23.375C60.1875 23.375 68.7917 25.9167 75.5 31C82.2083 36.0833 85.5625 42.3542 85.5625 49.8125C85.5625 55.4375 83.8333 59.6042 80.375 62.3125C76.9167 64.9792 72.2292 66.3125 66.3125 66.3125C63.0625 66.3125 59.7917 65.5208 56.5 63.9375C53.2083 62.3125 51.25 60.7917 50.625 59.375C50.625 55.9583 50.6875 53.2708 50.8125 51.3125C50.7292 51.2708 50.5833 51.25 50.375 51.25H49.9375C49.3125 51.25 48.8125 51.4375 48.4375 51.8125C48.1042 52.1458 47.7917 52.875 47.5 54C47.25 55.125 47.125 58.1875 47.125 63.1875C47.125 75.1458 48.125 81.125 50.125 81.125ZM124.25 78.75C124.75 78.75 125.292 78.5417 125.875 78.125C125.458 76.75 125.25 74.6042 125.25 71.6875V40.8125C129.667 38.1458 134.979 36.8125 141.188 36.8125C144.688 36.8125 147.75 37.2917 150.375 38.25C153.042 39.1667 155.083 40.3958 156.5 41.9375V74.5C156.5 80.7083 158 84.75 161 86.625C161.042 86.8333 161.062 87.2292 161.062 87.8125V88.9375C161.062 95.0208 159.458 99.625 156.25 102.75C153.333 105.667 149.312 107.125 144.188 107.125C140.979 107.125 138.062 106.396 135.438 104.938C132.854 103.479 130.917 101.354 129.625 98.5625C128.208 98.5625 127.5 99.25 127.5 100.625C127.5 101.583 127.979 102.542 128.938 103.5C127.604 104.583 126 105.458 124.125 106.125C122.25 106.792 119.479 107.125 115.812 107.125C112.188 107.125 108.646 106.375 105.188 104.875C100.896 103.042 97.6042 100.229 95.3125 96.4375C92.5208 91.9375 91.125 86.2292 91.125 79.3125V63.625C89 59.9167 87.9375 55.8333 87.9375 51.375C87.9375 49.0833 88.2292 46.7083 88.8125 44.25C89.3958 41.7917 90.3333 39.6042 91.625 37.6875H105.375C110.542 37.6875 114.583 38.9167 117.5 41.375C120.458 43.7917 121.938 47.4792 121.938 52.4375V72.6875C121.938 76.7292 122.708 78.75 124.25 78.75ZM196.75 72.25V80.625C197.042 80.9167 197.521 81.0625 198.188 81.0625C198.854 81.0625 199.333 80.8333 199.625 80.375C199.917 79.9167 200.062 79.125 200.062 78V71.625C200.062 67.625 199.896 64.9792 199.562 63.6875C199.229 62.3542 198.604 61.6875 197.688 61.6875C197.104 61.6875 196.604 61.8958 196.188 62.3125C196.562 66.4375 196.75 69.75 196.75 72.25ZM176.812 45.3125C176.812 46.5625 177.542 47.1875 179 47.1875C181.5 43.2708 184.438 40.375 187.812 38.5C191.188 36.5833 195.25 35.625 200 35.625C204.75 35.625 209.083 36.375 213 37.875C218.375 40 222.625 43.4167 225.75 48.125C229.667 54.0833 231.625 61.8958 231.625 71.5625C231.625 82.4375 228.708 90.8958 222.875 96.9375C217.083 102.938 209.042 105.938 198.75 105.938C193 105.938 188.521 105.229 185.312 103.812C185.021 103.979 184.875 104.333 184.875 104.875C184.875 106.125 185.833 107.021 187.75 107.562C189.708 108.104 193.062 108.5 197.812 108.75V125.375C193.521 127.292 188.812 128.25 183.688 128.25C177.646 128.25 173.083 127.146 170 124.938C166.5 122.562 164.75 118.917 164.75 114V63.6875C162.292 60.2292 161.062 55.9375 161.062 50.8125C161.062 48.7292 161.396 46.4583 162.062 44C162.729 41.5417 163.625 39.4375 164.75 37.6875H173.625C177.25 37.6875 180.021 38.1875 181.938 39.1875C178.521 41.7292 176.812 43.7708 176.812 45.3125ZM267 49.75V74.5C267 80.7083 268.5 84.75 271.5 86.625C271.542 86.8333 271.562 87.2292 271.562 87.8125V88.9375C271.562 95.0625 269.896 99.6667 266.562 102.75C263.479 105.667 259.354 107.125 254.188 107.125C249.062 107.125 244.833 105.667 241.5 102.75C237.292 99.0417 235.188 93.625 235.188 86.5V45.875C235.938 45.3333 236.75 44.8958 237.625 44.5625C238.5 44.2292 239.417 43.8125 240.375 43.3125C238.583 42.3958 236.958 40.8125 235.5 38.5625C234.042 36.2708 233.312 33.6042 233.312 30.5625C233.312 25.3125 235.042 21.0208 238.5 17.6875C241.958 14.3542 246.188 12.6875 251.188 12.6875C256.229 12.6875 260.438 14.3958 263.812 17.8125C267.229 21.1875 268.938 25.4375 268.938 30.5625C268.938 34.6875 267.646 38.3125 265.062 41.4375C262.479 44.5208 259.333 46.4583 255.625 47.25C255.625 48.8333 256.229 49.625 257.438 49.625C259.562 49.625 261.729 48.7917 263.938 47.125C265.604 48.4167 266.625 49.2917 267 49.75ZM308.75 61.6875C308.333 61.2708 307.833 61.0625 307.25 61.0625C306.333 61.0625 305.708 61.7292 305.375 63.0625C305.042 64.3542 304.875 67 304.875 71V77.375C304.875 78.5 305.021 79.2917 305.312 79.75C305.604 80.2083 306.083 80.4375 306.75 80.4375C307.417 80.4375 307.896 80.2917 308.188 80V71.625C308.188 67.5417 308.375 64.2292 308.75 61.6875ZM304.25 24.75C306.458 22.1667 308.896 20.2292 311.562 18.9375C314.229 17.6042 317.625 16.9375 321.75 16.9375C326.75 16.9375 330.812 18.3333 333.938 21.125C337.146 24.125 338.75 28.1667 338.75 33.25V74.5C338.75 80.7083 340.25 84.75 343.25 86.625C343.292 86.8333 343.312 87.2292 343.312 87.8125V88.9375C343.312 94.8542 341.521 99.4583 337.938 102.75C334.771 105.667 330.854 107.125 326.188 107.125C322.938 107.125 320.125 106.438 317.75 105.062C314.958 103.479 313 101.312 311.875 98.5625C310.458 98.5625 309.75 99.25 309.75 100.625C309.75 101.25 309.979 101.979 310.438 102.812C310.938 103.604 311.604 104.312 312.438 104.938C309.979 106.396 306.792 107.125 302.875 107.125C297.583 107.125 292.625 105.917 288 103.5C283.417 101.042 279.771 97.3542 277.062 92.4375C273.938 86.8125 272.375 80 272.375 72C272.375 61.3333 275.354 52.9583 281.312 46.875C287.312 40.7917 294.958 37.75 304.25 37.75C309.75 37.75 314.542 38.7917 318.625 40.875C319.083 40.4167 319.312 39.9375 319.312 39.4375C319.312 38.1875 317.833 37.125 314.875 36.25C311.917 35.375 308.938 34.9375 305.938 34.9375C305.938 30.6875 305.375 27.2917 304.25 24.75ZM360.75 47.0625C360.75 46.6458 360.667 46.375 360.5 46.25C360.375 46.0833 360.229 45.875 360.062 45.625C358.604 46.5 356.583 46.9375 354 46.9375C350.542 46.9375 347.667 45.7917 345.375 43.5C342.875 41.125 341.625 38.0833 341.625 34.375C341.625 29.75 343.062 26.1458 345.938 23.5625C348.854 20.9375 352.583 19.625 357.125 19.625C362.417 19.625 366.583 21.4375 369.625 25.0625C372.708 28.6875 374.25 33.2708 374.25 38.8125C374.25 45.6875 372.396 51.0208 368.688 54.8125C365.021 58.5625 360.625 60.4375 355.5 60.4375C352.292 60.4375 349.708 59.7292 347.75 58.3125C345.792 56.8542 344.812 54.8542 344.812 52.3125C344.812 50.3542 345.312 48.7917 346.312 47.625C348.604 49.0417 350.938 49.75 353.312 49.75C355.729 49.75 357.562 49.5208 358.812 49.0625C360.104 48.6042 360.75 47.9375 360.75 47.0625ZM407.812 57C406.729 57.3333 406.188 57.9792 406.188 58.9375V59.25C406.188 59.4583 406.208 59.5833 406.25 59.625C406.708 59.5833 407.312 59.5625 408.062 59.5625H409.562C414.312 59.5625 418.75 60.2917 422.875 61.75C427.042 63.1667 430.438 65.4583 433.062 68.625C435.979 72.2083 437.438 76.7292 437.438 82.1875C437.438 90.6875 434.5 97.1042 428.625 101.438C422.75 105.771 414.896 107.938 405.062 107.938C395.229 107.938 387.521 106.312 381.938 103.062C376.396 99.8125 373.625 95.0417 373.625 88.75C373.625 86.4167 374.125 84.2917 375.125 82.375C376.125 80.4167 377.25 79.0417 378.5 78.25C380.792 80.1667 384.104 81.8333 388.438 83.25C392.812 84.625 397.438 85.3125 402.312 85.3125C404.271 85.3125 405.25 84.7708 405.25 83.6875C405.25 83.1875 405.188 82.7708 405.062 82.4375C404.771 82.4792 404.417 82.5 404 82.5H403.312C394.479 82.5 387.417 80.75 382.125 77.25C376.125 73.2917 373.125 67.7083 373.125 60.5C373.125 53.2917 375.812 47.4583 381.188 43C387.146 38.0833 395.333 35.625 405.75 35.625C410.875 35.625 415.646 36.1667 420.062 37.25C424.521 38.3333 428.333 39.7708 431.5 41.5625C432.292 43.2708 432.688 45.7917 432.688 49.125C432.688 54.2083 431.292 58.1042 428.5 60.8125C426.375 59.6458 423.771 58.6875 420.688 57.9375C417.646 57.1458 414.896 56.75 412.438 56.75C409.979 56.75 408.438 56.8333 407.812 57ZM503.438 76.4375C503.438 77.1458 503.771 77.625 504.438 77.875C505.438 76.75 506.854 75.7708 508.688 74.9375C510.521 74.0625 512.583 73.625 514.875 73.625C519.25 73.625 522.875 74.9167 525.75 77.5C525.75 77.5 525.896 77.625 526.188 77.875C526.729 77.5833 527 77.0625 527 76.3125C527 75.0208 525.979 73.7917 523.938 72.625C521.562 71.3333 518.521 70.6875 514.812 70.6875C513.812 70.6875 512.896 70.7708 512.062 70.9375V54.625C512.062 52.8333 511.438 51.9375 510.188 51.9375C508.979 51.9375 508.375 52.8542 508.375 54.6875V71.8125C505.083 73.1458 503.438 74.6875 503.438 76.4375ZM508.562 106.062C501.354 106.062 494.812 104.708 488.938 102C483.062 99.25 478.375 95.0208 474.875 89.3125C470.958 82.8542 469 74.8125 469 65.1875C469 55.5625 471 47.4583 475 40.875C478.583 34.9583 483.438 30.5625 489.562 27.6875C495.729 24.8125 502.354 23.375 509.438 23.375C522.354 23.375 532.479 27.1667 539.812 34.75C547.188 42.2917 550.875 52.1667 550.875 64.375C550.875 71.8333 549.292 78.375 546.125 84H555.188C556.688 88.5 557.438 92.75 557.438 96.75C557.438 102.833 555.75 107.729 552.375 111.438C549 115.146 544.292 117 538.25 117C532.208 117 527.188 115 523.188 111C519.229 107.042 516 100.771 513.5 92.1875H513.188C511.854 92.1875 511.188 92.8542 511.188 94.1875C511.188 96.6875 512.583 100.521 515.375 105.688C513.208 105.938 510.938 106.062 508.562 106.062ZM592.125 78.75C592.625 78.75 593.167 78.5417 593.75 78.125C593.333 76.75 593.125 74.6042 593.125 71.6875V40.8125C597.542 38.1458 602.854 36.8125 609.062 36.8125C612.562 36.8125 615.625 37.2917 618.25 38.25C620.917 39.1667 622.958 40.3958 624.375 41.9375V74.5C624.375 80.7083 625.875 84.75 628.875 86.625C628.917 86.8333 628.938 87.2292 628.938 87.8125V88.9375C628.938 95.0208 627.333 99.625 624.125 102.75C621.208 105.667 617.188 107.125 612.062 107.125C608.854 107.125 605.938 106.396 603.312 104.938C600.729 103.479 598.792 101.354 597.5 98.5625C596.083 98.5625 595.375 99.25 595.375 100.625C595.375 101.583 595.854 102.542 596.812 103.5C595.479 104.583 593.875 105.458 592 106.125C590.125 106.792 587.354 107.125 583.688 107.125C580.062 107.125 576.521 106.375 573.062 104.875C568.771 103.042 565.479 100.229 563.188 96.4375C560.396 91.9375 559 86.2292 559 79.3125V63.625C556.875 59.9167 555.812 55.8333 555.812 51.375C555.812 49.0833 556.104 46.7083 556.688 44.25C557.271 41.7917 558.208 39.6042 559.5 37.6875H573.25C578.417 37.6875 582.458 38.9167 585.375 41.375C588.333 43.7917 589.812 47.4792 589.812 52.4375V72.6875C589.812 76.7292 590.583 78.75 592.125 78.75ZM663.875 49.75V74.5C663.875 80.7083 665.375 84.75 668.375 86.625C668.417 86.8333 668.438 87.2292 668.438 87.8125V88.9375C668.438 95.0625 666.771 99.6667 663.438 102.75C660.354 105.667 656.229 107.125 651.062 107.125C645.938 107.125 641.708 105.667 638.375 102.75C634.167 99.0417 632.062 93.625 632.062 86.5V45.875C632.812 45.3333 633.625 44.8958 634.5 44.5625C635.375 44.2292 636.292 43.8125 637.25 43.3125C635.458 42.3958 633.833 40.8125 632.375 38.5625C630.917 36.2708 630.188 33.6042 630.188 30.5625C630.188 25.3125 631.917 21.0208 635.375 17.6875C638.833 14.3542 643.062 12.6875 648.062 12.6875C653.104 12.6875 657.312 14.3958 660.688 17.8125C664.104 21.1875 665.812 25.4375 665.812 30.5625C665.812 34.6875 664.521 38.3125 661.938 41.4375C659.354 44.5208 656.208 46.4583 652.5 47.25C652.5 48.8333 653.104 49.625 654.312 49.625C656.438 49.625 658.604 48.7917 660.812 47.125C662.479 48.4167 663.5 49.2917 663.875 49.75ZM731.625 53.6875C731.625 54.8125 731.458 56.4583 731.125 58.625C730.792 60.75 730.396 62.4583 729.938 63.75C726.062 69.0833 721.417 73.5833 716 77.25C710.667 77.5 706.75 78.0417 704.25 78.875C701.792 79.7083 700.562 80.6458 700.562 81.6875C700.562 82.3542 700.792 82.8542 701.25 83.1875C703 82.2292 705.417 81.4792 708.5 80.9375C711.583 80.3542 714.542 80.0625 717.375 80.0625H729.438C730.521 81.9375 731.396 84.0417 732.062 86.375C732.729 88.6667 733.062 90.6875 733.062 92.4375C733.062 97.2708 731.75 100.854 729.125 103.188C727.042 105.062 724.188 106 720.562 106H676C672.292 102.125 670.438 96.0833 670.438 87.875C670.438 84.875 670.979 81.3125 672.062 77.1875C675.854 72.9792 681.229 68.2083 688.188 62.875C689.562 61.7917 691.104 60.5208 692.812 59.0625C692.562 58.1042 692 57.625 691.125 57.625C690.958 57.625 690.667 57.6667 690.25 57.75C689.042 58.125 686.521 60.1042 682.688 63.6875H674.938C672.479 59.6458 671.25 55.3125 671.25 50.6875C671.25 47.7708 671.708 45.1875 672.625 42.9375C673.542 40.6875 674.667 38.9375 676 37.6875H727.562C730.271 41.6458 731.625 46.9792 731.625 53.6875Z" fill="#FFDBE7"/>
<path d="M51.25 80.8125L53.9 85.0525L56.25 83.5837V80.8125H51.25ZM51.25 75.125L48.4485 70.9836L46.25 72.4708V75.125H51.25ZM63.125 70.4375L61.9776 65.5709L61.9687 65.573L63.125 70.4375ZM78.0625 68.625L81.6309 65.1227L80.161 63.625H78.0625V68.625ZM83.5625 78.75L78.806 80.2914L78.8146 80.318L78.8235 80.3444L83.5625 78.75ZM85.9375 90.875L90.4096 93.1111L90.9647 92.0009L90.9362 90.7601L85.9375 90.875ZM81.6875 96.25L78.228 92.6401L78.209 92.6583L78.1902 92.6767L81.6875 96.25ZM74.5625 101.562L72.0472 97.2413L72.0339 97.249L72.0206 97.2568L74.5625 101.562ZM20.4375 96.5L23.9928 92.9844L23.9733 92.9646L23.9536 92.9451L20.4375 96.5ZM21.5 33.6875L24.8753 37.3763L24.892 37.361L24.9086 37.3455L21.5 33.6875ZM34.3125 26L35.966 30.7187L35.984 30.7124L36.0018 30.706L34.3125 26ZM80.375 62.3125L83.4282 66.2721L83.443 66.2606L83.4578 66.249L80.375 62.3125ZM56.5 63.9375L54.2867 68.4209L54.3096 68.4323L54.3326 68.4433L56.5 63.9375ZM50.625 59.375H45.625V60.4289L46.0504 61.3932L50.625 59.375ZM50.8125 51.3125L55.8023 51.631L56.0135 48.3228L53.0486 46.8404L50.8125 51.3125ZM47.5 54L42.66 52.7452L42.6381 52.8299L42.6191 52.9153L47.5 54ZM50.125 81.125V86.125C51.42 86.125 52.7236 85.7877 53.9 85.0525L51.25 80.8125L48.6 76.5725C49.1097 76.2539 49.6633 76.125 50.125 76.125V81.125ZM51.25 80.8125H56.25V75.125H51.25H46.25V80.8125H51.25ZM51.25 75.125L54.0515 79.2664C56.1931 77.8177 59.5082 76.4366 64.2813 75.302L63.125 70.4375L61.9687 65.573C56.5752 66.8551 51.9736 68.5989 48.4485 70.9836L51.25 75.125ZM63.125 70.4375L64.2724 75.3041C69.0546 74.1766 73.6482 73.625 78.0625 73.625V68.625V63.625C72.8101 63.625 67.4454 64.2818 61.9776 65.5709L63.125 70.4375ZM78.0625 68.625L74.4941 72.1273C75.9565 73.6174 77.4771 76.1908 78.806 80.2914L83.5625 78.75L88.319 77.2086C86.7312 72.3092 84.5851 68.1326 81.6309 65.1227L78.0625 68.625ZM83.5625 78.75L78.8235 80.3444C80.208 84.4592 80.8699 87.9923 80.9388 90.9899L85.9375 90.875L90.9362 90.7601C90.8384 86.5077 89.917 81.9574 88.3015 77.1556L83.5625 78.75ZM85.9375 90.875L81.4654 88.6389C80.9808 89.608 79.9959 90.9458 78.228 92.6401L81.6875 96.25L85.147 99.8599C87.3791 97.7208 89.2275 95.4753 90.4096 93.1111L85.9375 90.875ZM81.6875 96.25L78.1902 92.6767C76.574 94.2584 74.5436 95.7881 72.0472 97.2413L74.5625 101.562L77.0778 105.884C80.1648 104.087 82.8843 102.075 85.1848 99.8233L81.6875 96.25ZM74.5625 101.562L72.0206 97.2568C65.9601 100.835 58.9199 102.688 50.75 102.688V107.688V112.688C60.4968 112.688 69.3316 110.457 77.1044 105.868L74.5625 101.562ZM50.75 107.688V102.688C38.9343 102.688 30.2263 99.2883 23.9928 92.9844L20.4375 96.5L16.8822 100.016C25.3987 108.628 36.899 112.688 50.75 112.688V107.688ZM20.4375 96.5L23.9536 92.9451C17.4978 86.5599 14 77.5296 14 65.1875H9H4C4 79.5121 8.12719 91.3568 16.9214 100.055L20.4375 96.5ZM9 65.1875H14C14 52.9339 17.7681 43.8794 24.8753 37.3763L21.5 33.6875L18.1247 29.9987C8.56522 38.7456 4 50.6911 4 65.1875H9ZM21.5 33.6875L24.9086 37.3455C28.0542 34.4145 31.7226 32.2057 35.966 30.7187L34.3125 26L32.659 21.2813C27.1524 23.211 22.2792 26.1272 18.0914 30.0295L21.5 33.6875ZM34.3125 26L36.0018 30.706C40.3145 29.1578 44.8663 28.375 49.6875 28.375V23.375V18.375C43.7587 18.375 38.0605 19.3422 32.6232 21.294L34.3125 26ZM49.6875 23.375V28.375C59.3716 28.375 66.8368 30.7087 72.4802 34.9851L75.5 31L78.5198 27.0149C70.7465 21.1246 61.0034 18.375 49.6875 18.375V23.375ZM75.5 31L72.4802 34.9851C78.1245 39.2621 80.5625 44.1357 80.5625 49.8125H85.5625H90.5625C90.5625 40.5726 86.2922 32.9046 78.5198 27.0149L75.5 31ZM85.5625 49.8125H80.5625C80.5625 54.3711 79.2126 56.872 77.2922 58.376L80.375 62.3125L83.4578 66.249C88.454 62.3363 90.5625 56.5039 90.5625 49.8125H85.5625ZM80.375 62.3125L77.3218 58.3529C75.0028 60.1411 71.5128 61.3125 66.3125 61.3125V66.3125V71.3125C72.9455 71.3125 78.8305 69.8173 83.4282 66.2721L80.375 62.3125ZM66.3125 66.3125V61.3125C63.9012 61.3125 61.3671 60.7303 58.6674 59.4317L56.5 63.9375L54.3326 68.4433C58.2162 70.3114 62.2238 71.3125 66.3125 71.3125V66.3125ZM56.5 63.9375L58.7133 59.4541C57.2401 58.7268 56.249 58.1104 55.6293 57.6291C54.9518 57.103 55.0342 56.982 55.1996 57.3568L50.625 59.375L46.0504 61.3932C46.8408 63.1847 48.2149 64.5324 49.4957 65.5271C50.8343 66.5667 52.4683 67.5232 54.2867 68.4209L56.5 63.9375ZM50.625 59.375H55.625C55.625 55.9993 55.6873 53.4337 55.8023 51.631L50.8125 51.3125L45.8227 50.994C45.6877 53.108 45.625 55.9174 45.625 59.375H50.625ZM50.8125 51.3125L53.0486 46.8404C51.8256 46.2289 50.6272 46.25 50.375 46.25V51.25V56.25C50.3311 56.25 50.1686 56.249 49.9335 56.2154C49.8113 56.1979 49.6348 56.1668 49.4227 56.109C49.2156 56.0525 48.9174 55.9551 48.5764 55.7846L50.8125 51.3125ZM50.375 51.25V46.25H49.9375V51.25V56.25H50.375V51.25ZM49.9375 51.25V46.25C48.2412 46.25 46.3806 46.7983 44.902 48.277L48.4375 51.8125L51.973 55.348C51.6522 55.6688 51.2629 55.9172 50.8494 56.0723C50.4512 56.2216 50.1243 56.25 49.9375 56.25V51.25ZM48.4375 51.8125L44.902 48.277C44.0804 49.0986 43.6166 50.0349 43.3574 50.6398C43.0677 51.3156 42.8429 52.0398 42.66 52.7452L47.5 54L52.34 55.2548C52.3919 55.0544 52.4381 54.8978 52.4766 54.7795C52.5158 54.6594 52.5413 54.5966 52.5489 54.579C52.5581 54.5573 52.5336 54.6193 52.464 54.7338C52.4277 54.7936 52.3727 54.8782 52.2961 54.979C52.22 55.0794 52.1137 55.2073 51.973 55.348L48.4375 51.8125ZM47.5 54L42.6191 52.9153C42.3843 53.9716 42.284 55.4405 42.2229 56.9367C42.1565 58.5646 42.125 60.6561 42.125 63.1875H47.125H52.125C52.125 60.7189 52.156 58.7792 52.2146 57.3445C52.2439 56.6268 52.2788 56.0687 52.316 55.653C52.3565 55.2003 52.3886 55.0501 52.3809 55.0847L47.5 54ZM47.125 63.1875H42.125C42.125 69.2316 42.3728 74.0534 42.9435 77.4654C43.2206 79.122 43.6318 80.8277 44.3435 82.2462C44.9603 83.4755 46.6821 86.125 50.125 86.125V81.125V76.125C51.2429 76.125 52.1273 76.5799 52.6693 77.0429C52.9137 77.2516 53.069 77.4429 53.154 77.5602C53.2397 77.6784 53.2781 77.7547 53.2815 77.7616C53.2823 77.7632 53.2139 77.6209 53.1133 77.26C53.0162 76.9118 52.9105 76.4377 52.8065 75.8158C52.3772 73.2487 52.125 69.1017 52.125 63.1875H47.125ZM125.875 78.125L128.781 82.1937L131.701 80.1084L130.66 76.675L125.875 78.125ZM125.25 40.8125L122.666 36.5322L120.25 37.9907V40.8125H125.25ZM150.375 38.25L148.66 42.9468L148.705 42.963L148.75 42.9784L150.375 38.25ZM156.5 41.9375H161.5V39.9891L160.182 38.5544L156.5 41.9375ZM161 86.625L165.903 85.6444L165.48 83.5286L163.65 82.385L161 86.625ZM156.25 102.75L152.761 99.1683L152.738 99.1912L152.714 99.2145L156.25 102.75ZM135.438 104.938L132.98 109.292L132.994 109.3L133.009 109.308L135.438 104.938ZM129.625 98.5625L134.163 96.4629L132.821 93.5625H129.625V98.5625ZM128.938 103.5L132.09 107.381L136.393 103.885L132.473 99.9645L128.938 103.5ZM105.188 104.875L107.177 100.288L107.164 100.282L107.152 100.277L105.188 104.875ZM95.3125 96.4375L99.5916 93.8512L99.5766 93.8263L99.5613 93.8017L95.3125 96.4375ZM91.125 63.625H96.125V62.2939L95.4632 61.1391L91.125 63.625ZM88.8125 44.25L83.9476 43.0956L88.8125 44.25ZM91.625 37.6875V32.6875H88.9651L87.4787 34.8932L91.625 37.6875ZM117.5 41.375L114.278 45.1981L114.307 45.2229L114.337 45.2472L117.5 41.375ZM124.25 78.75V83.75C126.156 83.75 127.704 82.9634 128.781 82.1937L125.875 78.125L122.969 74.0563C122.88 74.1199 123.344 73.75 124.25 73.75V78.75ZM125.875 78.125L130.66 76.675C130.468 76.0395 130.25 74.5096 130.25 71.6875H125.25H120.25C120.25 74.6988 120.449 77.4605 121.09 79.575L125.875 78.125ZM125.25 71.6875H130.25V40.8125H125.25H120.25V71.6875H125.25ZM125.25 40.8125L127.834 45.0928C131.326 42.9846 135.704 41.8125 141.188 41.8125V36.8125V31.8125C134.254 31.8125 128.007 33.307 122.666 36.5322L125.25 40.8125ZM141.188 36.8125V41.8125C144.244 41.8125 146.704 42.2325 148.66 42.9468L150.375 38.25L152.09 33.5532C148.796 32.3509 145.131 31.8125 141.188 31.8125V36.8125ZM150.375 38.25L148.75 42.9784C150.891 43.7146 152.126 44.567 152.818 45.3206L156.5 41.9375L160.182 38.5544C158.041 36.2246 155.192 34.6188 152 33.5216L150.375 38.25ZM156.5 41.9375H151.5V74.5H156.5H161.5V41.9375H156.5ZM156.5 74.5H151.5C151.5 81.1319 153.05 87.5524 158.35 90.865L161 86.625L163.65 82.385C162.95 81.9476 161.5 80.2848 161.5 74.5H156.5ZM161 86.625L156.097 87.6056C156.081 87.5243 156.071 87.4602 156.065 87.419C156.059 87.3768 156.056 87.3465 156.054 87.3309C156.051 87.302 156.052 87.3023 156.054 87.3409C156.056 87.3774 156.058 87.4347 156.06 87.5165C156.061 87.5975 156.062 87.6957 156.062 87.8125H161.062H166.062C166.062 87.2807 166.056 86.4079 165.903 85.6444L161 86.625ZM161.062 87.8125H156.062V88.9375H161.062H166.062V87.8125H161.062ZM161.062 88.9375H156.062C156.062 94.1699 154.697 97.2829 152.761 99.1683L156.25 102.75L159.739 106.332C164.22 101.967 166.062 95.8717 166.062 88.9375H161.062ZM156.25 102.75L152.714 99.2145C150.951 100.977 148.327 102.125 144.188 102.125V107.125V112.125C150.298 112.125 155.715 110.356 159.786 106.286L156.25 102.75ZM144.188 107.125V102.125C141.769 102.125 139.697 101.584 137.866 100.567L135.438 104.938L133.009 109.308C136.428 111.207 140.189 112.125 144.188 112.125V107.125ZM135.438 104.938L137.895 100.583C136.26 99.66 135.032 98.3412 134.163 96.4629L129.625 98.5625L125.087 100.662C126.801 104.367 129.449 107.298 132.98 109.292L135.438 104.938ZM129.625 98.5625V93.5625C128.183 93.5625 126.176 93.9111 124.549 95.4902C122.894 97.0963 122.5 99.1282 122.5 100.625H127.5H132.5C132.5 100.747 132.46 101.747 131.514 102.666C130.595 103.558 129.651 103.562 129.625 103.562V98.5625ZM127.5 100.625H122.5C122.5 103.377 123.899 105.532 125.402 107.036L128.938 103.5L132.473 99.9645C132.278 99.7694 132.277 99.717 132.332 99.8264C132.398 99.9587 132.5 100.24 132.5 100.625H127.5ZM128.938 103.5L125.785 99.6194C124.957 100.292 123.872 100.908 122.45 101.414L124.125 106.125L125.8 110.836C128.128 110.008 130.252 108.875 132.09 107.381L128.938 103.5ZM124.125 106.125L122.45 101.414C121.39 101.791 119.305 102.125 115.812 102.125V107.125V112.125C119.653 112.125 123.11 111.793 125.8 110.836L124.125 106.125ZM115.812 107.125V102.125C112.899 102.125 110.033 101.527 107.177 100.288L105.188 104.875L103.198 109.462C107.259 111.223 111.476 112.125 115.812 112.125V107.125ZM105.188 104.875L107.152 100.277C103.769 98.8318 101.312 96.6968 99.5916 93.8512L95.3125 96.4375L91.0334 99.0238C93.8968 103.762 98.0229 107.252 103.223 109.473L105.188 104.875ZM95.3125 96.4375L99.5613 93.8017C97.3896 90.3011 96.125 85.5772 96.125 79.3125H91.125H86.125C86.125 86.8812 87.652 93.5739 91.0637 99.0733L95.3125 96.4375ZM91.125 79.3125H96.125V63.625H91.125H86.125V79.3125H91.125ZM91.125 63.625L95.4632 61.1391C93.7909 58.2207 92.9375 55.0003 92.9375 51.375H87.9375H82.9375C82.9375 56.6663 84.2091 61.6126 86.7868 66.1109L91.125 63.625ZM87.9375 51.375H92.9375C92.9375 49.5094 93.1748 47.5227 93.6774 45.4044L88.8125 44.25L83.9476 43.0956C83.2836 45.894 82.9375 48.6572 82.9375 51.375H87.9375ZM88.8125 44.25L93.6774 45.4044C94.1348 43.4769 94.8459 41.855 95.7713 40.4818L91.625 37.6875L87.4787 34.8932C85.8208 37.3533 84.6569 40.1065 83.9476 43.0956L88.8125 44.25ZM91.625 37.6875V42.6875H105.375V37.6875V32.6875H91.625V37.6875ZM105.375 37.6875V42.6875C109.781 42.6875 112.538 43.7321 114.278 45.1981L117.5 41.375L120.722 37.5519C116.628 34.1013 111.302 32.6875 105.375 32.6875V37.6875ZM117.5 41.375L114.337 45.2472C115.805 46.4462 116.938 48.4978 116.938 52.4375H121.938H126.938C126.938 46.4605 125.112 41.1371 120.663 37.5028L117.5 41.375ZM121.938 52.4375H116.938V72.6875H121.938H126.938V52.4375H121.938ZM121.938 72.6875H116.938C116.938 74.8826 117.127 77.1375 117.844 79.0164C118.216 79.9917 118.844 81.1707 119.948 82.1361C121.152 83.1884 122.66 83.75 124.25 83.75V78.75V73.75C124.614 73.75 125.031 73.8116 125.462 73.9729C125.892 74.1342 126.25 74.363 126.528 74.6061C126.799 74.8423 126.967 75.0676 127.06 75.215C127.153 75.3603 127.187 75.4519 127.187 75.4524C127.188 75.4545 127.167 75.3983 127.137 75.2663C127.107 75.136 127.073 74.9531 127.042 74.7092C126.979 74.2148 126.938 73.5499 126.938 72.6875H121.938ZM196.75 80.625H191.75V82.6961L193.214 84.1605L196.75 80.625ZM199.562 63.6875L194.712 64.9002L194.716 64.9185L194.721 64.9369L199.562 63.6875ZM196.188 62.3125L192.652 58.777L190.996 60.4329L191.208 62.7652L196.188 62.3125ZM179 47.1875V52.1875H181.74L183.215 49.8777L179 47.1875ZM187.812 38.5L190.241 42.8708L190.261 42.8594L190.282 42.8478L187.812 38.5ZM213 37.875L214.838 33.2252L214.813 33.2153L214.788 33.2057L213 37.875ZM225.75 48.125L229.928 45.3785L229.922 45.3693L229.916 45.36L225.75 48.125ZM222.875 96.9375L219.278 93.4645L219.278 93.465L222.875 96.9375ZM185.312 103.812L187.332 99.2386L185.023 98.219L182.832 99.4713L185.312 103.812ZM187.75 107.562L186.39 112.374L186.404 112.378L186.417 112.382L187.75 107.562ZM197.812 108.75H202.812V104.006L198.075 103.757L197.812 108.75ZM197.812 125.375L199.851 129.94L202.812 128.618V125.375H197.812ZM170 124.938L172.911 120.873L172.86 120.836L172.808 120.8L170 124.938ZM164.75 63.6875H169.75V62.0915L168.825 60.7906L164.75 63.6875ZM162.062 44L157.237 42.6913L162.062 44ZM164.75 37.6875V32.6875H162.02L160.544 34.9837L164.75 37.6875ZM181.938 39.1875L184.922 43.1992L191.317 38.4417L184.25 34.7546L181.938 39.1875ZM196.75 72.25H191.75V80.625H196.75H201.75V72.25H196.75ZM196.75 80.625L193.214 84.1605C194.881 85.8271 196.978 86.0625 198.188 86.0625V81.0625V76.0625C198.195 76.0625 198.425 76.0605 198.784 76.1698C199.163 76.2851 199.739 76.5431 200.286 77.0895L196.75 80.625ZM198.188 81.0625V86.0625C200.117 86.0625 202.417 85.3003 203.843 83.0594L199.625 80.375L195.407 77.6906C195.751 77.1491 196.265 76.6788 196.89 76.38C197.473 76.101 197.96 76.0625 198.188 76.0625V81.0625ZM199.625 80.375L203.843 83.0594C204.957 81.3099 205.062 79.2525 205.062 78H200.062H195.062C195.062 78.1754 195.057 78.3076 195.05 78.4019C195.042 78.4976 195.035 78.5374 195.036 78.5317C195.036 78.5282 195.051 78.4492 195.097 78.317C195.143 78.1867 195.234 77.9612 195.407 77.6906L199.625 80.375ZM200.062 78H205.062V71.625H200.062H195.062V78H200.062ZM200.062 71.625H205.062C205.062 67.7353 204.922 64.4471 204.404 62.4381L199.562 63.6875L194.721 64.9369C194.869 65.5113 195.062 67.5147 195.062 71.625H200.062ZM199.562 63.6875L204.413 62.4748C204.136 61.3659 203.608 59.9583 202.491 58.7678C201.23 57.4226 199.523 56.6875 197.688 56.6875V61.6875V66.6875C197.297 66.6875 196.825 66.6133 196.336 66.4018C195.846 66.1901 195.467 65.8957 195.196 65.6072C194.705 65.0834 194.656 64.6758 194.712 64.9002L199.562 63.6875ZM197.688 61.6875V56.6875C195.763 56.6875 193.996 57.4333 192.652 58.777L196.188 62.3125L199.723 65.848C199.51 66.0607 199.202 66.2908 198.798 66.4591C198.393 66.6279 198.005 66.6875 197.688 66.6875V61.6875ZM196.188 62.3125L191.208 62.7652C191.577 66.8234 191.75 69.9667 191.75 72.25H196.75H201.75C201.75 69.5333 201.548 66.0516 201.167 61.8598L196.188 62.3125ZM176.812 45.3125H171.812C171.812 46.9268 172.319 48.9841 174.105 50.515C175.744 51.9195 177.673 52.1875 179 52.1875V47.1875V42.1875C178.869 42.1875 179.704 42.143 180.613 42.9225C181.67 43.8284 181.812 44.9482 181.812 45.3125H176.812ZM179 47.1875L183.215 49.8777C185.358 46.5192 187.725 44.2682 190.241 42.8708L187.812 38.5L185.384 34.1292C181.15 36.4818 177.642 40.0225 174.785 44.4973L179 47.1875ZM187.812 38.5L190.282 42.8478C192.753 41.4445 195.923 40.625 200 40.625V35.625V30.625C194.577 30.625 189.622 31.7221 185.343 34.1522L187.812 38.5ZM200 35.625V40.625C204.219 40.625 207.936 41.2899 211.212 42.5443L213 37.875L214.788 33.2057C210.23 31.4601 205.281 30.625 200 30.625V35.625ZM213 37.875L211.162 42.5248C215.61 44.2833 219.038 47.0535 221.584 50.89L225.75 48.125L229.916 45.36C226.212 39.7799 221.14 35.7167 214.838 33.2252L213 37.875ZM225.75 48.125L221.572 50.8715C224.793 55.7715 226.625 62.5341 226.625 71.5625H231.625H236.625C236.625 61.2576 234.54 52.3952 229.928 45.3785L225.75 48.125ZM231.625 71.5625H226.625C226.625 81.5385 223.969 88.606 219.278 93.4645L222.875 96.9375L226.472 100.41C233.448 93.1857 236.625 83.3365 236.625 71.5625H231.625ZM222.875 96.9375L219.278 93.465C214.64 98.2693 208.024 100.938 198.75 100.938V105.938V110.938C210.06 110.938 219.527 107.606 226.472 100.41L222.875 96.9375ZM198.75 105.938V100.938C193.306 100.938 189.625 100.251 187.332 99.2386L185.312 103.812L183.293 108.386C187.417 110.208 192.694 110.938 198.75 110.938V105.938ZM185.312 103.812L182.832 99.4713C180.185 100.984 179.875 103.699 179.875 104.875H184.875H189.875C189.875 105.007 189.864 105.485 189.608 106.107C189.32 106.807 188.746 107.609 187.793 108.154L185.312 103.812ZM184.875 104.875H179.875C179.875 106.96 180.745 108.796 182.179 110.137C183.465 111.339 185.028 111.989 186.39 112.374L187.75 107.562L189.11 102.751C188.556 102.594 188.68 102.525 189.008 102.832C189.199 103.01 189.438 103.299 189.62 103.707C189.805 104.121 189.875 104.53 189.875 104.875H184.875ZM187.75 107.562L186.417 112.382C188.951 113.082 192.789 113.493 197.55 113.743L197.812 108.75L198.075 103.757C193.336 103.507 190.466 103.126 189.083 102.743L187.75 107.562ZM197.812 108.75H192.812V125.375H197.812H202.812V108.75H197.812ZM197.812 125.375L195.774 120.81C192.18 122.415 188.174 123.25 183.688 123.25V128.25V133.25C189.451 133.25 194.862 132.169 199.851 129.94L197.812 125.375ZM183.688 128.25V123.25C178.119 123.25 174.776 122.208 172.911 120.873L170 124.938L167.089 129.002C171.39 132.083 177.173 133.25 183.688 133.25V128.25ZM170 124.938L172.808 120.8C170.918 119.518 169.75 117.571 169.75 114H164.75H159.75C159.75 120.263 162.082 125.607 167.192 129.075L170 124.938ZM164.75 114H169.75V63.6875H164.75H159.75V114H164.75ZM164.75 63.6875L168.825 60.7906C167.085 58.3417 166.062 55.1194 166.062 50.8125H161.062H156.062C156.062 56.7556 157.499 62.1166 160.675 66.5844L164.75 63.6875ZM161.062 50.8125H166.062C166.062 49.2564 166.313 47.4313 166.888 45.3087L162.062 44L157.237 42.6913C156.479 45.4853 156.062 48.2019 156.062 50.8125H161.062ZM162.062 44L166.888 45.3087C167.45 43.2378 168.162 41.6268 168.956 40.3913L164.75 37.6875L160.544 34.9837C159.088 37.2482 158.009 39.8455 157.237 42.6913L162.062 44ZM164.75 37.6875V42.6875H173.625V37.6875V32.6875H164.75V37.6875ZM173.625 37.6875V42.6875C176.923 42.6875 178.751 43.1646 179.625 43.6204L181.938 39.1875L184.25 34.7546C181.291 33.2104 177.577 32.6875 173.625 32.6875V37.6875ZM181.938 39.1875L178.953 35.1758C177.094 36.5588 175.468 37.9718 174.259 39.4164C173.149 40.7431 171.812 42.776 171.812 45.3125H176.812H181.812C181.812 45.8536 181.664 46.1764 181.646 46.2142C181.629 46.2495 181.686 46.1237 181.928 45.8336C182.428 45.2365 183.364 44.3579 184.922 43.1992L181.938 39.1875ZM267 49.75H272V47.9652L270.87 46.5838L267 49.75ZM271.5 86.625L276.403 85.6444L275.98 83.5286L274.15 82.385L271.5 86.625ZM266.562 102.75L263.167 99.0795L263.147 99.0985L263.126 99.1177L266.562 102.75ZM241.5 102.75L238.194 106.501L238.201 106.507L238.207 106.513L241.5 102.75ZM235.188 45.875L232.26 41.8216L230.188 43.3184V45.875H235.188ZM240.375 43.3125L242.688 47.7454L251.268 43.269L242.652 38.8613L240.375 43.3125ZM235.5 38.5625L231.282 41.2469L231.293 41.2645L231.304 41.282L235.5 38.5625ZM238.5 17.6875L235.03 14.0875L238.5 17.6875ZM263.812 17.8125L260.255 21.3263L260.277 21.3481L260.299 21.3697L263.812 17.8125ZM265.062 41.4375L268.895 44.6486L268.906 44.636L268.916 44.6232L265.062 41.4375ZM255.625 47.25L254.581 42.3602L250.625 43.2047V47.25H255.625ZM263.938 47.125L267 43.1729L263.978 40.8304L260.925 43.1341L263.938 47.125ZM267 49.75H262V74.5H267H272V49.75H267ZM267 74.5H262C262 81.1319 263.55 87.5524 268.85 90.865L271.5 86.625L274.15 82.385C273.45 81.9476 272 80.2848 272 74.5H267ZM271.5 86.625L266.597 87.6056C266.581 87.5243 266.571 87.4602 266.565 87.419C266.559 87.3768 266.556 87.3465 266.554 87.3309C266.551 87.302 266.552 87.3023 266.554 87.3409C266.556 87.3774 266.558 87.4347 266.56 87.5165C266.561 87.5975 266.562 87.6957 266.562 87.8125H271.562H276.562C276.562 87.2807 276.556 86.4079 276.403 85.6444L271.5 86.625ZM271.562 87.8125H266.562V88.9375H271.562H276.562V87.8125H271.562ZM271.562 88.9375H266.562C266.562 94.1753 265.157 97.239 263.167 99.0795L266.562 102.75L269.958 106.42C274.635 102.094 276.562 95.9497 276.562 88.9375H271.562ZM266.562 102.75L263.126 99.1177C261.165 100.973 258.37 102.125 254.188 102.125V107.125V112.125C260.339 112.125 265.793 110.36 269.999 106.382L266.562 102.75ZM254.188 107.125V102.125C250.072 102.125 247.073 100.983 244.793 98.9871L241.5 102.75L238.207 106.513C242.594 110.351 248.053 112.125 254.188 112.125V107.125ZM241.5 102.75L244.806 98.9986C241.952 96.4837 240.188 92.6054 240.188 86.5H235.188H230.188C230.188 94.6446 232.632 101.6 238.194 106.501L241.5 102.75ZM235.188 86.5H240.188V45.875H235.188H230.188V86.5H235.188ZM235.188 45.875L238.115 49.9284C238.507 49.6454 238.933 49.4148 239.405 49.2349L237.625 44.5625L235.845 39.8901C234.567 40.3769 233.368 41.0213 232.26 41.8216L235.188 45.875ZM237.625 44.5625L239.405 49.2349C240.487 48.8226 241.582 48.3222 242.688 47.7454L240.375 43.3125L238.062 38.8796C237.251 39.3028 236.513 39.6357 235.845 39.8901L237.625 44.5625ZM240.375 43.3125L242.652 38.8613C241.858 38.4549 240.831 37.5939 239.696 35.843L235.5 38.5625L231.304 41.282C233.086 44.0311 235.308 46.3367 238.098 47.7637L240.375 43.3125ZM235.5 38.5625L239.718 35.8781C238.83 34.4824 238.312 32.7707 238.312 30.5625H233.312H228.312C228.312 34.4376 229.253 38.0593 231.282 41.2469L235.5 38.5625ZM233.312 30.5625H238.312C238.312 26.5307 239.586 23.5856 241.97 21.2875L238.5 17.6875L235.03 14.0875C230.498 18.4561 228.312 24.0943 228.312 30.5625H233.312ZM238.5 17.6875L241.97 21.2875C244.455 18.8923 247.423 17.6875 251.188 17.6875V12.6875V7.6875C244.952 7.6875 239.462 9.81602 235.03 14.0875L238.5 17.6875ZM251.188 12.6875V17.6875C254.967 17.6875 257.871 18.9121 260.255 21.3263L263.812 17.8125L267.37 14.2987C263.004 9.87954 257.492 7.6875 251.188 7.6875V12.6875ZM263.812 17.8125L260.299 21.3697C262.696 23.7375 263.938 26.6746 263.938 30.5625H268.938H273.938C273.938 24.2004 271.763 18.6375 267.326 14.2553L263.812 17.8125ZM268.938 30.5625H263.938C263.938 33.5467 263.037 36.0399 261.209 38.2518L265.062 41.4375L268.916 44.6232C272.254 40.5851 273.938 35.8283 273.938 30.5625H268.938ZM265.062 41.4375L261.23 38.2264C259.316 40.5105 257.13 41.8161 254.581 42.3602L255.625 47.25L256.669 52.1398C261.537 51.1006 265.642 48.5312 268.895 44.6486L265.062 41.4375ZM255.625 47.25H250.625C250.625 48.5363 250.846 50.4168 252.103 52.0646C253.556 53.9679 255.646 54.625 257.438 54.625V49.625V44.625C257.675 44.625 258.118 44.6638 258.646 44.8946C259.204 45.1382 259.692 45.5253 260.053 45.9979C260.706 46.854 260.625 47.5471 260.625 47.25H255.625ZM257.438 49.625V54.625C260.938 54.625 264.136 53.2393 266.95 51.1159L263.938 47.125L260.925 43.1341C259.322 44.344 258.187 44.625 257.438 44.625V49.625ZM263.938 47.125L260.875 51.0771C261.675 51.6973 262.276 52.1833 262.699 52.5463C262.91 52.7274 263.054 52.8577 263.144 52.9437C263.25 53.0451 263.221 53.0266 263.13 52.9162L267 49.75L270.87 46.5838C270.062 45.5966 268.533 44.361 267 43.1729L263.938 47.125ZM308.75 61.6875L313.696 62.4173L314.063 59.9299L312.286 58.152L308.75 61.6875ZM305.375 63.0625L310.216 64.3119L310.221 64.2935L310.226 64.2752L305.375 63.0625ZM308.188 80L311.723 83.5355L313.188 82.0711V80H308.188ZM304.25 24.75L300.449 21.5011L298.403 23.8945L299.678 26.7737L304.25 24.75ZM311.562 18.9375L313.742 23.4374L313.77 23.4237L313.799 23.4096L311.562 18.9375ZM333.938 21.125L337.352 17.4729L337.311 17.4341L337.269 17.3962L333.938 21.125ZM343.25 86.625L348.153 85.6444L347.73 83.5286L345.9 82.385L343.25 86.625ZM337.938 102.75L334.555 99.0678L334.55 99.0723L337.938 102.75ZM317.75 105.062L320.255 100.735L320.236 100.724L320.217 100.713L317.75 105.062ZM311.875 98.5625L316.503 96.6693L315.232 93.5625H311.875V98.5625ZM310.438 102.812L306.056 105.222L306.129 105.355L306.21 105.482L310.438 102.812ZM312.438 104.938L314.989 109.238L321.419 105.423L315.438 100.938L312.438 104.938ZM288 103.5L285.637 107.906L285.66 107.919L285.684 107.932L288 103.5ZM277.062 92.4375L281.442 90.0251L281.438 90.0172L281.433 90.0093L277.062 92.4375ZM281.312 46.875L277.753 43.3639L277.747 43.3701L277.74 43.3764L281.312 46.875ZM318.625 40.875L316.353 45.3288L319.59 46.9807L322.161 44.4105L318.625 40.875ZM305.938 34.9375H300.938V39.9375H305.938V34.9375ZM308.75 61.6875L312.286 58.152C310.942 56.8083 309.174 56.0625 307.25 56.0625V61.0625V66.0625C306.933 66.0625 306.544 66.0029 306.139 65.8341C305.735 65.6658 305.427 65.4357 305.214 65.223L308.75 61.6875ZM307.25 61.0625V56.0625C305.415 56.0625 303.707 56.7976 302.446 58.1428C301.33 59.3333 300.802 60.7409 300.524 61.8498L305.375 63.0625L310.226 64.2752C310.282 64.0508 310.233 64.4584 309.741 64.9822C309.471 65.2707 309.091 65.5651 308.602 65.7768C308.113 65.9883 307.64 66.0625 307.25 66.0625V61.0625ZM305.375 63.0625L300.534 61.8131C300.015 63.8221 299.875 67.1103 299.875 71H304.875H309.875C309.875 66.8897 310.068 64.8863 310.216 64.3119L305.375 63.0625ZM304.875 71H299.875V77.375H304.875H309.875V71H304.875ZM304.875 77.375H299.875C299.875 78.6275 299.981 80.6849 301.094 82.4344L305.312 79.75L309.531 77.0656C309.703 77.3362 309.795 77.5617 309.84 77.692C309.887 77.8242 309.901 77.9032 309.902 77.9067C309.903 77.9124 309.895 77.8726 309.888 77.7769C309.881 77.6826 309.875 77.5504 309.875 77.375H304.875ZM305.312 79.75L301.094 82.4344C302.52 84.6753 304.821 85.4375 306.75 85.4375V80.4375V75.4375C306.978 75.4375 307.465 75.476 308.048 75.755C308.673 76.0538 309.186 76.5241 309.531 77.0656L305.312 79.75ZM306.75 80.4375V85.4375C307.96 85.4375 310.056 85.2021 311.723 83.5355L308.188 80L304.652 76.4645C305.198 75.9181 305.775 75.6601 306.154 75.5448C306.512 75.4355 306.743 75.4375 306.75 75.4375V80.4375ZM308.188 80H313.188V71.625H308.188H303.188V80H308.188ZM308.188 71.625H313.188C313.188 67.6616 313.372 64.6195 313.696 62.4173L308.75 61.6875L303.804 60.9577C303.378 63.8389 303.188 67.4217 303.188 71.625H308.188ZM304.25 24.75L308.051 27.9989C309.876 25.8633 311.781 24.3873 313.742 23.4374L311.562 18.9375L309.383 14.4376C306.011 16.071 303.04 18.4701 300.449 21.5011L304.25 24.75ZM311.562 18.9375L313.799 23.4096C315.557 22.5304 318.12 21.9375 321.75 21.9375V16.9375V11.9375C317.13 11.9375 312.901 12.678 309.326 14.4654L311.562 18.9375ZM321.75 16.9375V21.9375C325.771 21.9375 328.569 23.0335 330.606 24.8538L333.938 21.125L337.269 17.3962C333.056 13.6332 327.729 11.9375 321.75 11.9375V16.9375ZM333.938 21.125L330.523 24.7771C332.558 26.6804 333.75 29.3127 333.75 33.25H338.75H343.75C343.75 27.0206 341.734 21.5696 337.352 17.4729L333.938 21.125ZM338.75 33.25H333.75V74.5H338.75H343.75V33.25H338.75ZM338.75 74.5H333.75C333.75 81.1319 335.3 87.5524 340.6 90.865L343.25 86.625L345.9 82.385C345.2 81.9476 343.75 80.2848 343.75 74.5H338.75ZM343.25 86.625L338.347 87.6056C338.331 87.5243 338.321 87.4602 338.315 87.419C338.309 87.3768 338.306 87.3465 338.304 87.3309C338.301 87.302 338.302 87.3023 338.304 87.3409C338.306 87.3774 338.308 87.4347 338.31 87.5165C338.311 87.5975 338.312 87.6957 338.312 87.8125H343.312H348.312C348.312 87.2807 348.306 86.4079 348.153 85.6444L343.25 86.625ZM343.312 87.8125H338.312V88.9375H343.312H348.312V87.8125H343.312ZM343.312 88.9375H338.312C338.312 93.7811 336.889 96.9235 334.555 99.0678L337.938 102.75L341.32 106.432C346.152 101.993 348.312 95.9272 348.312 88.9375H343.312ZM337.938 102.75L334.55 99.0723C332.388 101.064 329.714 102.125 326.188 102.125V107.125V112.125C331.994 112.125 337.154 110.269 341.325 106.428L337.938 102.75ZM326.188 107.125V102.125C323.654 102.125 321.739 101.595 320.255 100.735L317.75 105.062L315.245 109.39C318.511 111.28 322.221 112.125 326.188 112.125V107.125ZM317.75 105.062L320.217 100.713C318.317 99.6358 317.168 98.2961 316.503 96.6693L311.875 98.5625L307.247 100.456C308.832 104.329 311.6 107.322 315.283 109.412L317.75 105.062ZM311.875 98.5625V93.5625C310.433 93.5625 308.426 93.9111 306.799 95.4902C305.144 97.0963 304.75 99.1282 304.75 100.625H309.75H314.75C314.75 100.747 314.71 101.747 313.764 102.666C312.845 103.558 311.901 103.562 311.875 103.562V98.5625ZM309.75 100.625H304.75C304.75 102.42 305.386 104.004 306.056 105.222L310.438 102.812L314.819 100.403C314.767 100.309 314.734 100.24 314.713 100.193C314.693 100.147 314.688 100.13 314.692 100.141C314.697 100.158 314.75 100.33 314.75 100.625H309.75ZM310.438 102.812L306.21 105.482C307.069 106.843 308.172 107.988 309.438 108.938L312.438 104.938L315.438 100.938C315.036 100.637 314.806 100.365 314.665 100.143L310.438 102.812ZM312.438 104.938L309.886 100.637C308.435 101.498 306.213 102.125 302.875 102.125V107.125V112.125C307.37 112.125 311.523 111.293 314.989 109.238L312.438 104.938ZM302.875 107.125V102.125C298.378 102.125 294.215 101.106 290.316 99.0685L288 103.5L285.684 107.932C291.035 110.727 296.789 112.125 302.875 112.125V107.125ZM288 103.5L290.363 99.0938C286.698 97.1279 283.723 94.1665 281.442 90.0251L277.062 92.4375L272.683 94.8499C275.818 100.542 280.135 104.955 285.637 107.906L288 103.5ZM277.062 92.4375L281.433 90.0093C278.81 85.287 277.375 79.3542 277.375 72H272.375H267.375C267.375 80.6458 269.065 88.338 272.692 94.8657L277.062 92.4375ZM272.375 72H277.375C277.375 62.2937 280.059 55.3004 284.885 50.3736L281.312 46.875L277.74 43.3764C270.649 50.6163 267.375 60.373 267.375 72H272.375ZM281.312 46.875L284.872 50.3861C289.846 45.3436 296.167 42.75 304.25 42.75V37.75V32.75C293.75 32.75 284.779 36.2397 277.753 43.3639L281.312 46.875ZM304.25 37.75V42.75C309.116 42.75 313.1 43.6694 316.353 45.3288L318.625 40.875L320.897 36.4212C315.983 33.9139 310.384 32.75 304.25 32.75V37.75ZM318.625 40.875L322.161 44.4105C323.267 43.3045 324.312 41.6239 324.312 39.4375H319.312H314.312C314.312 38.8948 314.443 38.4057 314.63 38.0146C314.807 37.6442 315.003 37.4258 315.089 37.3395L318.625 40.875ZM319.312 39.4375H324.312C324.312 36.5569 322.536 34.6591 321.12 33.6422C319.717 32.6344 317.991 31.9574 316.293 31.4553L314.875 36.25L313.457 41.0447C314.049 41.2198 314.494 41.3831 314.816 41.5237C314.974 41.5929 315.091 41.6513 315.172 41.6959C315.254 41.7408 315.288 41.7652 315.286 41.764C315.285 41.7633 315.233 41.7264 315.153 41.6459C315.072 41.5649 314.95 41.4284 314.823 41.2293C314.546 40.7958 314.312 40.1726 314.312 39.4375H319.312ZM314.875 36.25L316.293 31.4553C312.888 30.448 309.431 29.9375 305.938 29.9375V34.9375V39.9375C308.444 39.9375 310.946 40.302 313.457 41.0447L314.875 36.25ZM305.938 34.9375H310.938C310.938 30.323 310.338 26.1518 308.822 22.7263L304.25 24.75L299.678 26.7737C300.412 28.4315 300.938 31.052 300.938 34.9375H305.938ZM360.5 46.25L356.5 49.25L356.929 49.8214L357.5 50.25L360.5 46.25ZM360.062 45.625L364.223 42.8515L361.578 38.8846L357.49 41.3375L360.062 45.625ZM345.375 43.5L348.911 39.9645L348.865 39.9191L348.819 39.875L345.375 43.5ZM345.938 23.5625L349.279 27.2817L349.282 27.279L345.938 23.5625ZM369.625 25.0625L365.795 28.2764L365.806 28.2892L365.816 28.302L369.625 25.0625ZM368.688 54.8125L365.113 51.3165L365.112 51.3169L368.688 54.8125ZM347.75 58.3125L344.764 62.3227L344.791 62.3434L344.819 62.3636L347.75 58.3125ZM346.312 47.625L348.942 43.372L345.301 41.1217L342.516 44.371L346.312 47.625ZM358.812 49.0625L357.14 44.3504L357.116 44.3591L357.091 44.3681L358.812 49.0625ZM360.75 47.0625H365.75C365.75 46.5671 365.706 45.8551 365.466 45.0764C365.224 44.2884 364.685 43.1391 363.5 42.25L360.5 46.25L357.5 50.25C356.481 49.4859 356.068 48.5345 355.909 48.0173C355.752 47.5095 355.75 47.1413 355.75 47.0625H360.75ZM360.5 46.25L364.5 43.25C364.449 43.1817 364.358 43.0549 364.223 42.8515L360.062 45.625L355.902 48.3985C356.1 48.6951 356.301 48.9849 356.5 49.25L360.5 46.25ZM360.062 45.625L357.49 41.3375C357.112 41.5644 356.112 41.9375 354 41.9375V46.9375V51.9375C357.055 51.9375 360.096 51.4356 362.635 49.9125L360.062 45.625ZM354 46.9375V41.9375C351.769 41.9375 350.197 41.251 348.911 39.9645L345.375 43.5L341.839 47.0355C345.136 50.3324 349.314 51.9375 354 51.9375V46.9375ZM345.375 43.5L348.819 39.875C347.393 38.5205 346.625 36.828 346.625 34.375H341.625H336.625C336.625 39.3387 338.357 43.7295 341.931 47.125L345.375 43.5ZM341.625 34.375H346.625C346.625 30.8648 347.667 28.7309 349.279 27.2816L345.938 23.5625L342.596 19.8434C338.458 23.5608 336.625 28.6352 336.625 34.375H341.625ZM345.938 23.5625L349.282 27.279C351.138 25.6091 353.611 24.625 357.125 24.625V19.625V14.625C351.555 14.625 346.571 16.2659 342.593 19.846L345.938 23.5625ZM357.125 19.625V24.625C361.135 24.625 363.823 25.9262 365.795 28.2764L369.625 25.0625L373.455 21.8486C369.344 16.9488 363.698 14.625 357.125 14.625V19.625ZM369.625 25.0625L365.816 28.302C368.007 30.8774 369.25 34.2519 369.25 38.8125H374.25H379.25C379.25 32.2898 377.41 26.4976 373.434 21.823L369.625 25.0625ZM374.25 38.8125H369.25C369.25 44.7833 367.66 48.7121 365.113 51.3165L368.688 54.8125L372.262 58.3085C377.132 53.3296 379.25 46.5917 379.25 38.8125H374.25ZM368.688 54.8125L365.112 51.3169C362.362 54.1301 359.245 55.4375 355.5 55.4375V60.4375V65.4375C362.005 65.4375 367.68 62.9949 372.263 58.3081L368.688 54.8125ZM355.5 60.4375V55.4375C353.003 55.4375 351.546 54.8875 350.681 54.2614L347.75 58.3125L344.819 62.3636C347.871 64.5708 351.581 65.4375 355.5 65.4375V60.4375ZM347.75 58.3125L350.736 54.3023C350.105 53.8319 349.812 53.3503 349.812 52.3125H344.812H339.812C339.812 56.3581 341.479 59.8764 344.764 62.3227L347.75 58.3125ZM344.812 52.3125H349.812C349.812 51.2116 350.079 50.9132 350.109 50.879L346.312 47.625L342.516 44.371C340.546 46.6701 339.812 49.4967 339.812 52.3125H344.812ZM346.312 47.625L343.683 51.878C346.656 53.7158 349.889 54.75 353.312 54.75V49.75V44.75C351.986 44.75 350.552 44.3676 348.942 43.372L346.312 47.625ZM353.312 49.75V54.75C355.918 54.75 358.453 54.5197 360.534 53.7569L358.812 49.0625L357.091 44.3681C356.672 44.5219 355.54 44.75 353.312 44.75V49.75ZM358.812 49.0625L360.485 53.7746C362.457 53.0748 365.75 51.1734 365.75 47.0625H360.75H355.75C355.75 46.6496 355.83 46.1955 356.017 45.7478C356.203 45.3055 356.45 44.9713 356.674 44.7398C357.082 44.3195 357.379 44.2658 357.14 44.3504L358.812 49.0625ZM407.812 57L406.524 52.1688L406.433 52.1932L406.342 52.2211L407.812 57ZM406.25 59.625L402.714 63.1605L404.37 64.8165L406.703 64.6045L406.25 59.625ZM422.875 61.75L421.208 66.4641L421.237 66.4741L421.266 66.4839L422.875 61.75ZM433.062 68.625L436.94 65.4686L436.926 65.4513L436.912 65.4341L433.062 68.625ZM381.938 103.062L379.408 107.376L379.415 107.38L379.422 107.384L381.938 103.062ZM375.125 82.375L379.558 84.6878L379.568 84.6684L379.578 84.6489L375.125 82.375ZM378.5 78.25L381.708 74.4146L378.908 72.0731L375.825 74.0259L378.5 78.25ZM388.438 83.25L386.884 88.0025L386.911 88.0114L386.938 88.02L388.438 83.25ZM405.062 82.4375L409.744 80.6819L408.333 76.9195L404.355 77.4878L405.062 82.4375ZM382.125 77.25L384.883 73.0797L384.878 73.0764L382.125 77.25ZM381.188 43L378.005 39.1435L377.995 39.1516L381.188 43ZM420.062 37.25L418.871 42.1061L418.882 42.1086L420.062 37.25ZM431.5 41.5625L436.037 39.4602L435.361 38.0021L433.962 37.2108L431.5 41.5625ZM428.5 60.8125L426.094 65.1954L429.331 66.9727L431.982 64.4012L428.5 60.8125ZM420.688 57.9375L419.428 62.7763L419.467 62.7864L419.506 62.7958L420.688 57.9375ZM407.812 57L406.342 52.2211C405.188 52.5761 403.833 53.2458 402.763 54.5213C401.634 55.8672 401.188 57.4539 401.188 58.9375H406.188H411.188C411.188 59.4628 411.012 60.2474 410.425 60.9474C409.897 61.5772 409.353 61.7573 409.283 61.7789L407.812 57ZM406.188 58.9375H401.188V59.25H406.188H411.188V58.9375H406.188ZM406.188 59.25H401.188C401.188 59.4783 401.196 59.871 401.271 60.322C401.295 60.4637 401.486 61.9321 402.714 63.1605L406.25 59.625L409.786 56.0895C410.47 56.7744 410.778 57.4846 410.904 57.8225C411.046 58.2012 411.108 58.5127 411.135 58.678C411.189 59.004 411.188 59.23 411.188 59.25H406.188ZM406.25 59.625L406.703 64.6045C406.947 64.5823 407.382 64.5625 408.062 64.5625V59.5625V54.5625C407.243 54.5625 406.47 54.5844 405.797 54.6455L406.25 59.625ZM408.062 59.5625V64.5625H409.562V59.5625V54.5625H408.062V59.5625ZM409.562 59.5625V64.5625C413.793 64.5625 417.663 65.2105 421.208 66.4641L422.875 61.75L424.542 57.0359C419.837 55.3728 414.832 54.5625 409.562 54.5625V59.5625ZM422.875 61.75L421.266 66.4839C424.621 67.6247 427.219 69.4108 429.213 71.8159L433.062 68.625L436.912 65.4341C433.656 61.5059 429.462 58.7086 424.484 57.0161L422.875 61.75ZM433.062 68.625L429.185 71.7814C431.249 74.3175 432.438 77.6613 432.438 82.1875H437.438H442.438C442.438 75.7971 440.709 70.0992 436.94 65.4686L433.062 68.625ZM437.438 82.1875H432.438C432.438 89.3967 430.033 94.1863 425.657 97.4137L428.625 101.438L431.593 105.461C438.967 100.022 442.438 91.9783 442.438 82.1875H437.438ZM428.625 101.438L425.657 97.4137C420.896 100.926 414.194 102.938 405.062 102.938V107.938V112.938C415.598 112.938 424.604 110.616 431.593 105.461L428.625 101.438ZM405.062 107.938V102.938C395.688 102.938 388.974 101.373 384.453 98.7413L381.938 103.062L379.422 107.384C386.068 111.252 394.77 112.938 405.062 112.938V107.938ZM381.938 103.062L384.467 98.7495C380.416 96.3737 378.625 93.2218 378.625 88.75H373.625H368.625C368.625 96.8615 372.376 103.251 379.408 107.376L381.938 103.062ZM373.625 88.75H378.625C378.625 87.1566 378.96 85.8346 379.558 84.6878L375.125 82.375L370.692 80.0622C369.29 82.7487 368.625 85.6767 368.625 88.75H373.625ZM375.125 82.375L379.578 84.6489C380.355 83.1271 380.963 82.6084 381.175 82.4741L378.5 78.25L375.825 74.0259C373.537 75.475 371.895 77.7062 370.672 80.1011L375.125 82.375ZM378.5 78.25L375.292 82.0854C378.259 84.5666 382.231 86.4815 386.884 88.0025L388.438 83.25L389.991 78.4975C385.977 77.1852 383.324 75.7668 381.708 74.4146L378.5 78.25ZM388.438 83.25L386.938 88.02C391.828 89.5568 396.961 90.3125 402.312 90.3125V85.3125V80.3125C397.914 80.3125 393.797 79.6932 389.937 78.48L388.438 83.25ZM402.312 85.3125V90.3125C403.589 90.3125 405.34 90.1643 406.936 89.2814C407.809 88.7982 408.699 88.0583 409.349 86.979C410.004 85.8913 410.25 84.736 410.25 83.6875H405.25H400.25C400.25 83.1807 400.373 82.4993 400.784 81.8179C401.189 81.1448 401.711 80.7435 402.095 80.5311C402.28 80.4291 402.431 80.3705 402.527 80.3386C402.624 80.3065 402.683 80.2954 402.691 80.2938C402.698 80.2925 402.586 80.3125 402.312 80.3125V85.3125ZM405.25 83.6875H410.25C410.25 82.8119 410.146 81.7538 409.744 80.6819L405.062 82.4375L400.381 84.1931C400.3 83.9787 400.27 83.8185 400.258 83.7417C400.247 83.6642 400.25 83.6414 400.25 83.6875H405.25ZM405.062 82.4375L404.355 77.4878C404.371 77.4855 404.35 77.4891 404.285 77.493C404.22 77.4968 404.127 77.5 404 77.5V82.5V87.5C404.565 87.5 405.17 87.4729 405.77 87.3872L405.062 82.4375ZM404 82.5V77.5H403.312V82.5V87.5H404V82.5ZM403.312 82.5V77.5C395.089 77.5 389.094 75.8648 384.883 73.0797L382.125 77.25L379.367 81.4203C385.739 85.6352 393.869 87.5 403.312 87.5V82.5ZM382.125 77.25L384.878 73.0764C380.286 70.0466 378.125 66.0338 378.125 60.5H373.125H368.125C368.125 69.3829 371.964 76.5368 379.372 81.4236L382.125 77.25ZM373.125 60.5H378.125C378.125 54.7243 380.192 50.3221 384.38 46.8484L381.188 43L377.995 39.1516C371.433 44.5946 368.125 51.859 368.125 60.5H373.125ZM381.188 43L384.37 46.8565C389.163 42.9013 396.09 40.625 405.75 40.625V35.625V30.625C394.577 30.625 385.129 33.2654 378.005 39.1435L381.188 43ZM405.75 35.625V40.625C410.523 40.625 414.89 41.1295 418.871 42.1061L420.062 37.25L421.254 32.3939C416.401 31.2038 411.227 30.625 405.75 30.625V35.625ZM420.062 37.25L418.882 42.1086C423.003 43.11 426.362 44.4 429.038 45.9142L431.5 41.5625L433.962 37.2108C430.305 35.1416 426.039 33.5567 421.243 32.3914L420.062 37.25ZM431.5 41.5625L426.963 43.6648C427.299 44.388 427.688 46.0421 427.688 49.125H432.688H437.688C437.688 45.5413 437.285 42.1537 436.037 39.4602L431.5 41.5625ZM432.688 49.125H427.688C427.688 53.2899 426.567 55.7216 425.018 57.2238L428.5 60.8125L431.982 64.4012C436.016 60.4867 437.688 55.1268 437.688 49.125H432.688ZM428.5 60.8125L430.906 56.4296C428.298 54.9978 425.256 53.903 421.869 53.0792L420.688 57.9375L419.506 62.7958C422.285 63.472 424.452 64.2939 426.094 65.1954L428.5 60.8125ZM420.688 57.9375L421.947 53.0987C418.602 52.2281 415.419 51.75 412.438 51.75V56.75V61.75C414.372 61.75 416.69 62.0636 419.428 62.7763L420.688 57.9375ZM412.438 56.75V51.75C411.164 51.75 410.065 51.7713 409.168 51.8198C408.395 51.8616 407.388 51.9384 406.524 52.1688L407.812 57L409.101 61.8312C408.917 61.8801 408.857 61.8772 409.026 61.8577C409.165 61.8417 409.385 61.8226 409.707 61.8052C410.352 61.7704 411.253 61.75 412.438 61.75V56.75ZM504.438 77.875L502.682 82.5566L505.895 83.7615L508.175 81.1968L504.438 77.875ZM508.688 74.9375L510.757 79.4893L510.799 79.47L510.841 79.4499L508.688 74.9375ZM525.75 77.5L522.408 81.2191L522.452 81.2582L522.496 81.2963L525.75 77.5ZM526.188 77.875L522.934 81.6713L525.538 83.9036L528.558 82.2774L526.188 77.875ZM523.938 72.625L526.418 68.2838L526.373 68.2577L526.326 68.2326L523.938 72.625ZM512.062 70.9375H507.062V77.0365L513.043 75.8404L512.062 70.9375ZM508.375 71.8125L510.252 76.4467L513.375 75.1818V71.8125H508.375ZM488.938 102L486.818 106.528L486.831 106.535L486.844 106.541L488.938 102ZM474.875 89.3125L470.6 91.9052L470.606 91.9156L470.612 91.926L474.875 89.3125ZM475 40.875L479.273 43.4713L479.277 43.4652L475 40.875ZM489.562 27.6875L487.45 23.1558L487.438 23.1613L489.562 27.6875ZM539.812 34.75L536.218 38.2258L536.228 38.2358L536.238 38.2458L539.812 34.75ZM546.125 84L541.768 81.5472L537.572 89H546.125V84ZM555.188 84L559.931 82.4189L558.791 79H555.188V84ZM552.375 111.438L548.677 108.072L552.375 111.438ZM513.5 92.1875L518.301 90.7893L517.251 87.1875H513.5V92.1875ZM515.375 105.688L515.948 110.655L523.285 109.808L519.774 103.311L515.375 105.688ZM503.438 76.4375H498.438C498.438 77.5911 498.719 78.9408 499.583 80.1834C500.446 81.4241 501.61 82.1547 502.682 82.5566L504.438 77.875L506.193 73.1934C506.598 73.3453 507.262 73.7113 507.792 74.4728C508.323 75.2363 508.438 75.9922 508.438 76.4375H503.438ZM504.438 77.875L508.175 81.1968C508.582 80.7384 509.355 80.1262 510.757 79.4893L508.688 74.9375L506.618 70.3857C504.353 71.4155 502.293 72.7616 500.7 74.5532L504.438 77.875ZM508.688 74.9375L510.841 79.4499C511.92 78.9348 513.233 78.625 514.875 78.625V73.625V68.625C511.934 68.625 509.121 69.1902 506.534 70.4251L508.688 74.9375ZM514.875 73.625V78.625C518.191 78.625 520.573 79.5701 522.408 81.2191L525.75 77.5L529.092 73.7809C525.177 70.2632 520.309 68.625 514.875 68.625V73.625ZM525.75 77.5C522.496 81.2963 522.496 81.2963 522.496 81.2963C522.496 81.2963 522.496 81.2963 522.496 81.2963C522.496 81.2963 522.496 81.2963 522.496 81.2963C522.496 81.2963 522.496 81.2963 522.496 81.2963C522.496 81.2963 522.496 81.2963 522.496 81.2964C522.496 81.2964 522.496 81.2964 522.496 81.2964C522.496 81.2964 522.496 81.2964 522.496 81.2965C522.496 81.2965 522.496 81.2965 522.496 81.2965C522.496 81.2965 522.496 81.2965 522.496 81.2965C522.496 81.2965 522.496 81.2966 522.496 81.2966C522.496 81.2966 522.496 81.2966 522.496 81.2966C522.497 81.2971 522.497 81.297 522.498 81.2977C522.5 81.2994 522.5 81.2995 522.503 81.3021C522.511 81.3095 522.51 81.3084 522.523 81.3197C522.566 81.3562 522.545 81.338 522.605 81.39C522.711 81.4803 522.755 81.5185 522.934 81.6713L526.188 77.875L529.441 74.0787C529.417 74.0579 529.412 74.0532 529.388 74.0333C529.345 73.9959 529.381 74.0273 529.339 73.9908C529.148 73.8268 529.437 74.0748 529.25 73.9147C529.159 73.8365 529.186 73.86 529.113 73.7975C528.98 73.6829 529.195 73.8671 529.065 73.7565C529.057 73.749 529.054 73.7468 529.047 73.7403C529.024 73.7208 529.061 73.7527 529.039 73.7334C529.025 73.7214 529.045 73.7389 529.031 73.7272C529.022 73.7193 529.037 73.7321 529.028 73.7243C529.026 73.7225 529.029 73.7247 529.026 73.723C529.025 73.7215 529.027 73.7238 529.026 73.7223C529.026 73.7222 529.025 73.7221 529.025 73.722C529.025 73.7219 529.025 73.7218 529.025 73.7217C529.008 73.7068 529.036 73.7315 529.019 73.7169C529.017 73.7146 529.012 73.7109 529.011 73.7096C529 73.7005 529.018 73.7159 529.008 73.707C529.006 73.7058 529.007 73.7062 529.006 73.7052C529.006 73.7052 529.006 73.7051 529.006 73.7051C529.006 73.7051 529.005 73.705 529.005 73.705C529.005 73.7047 529.006 73.7051 529.005 73.7048C529.004 73.7041 529.006 73.7053 529.005 73.7045C529.004 73.7041 529.005 73.7047 529.005 73.7043C529.005 73.7043 529.005 73.7043 529.005 73.7042C529.005 73.7042 529.005 73.7042 529.005 73.7042C529.004 73.704 529.005 73.7043 529.004 73.7041C529.004 73.7035 529.005 73.7045 529.004 73.7039C529.004 73.7036 529.004 73.7042 529.004 73.7038C529.004 73.7038 529.004 73.7038 529.004 73.7038C529.004 73.7037 529.004 73.7038 529.004 73.7037C529.004 73.7037 529.004 73.7037 529.004 73.7037C529.004 73.7037 529.004 73.7037 529.004 73.7037C529.004 73.7037 529.004 73.7037 529.004 73.7037C529.004 73.7037 529.004 73.7037 525.75 77.5ZM526.188 77.875L528.558 82.2774C531.102 80.9076 532 78.4222 532 76.3125H527H522C522 76.1013 522.037 75.5812 522.361 74.9589C522.711 74.2853 523.25 73.7782 523.817 73.4726L526.188 77.875ZM527 76.3125H532C532 72.1288 528.743 69.6121 526.418 68.2838L523.938 72.625L521.457 76.9662C521.799 77.162 522.038 77.326 522.197 77.4498C522.356 77.5749 522.403 77.635 522.388 77.6164C522.37 77.5951 522.27 77.4693 522.174 77.2322C522.073 76.983 522 76.6664 522 76.3125H527ZM523.938 72.625L526.326 68.2326C522.996 66.4216 519.06 65.6875 514.812 65.6875V70.6875V75.6875C517.982 75.6875 520.129 76.2451 521.549 77.0174L523.938 72.625ZM514.812 70.6875V65.6875C513.539 65.6875 512.289 65.7932 511.082 66.0346L512.062 70.9375L513.043 75.8404C513.503 75.7484 514.086 75.6875 514.812 75.6875V70.6875ZM512.062 70.9375H517.062V54.625H512.062H507.062V70.9375H512.062ZM512.062 54.625H517.062C517.062 53.3015 516.859 51.4184 515.694 49.7485C514.301 47.751 512.174 46.9375 510.188 46.9375V51.9375V56.9375C509.903 56.9375 509.414 56.8853 508.852 56.617C508.266 56.3368 507.805 55.9177 507.493 55.4703C506.953 54.6961 507.062 54.1569 507.062 54.625H512.062ZM510.188 51.9375V46.9375C508.102 46.9375 505.985 47.8523 504.653 49.8734C503.562 51.5299 503.375 53.3804 503.375 54.6875H508.375H513.375C513.375 54.1613 513.491 54.6367 513.003 55.3766C512.715 55.8141 512.265 56.261 511.651 56.5712C511.057 56.8716 510.522 56.9375 510.188 56.9375V51.9375ZM508.375 54.6875H503.375V71.8125H508.375H513.375V54.6875H508.375ZM508.375 71.8125L506.498 67.1783C504.572 67.9583 502.708 68.9576 501.254 70.3196C499.729 71.7475 498.438 73.8081 498.438 76.4375H503.438H508.438C508.438 76.8163 508.341 77.1541 508.218 77.4001C508.107 77.6227 508.017 77.6867 508.09 77.6179C508.166 77.5471 508.357 77.3902 508.731 77.1724C509.101 76.9572 509.599 76.7114 510.252 76.4467L508.375 71.8125ZM508.562 106.062V101.062C501.994 101.062 496.178 99.8321 491.031 97.4593L488.938 102L486.844 106.541C493.447 109.585 500.715 111.062 508.562 111.062V106.062ZM488.938 102L491.057 97.4715C486.098 95.1503 482.143 91.6015 479.138 86.699L474.875 89.3125L470.612 91.926C474.607 98.4401 480.027 103.35 486.818 106.528L488.938 102ZM474.875 89.3125L479.15 86.7198C475.821 81.2306 474 74.1456 474 65.1875H469H464C464 75.4794 466.095 84.4778 470.6 91.9052L474.875 89.3125ZM469 65.1875H474C474 56.2514 475.854 49.0986 479.273 43.4713L475 40.875L470.727 38.2787C466.146 45.818 464 54.8736 464 65.1875H469ZM475 40.875L479.277 43.4652C482.361 38.372 486.476 34.6599 491.687 32.2137L489.562 27.6875L487.438 23.1613C480.399 26.4651 474.805 31.5447 470.723 38.2848L475 40.875ZM489.562 27.6875L491.675 32.2192C497.153 29.6654 503.053 28.375 509.438 28.375V23.375V18.375C501.655 18.375 494.305 19.9596 487.45 23.1558L489.562 27.6875ZM509.438 23.375V28.375C521.324 28.375 530.031 31.8279 536.218 38.2258L539.812 34.75L543.407 31.2742C534.927 22.5054 523.384 18.375 509.438 18.375V23.375ZM539.812 34.75L536.238 38.2458C542.555 44.7058 545.875 53.2516 545.875 64.375H550.875H555.875C555.875 51.0817 551.82 39.8775 543.387 31.2542L539.812 34.75ZM550.875 64.375H545.875C545.875 71.109 544.452 76.7803 541.768 81.5472L546.125 84L550.482 86.4528C554.132 79.9697 555.875 72.5577 555.875 64.375H550.875ZM546.125 84V89H555.188V84V79H546.125V84ZM555.188 84L550.444 85.5811C551.805 89.6635 552.438 93.3766 552.438 96.75H557.438H562.438C562.438 92.1234 561.57 87.3365 559.931 82.4189L555.188 84ZM557.438 96.75H552.438C552.438 101.868 551.044 105.472 548.677 108.072L552.375 111.438L556.073 114.803C560.456 109.987 562.438 103.799 562.438 96.75H557.438ZM552.375 111.438L548.677 108.072C546.442 110.528 543.197 112 538.25 112V117V122C545.386 122 551.558 119.763 556.073 114.803L552.375 111.438ZM538.25 117V112C533.435 112 529.717 110.458 526.723 107.464L523.188 111L519.652 114.536C524.658 119.542 530.982 122 538.25 122V117ZM523.188 111L526.723 107.464C523.613 104.354 520.692 98.9986 518.301 90.7893L513.5 92.1875L508.699 93.5857C511.308 102.543 514.845 109.729 519.652 114.536L523.188 111ZM513.5 92.1875V87.1875H513.188V92.1875V97.1875H513.5V92.1875ZM513.188 92.1875V87.1875C511.75 87.1875 509.754 87.5502 508.152 89.152C506.55 90.7537 506.188 92.7501 506.188 94.1875H511.188H516.188C516.188 94.2916 516.158 95.288 515.223 96.223C514.288 97.1581 513.292 97.1875 513.188 97.1875V92.1875ZM511.188 94.1875H506.188C506.188 96.2731 506.748 98.4847 507.536 100.648C508.345 102.869 509.51 105.351 510.976 108.064L515.375 105.688L519.774 103.311C518.448 100.857 517.52 98.839 516.933 97.2267C516.325 95.5569 516.188 94.6019 516.188 94.1875H511.188ZM515.375 105.688L514.802 100.72C512.841 100.947 510.763 101.062 508.562 101.062V106.062V111.062C511.112 111.062 513.575 110.928 515.948 110.655L515.375 105.688ZM593.75 78.125L596.656 82.1937L599.576 80.1084L598.535 76.675L593.75 78.125ZM593.125 40.8125L590.541 36.5322L588.125 37.9907V40.8125H593.125ZM618.25 38.25L616.535 42.9468L616.58 42.963L616.625 42.9784L618.25 38.25ZM624.375 41.9375H629.375V39.9891L628.057 38.5544L624.375 41.9375ZM628.875 86.625L633.778 85.6444L633.355 83.5286L631.525 82.385L628.875 86.625ZM624.125 102.75L620.636 99.1683L620.613 99.1912L620.589 99.2145L624.125 102.75ZM603.312 104.938L600.855 109.292L600.869 109.3L600.884 109.308L603.312 104.938ZM597.5 98.5625L602.038 96.4629L600.696 93.5625H597.5V98.5625ZM596.812 103.5L599.965 107.381L604.268 103.885L600.348 99.9645L596.812 103.5ZM573.062 104.875L575.052 100.288L575.039 100.282L575.027 100.277L573.062 104.875ZM563.188 96.4375L567.467 93.8512L567.452 93.8263L567.436 93.8017L563.188 96.4375ZM559 63.625H564V62.2939L563.338 61.1391L559 63.625ZM556.688 44.25L551.823 43.0956L556.688 44.25ZM559.5 37.6875V32.6875H556.84L555.354 34.8932L559.5 37.6875ZM585.375 41.375L582.153 45.1981L582.182 45.2229L582.212 45.2472L585.375 41.375ZM592.125 78.75V83.75C594.031 83.75 595.579 82.9634 596.656 82.1937L593.75 78.125L590.844 74.0563C590.755 74.1199 591.219 73.75 592.125 73.75V78.75ZM593.75 78.125L598.535 76.675C598.343 76.0395 598.125 74.5096 598.125 71.6875H593.125H588.125C588.125 74.6988 588.324 77.4605 588.965 79.575L593.75 78.125ZM593.125 71.6875H598.125V40.8125H593.125H588.125V71.6875H593.125ZM593.125 40.8125L595.709 45.0928C599.201 42.9846 603.579 41.8125 609.062 41.8125V36.8125V31.8125C602.129 31.8125 595.882 33.307 590.541 36.5322L593.125 40.8125ZM609.062 36.8125V41.8125C612.119 41.8125 614.579 42.2325 616.535 42.9468L618.25 38.25L619.965 33.5532C616.671 32.3509 613.006 31.8125 609.062 31.8125V36.8125ZM618.25 38.25L616.625 42.9784C618.766 43.7146 620.001 44.567 620.693 45.3206L624.375 41.9375L628.057 38.5544C625.916 36.2246 623.067 34.6188 619.875 33.5216L618.25 38.25ZM624.375 41.9375H619.375V74.5H624.375H629.375V41.9375H624.375ZM624.375 74.5H619.375C619.375 81.1319 620.925 87.5524 626.225 90.865L628.875 86.625L631.525 82.385C630.825 81.9476 629.375 80.2848 629.375 74.5H624.375ZM628.875 86.625L623.972 87.6056C623.956 87.5243 623.946 87.4602 623.94 87.419C623.934 87.3768 623.93 87.3465 623.929 87.3309C623.926 87.302 623.927 87.3023 623.929 87.3409C623.931 87.3774 623.933 87.4347 623.935 87.5165C623.936 87.5975 623.938 87.6957 623.938 87.8125H628.938H633.938C633.938 87.2807 633.931 86.4079 633.778 85.6444L628.875 86.625ZM628.938 87.8125H623.938V88.9375H628.938H633.938V87.8125H628.938ZM628.938 88.9375H623.938C623.938 94.1699 622.572 97.2829 620.636 99.1683L624.125 102.75L627.614 106.332C632.095 101.967 633.938 95.8717 633.938 88.9375H628.938ZM624.125 102.75L620.589 99.2145C618.826 100.977 616.202 102.125 612.062 102.125V107.125V112.125C618.173 112.125 623.59 110.356 627.661 106.286L624.125 102.75ZM612.062 107.125V102.125C609.644 102.125 607.572 101.584 605.741 100.567L603.312 104.938L600.884 109.308C604.303 111.207 608.064 112.125 612.062 112.125V107.125ZM603.312 104.938L605.77 100.583C604.135 99.66 602.907 98.3412 602.038 96.4629L597.5 98.5625L592.962 100.662C594.676 104.367 597.324 107.298 600.855 109.292L603.312 104.938ZM597.5 98.5625V93.5625C596.058 93.5625 594.051 93.9111 592.424 95.4902C590.769 97.0963 590.375 99.1282 590.375 100.625H595.375H600.375C600.375 100.747 600.335 101.747 599.389 102.666C598.47 103.558 597.526 103.562 597.5 103.562V98.5625ZM595.375 100.625H590.375C590.375 103.377 591.774 105.532 593.277 107.036L596.812 103.5L600.348 99.9645C600.153 99.7694 600.152 99.717 600.207 99.8264C600.273 99.9587 600.375 100.24 600.375 100.625H595.375ZM596.812 103.5L593.66 99.6194C592.832 100.292 591.747 100.908 590.325 101.414L592 106.125L593.675 110.836C596.003 110.008 598.127 108.875 599.965 107.381L596.812 103.5ZM592 106.125L590.325 101.414C589.265 101.791 587.18 102.125 583.688 102.125V107.125V112.125C587.528 112.125 590.985 111.793 593.675 110.836L592 106.125ZM583.688 107.125V102.125C580.774 102.125 577.908 101.527 575.052 100.288L573.062 104.875L571.073 109.462C575.134 111.223 579.351 112.125 583.688 112.125V107.125ZM573.062 104.875L575.027 100.277C571.644 98.8318 569.187 96.6968 567.467 93.8512L563.188 96.4375L558.908 99.0238C561.772 103.762 565.898 107.252 571.098 109.473L573.062 104.875ZM563.188 96.4375L567.436 93.8017C565.265 90.3011 564 85.5772 564 79.3125H559H554C554 86.8812 555.527 93.5739 558.939 99.0733L563.188 96.4375ZM559 79.3125H564V63.625H559H554V79.3125H559ZM559 63.625L563.338 61.1391C561.666 58.2207 560.812 55.0003 560.812 51.375H555.812H550.812C550.812 56.6663 552.084 61.6126 554.662 66.1109L559 63.625ZM555.812 51.375H560.812C560.812 49.5094 561.05 47.5227 561.552 45.4044L556.688 44.25L551.823 43.0956C551.159 45.894 550.812 48.6572 550.812 51.375H555.812ZM556.688 44.25L561.552 45.4044C562.01 43.4769 562.721 41.855 563.646 40.4818L559.5 37.6875L555.354 34.8932C553.696 37.3533 552.532 40.1065 551.823 43.0956L556.688 44.25ZM559.5 37.6875V42.6875H573.25V37.6875V32.6875H559.5V37.6875ZM573.25 37.6875V42.6875C577.656 42.6875 580.413 43.7321 582.153 45.1981L585.375 41.375L588.597 37.5519C584.503 34.1013 579.177 32.6875 573.25 32.6875V37.6875ZM585.375 41.375L582.212 45.2472C583.68 46.4462 584.812 48.4978 584.812 52.4375H589.812H594.812C594.812 46.4605 592.987 41.1371 588.538 37.5028L585.375 41.375ZM589.812 52.4375H584.812V72.6875H589.812H594.812V52.4375H589.812ZM589.812 72.6875H584.812C584.812 74.8826 585.002 77.1375 585.719 79.0164C586.091 79.9917 586.719 81.1707 587.823 82.1361C589.027 83.1884 590.535 83.75 592.125 83.75V78.75V73.75C592.489 73.75 592.906 73.8116 593.337 73.9729C593.767 74.1342 594.125 74.363 594.403 74.6061C594.674 74.8423 594.842 75.0676 594.935 75.215C595.028 75.3603 595.062 75.4519 595.062 75.4524C595.063 75.4545 595.042 75.3983 595.012 75.2663C594.982 75.136 594.948 74.9531 594.917 74.7092C594.854 74.2148 594.812 73.5499 594.812 72.6875H589.812ZM663.875 49.75H668.875V47.9652L667.745 46.5838L663.875 49.75ZM668.375 86.625L673.278 85.6444L672.855 83.5286L671.025 82.385L668.375 86.625ZM663.438 102.75L660.042 99.0795L660.022 99.0985L660.002 99.1177L663.438 102.75ZM638.375 102.75L635.069 106.501L635.076 106.507L635.082 106.513L638.375 102.75ZM632.062 45.875L629.135 41.8216L627.062 43.3184V45.875H632.062ZM637.25 43.3125L639.563 47.7454L648.143 43.269L639.527 38.8613L637.25 43.3125ZM632.375 38.5625L628.157 41.2469L628.168 41.2645L628.179 41.282L632.375 38.5625ZM635.375 17.6875L631.905 14.0875L635.375 17.6875ZM660.688 17.8125L657.13 21.3263L657.152 21.3481L657.174 21.3697L660.688 17.8125ZM661.938 41.4375L665.77 44.6486L665.781 44.636L665.791 44.6232L661.938 41.4375ZM652.5 47.25L651.456 42.3602L647.5 43.2047V47.25H652.5ZM660.812 47.125L663.875 43.1729L660.853 40.8304L657.8 43.1341L660.812 47.125ZM663.875 49.75H658.875V74.5H663.875H668.875V49.75H663.875ZM663.875 74.5H658.875C658.875 81.1319 660.425 87.5524 665.725 90.865L668.375 86.625L671.025 82.385C670.325 81.9476 668.875 80.2848 668.875 74.5H663.875ZM668.375 86.625L663.472 87.6056C663.456 87.5243 663.446 87.4602 663.44 87.419C663.434 87.3768 663.43 87.3465 663.429 87.3309C663.426 87.302 663.427 87.3023 663.429 87.3409C663.431 87.3774 663.433 87.4347 663.435 87.5165C663.436 87.5975 663.438 87.6957 663.438 87.8125H668.438H673.438C673.438 87.2807 673.431 86.4079 673.278 85.6444L668.375 86.625ZM668.438 87.8125H663.438V88.9375H668.438H673.438V87.8125H668.438ZM668.438 88.9375H663.438C663.438 94.1753 662.032 97.239 660.042 99.0795L663.438 102.75L666.833 106.42C671.51 102.094 673.438 95.9497 673.438 88.9375H668.438ZM663.438 102.75L660.002 99.1177C658.04 100.973 655.245 102.125 651.062 102.125V107.125V112.125C657.214 112.125 662.668 110.36 666.873 106.382L663.438 102.75ZM651.062 107.125V102.125C646.947 102.125 643.948 100.983 641.668 98.9871L638.375 102.75L635.082 106.513C639.469 110.351 644.928 112.125 651.062 112.125V107.125ZM638.375 102.75L641.681 98.9986C638.827 96.4837 637.062 92.6054 637.062 86.5H632.062H627.062C627.062 94.6446 629.507 101.6 635.069 106.501L638.375 102.75ZM632.062 86.5H637.062V45.875H632.062H627.062V86.5H632.062ZM632.062 45.875L634.99 49.9284C635.382 49.6454 635.808 49.4148 636.28 49.2349L634.5 44.5625L632.72 39.8901C631.442 40.3769 630.243 41.0213 629.135 41.8216L632.062 45.875ZM634.5 44.5625L636.28 49.2349C637.362 48.8226 638.457 48.3222 639.563 47.7454L637.25 43.3125L634.937 38.8796C634.126 39.3028 633.388 39.6357 632.72 39.8901L634.5 44.5625ZM637.25 43.3125L639.527 38.8613C638.733 38.4549 637.706 37.5939 636.571 35.843L632.375 38.5625L628.179 41.282C629.961 44.0311 632.183 46.3367 634.973 47.7637L637.25 43.3125ZM632.375 38.5625L636.593 35.8781C635.705 34.4824 635.188 32.7707 635.188 30.5625H630.188H625.188C625.188 34.4376 626.128 38.0593 628.157 41.2469L632.375 38.5625ZM630.188 30.5625H635.188C635.188 26.5307 636.461 23.5856 638.845 21.2875L635.375 17.6875L631.905 14.0875C627.373 18.4561 625.188 24.0943 625.188 30.5625H630.188ZM635.375 17.6875L638.845 21.2875C641.33 18.8923 644.298 17.6875 648.062 17.6875V12.6875V7.6875C641.827 7.6875 636.337 9.81602 631.905 14.0875L635.375 17.6875ZM648.062 12.6875V17.6875C651.842 17.6875 654.746 18.9121 657.13 21.3263L660.688 17.8125L664.245 14.2987C659.879 9.87954 654.367 7.6875 648.062 7.6875V12.6875ZM660.688 17.8125L657.174 21.3697C659.571 23.7375 660.812 26.6746 660.812 30.5625H665.812H670.812C670.812 24.2004 668.638 18.6375 664.201 14.2553L660.688 17.8125ZM665.812 30.5625H660.812C660.812 33.5467 659.912 36.0399 658.084 38.2518L661.938 41.4375L665.791 44.6232C669.129 40.5851 670.812 35.8283 670.812 30.5625H665.812ZM661.938 41.4375L658.105 38.2264C656.191 40.5105 654.005 41.8161 651.456 42.3602L652.5 47.25L653.544 52.1398C658.412 51.1006 662.517 48.5312 665.77 44.6486L661.938 41.4375ZM652.5 47.25H647.5C647.5 48.5363 647.721 50.4168 648.978 52.0646C650.431 53.9679 652.521 54.625 654.312 54.625V49.625V44.625C654.55 44.625 654.993 44.6638 655.521 44.8946C656.079 45.1382 656.567 45.5253 656.928 45.9979C657.581 46.854 657.5 47.5471 657.5 47.25H652.5ZM654.312 49.625V54.625C657.813 54.625 661.011 53.2393 663.825 51.1159L660.812 47.125L657.8 43.1341C656.197 44.344 655.062 44.625 654.312 44.625V49.625ZM660.812 47.125L657.75 51.0771C658.55 51.6973 659.151 52.1833 659.574 52.5463C659.785 52.7274 659.929 52.8577 660.019 52.9437C660.125 53.0451 660.096 53.0266 660.005 52.9162L663.875 49.75L667.745 46.5838C666.937 45.5966 665.408 44.361 663.875 43.1729L660.812 47.125ZM731.125 58.625L736.065 59.3998L736.066 59.3926L736.067 59.3853L731.125 58.625ZM729.938 63.75L733.983 66.689L734.408 66.1038L734.65 65.4221L729.938 63.75ZM716 77.25L716.234 82.2445L717.639 82.1787L718.803 81.3905L716 77.25ZM704.25 78.875L702.669 74.1316L702.657 74.1356L702.645 74.1397L704.25 78.875ZM701.25 83.1875L698.309 87.2312L700.872 89.0951L703.652 87.573L701.25 83.1875ZM708.5 80.9375L709.365 85.8621L709.397 85.8564L709.429 85.8503L708.5 80.9375ZM729.438 80.0625L733.767 77.5611L732.323 75.0625H729.438V80.0625ZM732.062 86.375L727.255 87.7486L727.258 87.7601L727.262 87.7717L732.062 86.375ZM729.125 103.188L725.803 99.4505L725.792 99.4607L725.78 99.471L729.125 103.188ZM676 106L672.388 109.457L673.864 111H676V106ZM672.062 77.1875L668.348 73.8406L667.535 74.7429L667.227 75.9174L672.062 77.1875ZM688.188 62.875L691.229 66.8434L691.256 66.8231L691.282 66.8025L688.188 62.875ZM692.812 59.0625L696.059 62.8653L698.441 60.8315L697.651 57.8004L692.812 59.0625ZM690.25 57.75L689.269 52.8471L689.015 52.8979L688.768 52.9747L690.25 57.75ZM682.688 63.6875V68.6875H684.661L686.102 67.3401L682.688 63.6875ZM674.938 63.6875L670.666 66.2858L672.126 68.6875H674.938V63.6875ZM676 37.6875V32.6875H674.023L672.58 34.0398L676 37.6875ZM727.562 37.6875L731.689 34.8641L730.2 32.6875H727.562V37.6875ZM731.625 53.6875H726.625C726.625 54.42 726.507 55.761 726.183 57.8647L731.125 58.625L736.067 59.3853C736.41 57.1557 736.625 55.205 736.625 53.6875H731.625ZM731.125 58.625L726.185 57.8502C725.876 59.821 725.539 61.1932 725.225 62.0779L729.938 63.75L734.65 65.4221C735.252 63.7234 735.707 61.679 736.065 59.3998L731.125 58.625ZM729.938 63.75L725.892 60.811C722.356 65.6785 718.129 69.7708 713.197 73.1095L716 77.25L718.803 81.3905C724.704 77.3959 729.769 72.4881 733.983 66.689L729.938 63.75ZM716 77.25L715.766 72.2555C710.342 72.5097 705.853 73.0703 702.669 74.1316L704.25 78.875L705.831 83.6184C707.647 83.013 710.991 82.4903 716.234 82.2445L716 77.25ZM704.25 78.875L702.645 74.1397C701.201 74.6291 699.693 75.2813 698.452 76.2275C697.221 77.1669 695.562 78.9624 695.562 81.6875H700.562H705.562C705.562 82.4667 705.319 83.1156 705.04 83.5637C704.788 83.9705 704.543 84.1583 704.517 84.1787C704.483 84.2044 704.555 84.145 704.801 84.0267C705.04 83.9122 705.383 83.7703 705.855 83.6103L704.25 78.875ZM700.562 81.6875H695.562C695.562 83.6329 696.318 85.7829 698.309 87.2312L701.25 83.1875L704.191 79.1438C704.634 79.466 705.025 79.9245 705.28 80.4792C705.521 81.0064 705.562 81.4514 705.562 81.6875H700.562ZM701.25 83.1875L703.652 87.573C704.73 86.9825 706.55 86.3566 709.365 85.8621L708.5 80.9375L707.635 76.0129C704.283 76.6017 701.27 77.4758 698.848 78.802L701.25 83.1875ZM708.5 80.9375L709.429 85.8503C712.239 85.3189 714.885 85.0625 717.375 85.0625V80.0625V75.0625C714.199 75.0625 710.928 75.3895 707.571 76.0247L708.5 80.9375ZM717.375 80.0625V85.0625H729.438V80.0625V75.0625H717.375V80.0625ZM729.438 80.0625L725.108 82.5639C725.964 84.0443 726.688 85.7627 727.255 87.7486L732.062 86.375L736.87 85.0014C736.104 82.3206 735.078 79.8307 733.767 77.5611L729.438 80.0625ZM732.062 86.375L727.262 87.7717C727.841 89.7622 728.062 91.2964 728.062 92.4375H733.062H738.062C738.062 90.0786 737.618 87.5711 736.863 84.9783L732.062 86.375ZM733.062 92.4375H728.062C728.062 96.4019 727.004 98.383 725.803 99.4505L729.125 103.188L732.447 106.925C736.496 103.325 738.062 98.1398 738.062 92.4375H733.062ZM729.125 103.188L725.78 99.471C724.859 100.301 723.325 101 720.562 101V106V111C725.05 111 729.225 109.824 732.47 106.904L729.125 103.188ZM720.562 106V101H676V106V111H720.562V106ZM676 106L679.612 102.543C677.167 99.9882 675.438 95.4606 675.438 87.875H670.438H665.438C665.438 96.7061 667.416 104.262 672.388 109.457L676 106ZM670.438 87.875H675.438C675.438 85.4416 675.882 82.3268 676.898 78.4576L672.062 77.1875L667.227 75.9174C666.076 80.2982 665.438 84.3084 665.438 87.875H670.438ZM672.062 77.1875L675.777 80.5344C679.285 76.6411 684.397 72.0798 691.229 66.8434L688.188 62.875L685.146 58.9066C678.061 64.3369 672.423 69.3172 668.348 73.8406L672.062 77.1875ZM688.188 62.875L691.282 66.8025C692.72 65.6691 694.314 64.355 696.059 62.8653L692.812 59.0625L689.566 55.2597C687.895 56.6867 686.405 57.9142 685.093 58.9475L688.188 62.875ZM692.812 59.0625L697.651 57.8004C697.354 56.6615 696.732 55.2745 695.445 54.1782C694.099 53.0311 692.521 52.625 691.125 52.625V57.625V62.625C690.604 62.625 689.745 62.4585 688.961 61.7906C688.236 61.1735 688.021 60.5052 687.974 60.3246L692.812 59.0625ZM691.125 57.625V52.625C690.403 52.625 689.663 52.7683 689.269 52.8471L690.25 57.75L691.231 62.6529C691.304 62.6382 691.363 62.6272 691.408 62.6192C691.454 62.6111 691.48 62.6072 691.488 62.606C691.499 62.6045 691.477 62.608 691.429 62.6123C691.404 62.6145 691.367 62.6175 691.319 62.62C691.272 62.6225 691.206 62.625 691.125 62.625V57.625ZM690.25 57.75L688.768 52.9747C687.177 53.4684 685.588 54.6232 684.365 55.5829C682.944 56.6988 681.238 58.1983 679.273 60.0349L682.688 63.6875L686.102 67.3401C687.971 65.5933 689.441 64.3116 690.541 63.4483C691.091 63.0164 691.494 62.7324 691.767 62.56C692.093 62.3539 692.046 62.4279 691.732 62.5253L690.25 57.75ZM682.688 63.6875V58.6875H674.938V63.6875V68.6875H682.688V63.6875ZM674.938 63.6875L679.209 61.0892C677.216 57.8117 676.25 54.3742 676.25 50.6875H671.25H666.25C666.25 56.2508 667.742 61.48 670.666 66.2858L674.938 63.6875ZM671.25 50.6875H676.25C676.25 48.2909 676.626 46.3678 677.255 44.824L672.625 42.9375L667.995 41.051C666.79 44.0072 666.25 47.2508 666.25 50.6875H671.25ZM672.625 42.9375L677.255 44.824C677.985 43.0322 678.755 41.9581 679.42 41.3352L676 37.6875L672.58 34.0398C670.578 35.9169 669.098 38.3428 667.995 41.051L672.625 42.9375ZM676 37.6875V42.6875H727.562V37.6875V32.6875H676V37.6875ZM727.562 37.6875L723.436 40.5109C725.39 43.3664 726.625 47.5987 726.625 53.6875H731.625H736.625C736.625 46.3596 735.152 39.9252 731.689 34.8641L727.562 37.6875Z" fill="#E38594" mask="url(#path-1-outside-1_84_334)"/>
</g>
<defs>
<filter id="filter0_d_84_334" x="0" y="7.6875" width="742.062" height="133.562" filterUnits="userSpaceOnUse" color-interpolation-filters="sRGB">
<feFlood flood-opacity="0" result="BackgroundImageFix"/>
<feColorMatrix in="SourceAlpha" type="matrix" values="0 0 0 0 0 0 0 0 0 0 0 0 0 0 0 0 0 0 127 0" result="hardAlpha"/>
<feOffset dy="4"/>
<feGaussianBlur stdDeviation="2"/>
<feComposite in2="hardAlpha" operator="out"/>
<feColorMatrix type="matrix" values="0 0 0 0 0 0 0 0 0 0 0 0 0 0 0 0 0 0 0.25 0"/>
<feBlend mode="normal" in2="BackgroundImageFix" result="effect1_dropShadow_84_334"/>
<feBlend mode="normal" in="SourceGraphic" in2="effect1_dropShadow_84_334" result="shape"/>
</filter>
</defs>
</svg>
