<svg width="954" height="135" viewBox="0 0 954 135" fill="none" xmlns="http://www.w3.org/2000/svg">
<g filter="url(#filter0_d_105_322)">
<mask id="path-1-outside-1_105_322" maskUnits="userSpaceOnUse" x="101" y="7" width="753" height="115" fill="black">
<rect fill="white" x="101" y="7" width="753" height="115"/>
<path d="M141.375 76.4375C141.375 77.1458 141.708 77.625 142.375 77.875C143.375 76.75 144.792 75.7708 146.625 74.9375C148.458 74.0625 150.521 73.625 152.812 73.625C157.188 73.625 160.812 74.9167 163.688 77.5C163.688 77.5 163.833 77.625 164.125 77.875C164.667 77.5833 164.938 77.0625 164.938 76.3125C164.938 75.0208 163.917 73.7917 161.875 72.625C159.5 71.3333 156.458 70.6875 152.75 70.6875C151.75 70.6875 150.833 70.7708 150 70.9375V54.625C150 52.8333 149.375 51.9375 148.125 51.9375C146.917 51.9375 146.312 52.8542 146.312 54.6875V71.8125C143.021 73.1458 141.375 74.6875 141.375 76.4375ZM146.5 106.062C139.292 106.062 132.75 104.708 126.875 102C121 99.25 116.312 95.0208 112.812 89.3125C108.896 82.8542 106.938 74.8125 106.938 65.1875C106.938 55.5625 108.938 47.4583 112.938 40.875C116.521 34.9583 121.375 30.5625 127.5 27.6875C133.667 24.8125 140.292 23.375 147.375 23.375C160.292 23.375 170.417 27.1667 177.75 34.75C185.125 42.2917 188.812 52.1667 188.812 64.375C188.812 71.8333 187.229 78.375 184.062 84H193.125C194.625 88.5 195.375 92.75 195.375 96.75C195.375 102.833 193.688 107.729 190.312 111.438C186.938 115.146 182.229 117 176.188 117C170.146 117 165.125 115 161.125 111C157.167 107.042 153.938 100.771 151.438 92.1875H151.125C149.792 92.1875 149.125 92.8542 149.125 94.1875C149.125 96.6875 150.521 100.521 153.312 105.688C151.146 105.938 148.875 106.062 146.5 106.062ZM230.062 78.75C230.562 78.75 231.104 78.5417 231.688 78.125C231.271 76.75 231.062 74.6042 231.062 71.6875V40.8125C235.479 38.1458 240.792 36.8125 247 36.8125C250.5 36.8125 253.562 37.2917 256.188 38.25C258.854 39.1667 260.896 40.3958 262.312 41.9375V74.5C262.312 80.7083 263.812 84.75 266.812 86.625C266.854 86.8333 266.875 87.2292 266.875 87.8125V88.9375C266.875 95.0208 265.271 99.625 262.062 102.75C259.146 105.667 255.125 107.125 250 107.125C246.792 107.125 243.875 106.396 241.25 104.938C238.667 103.479 236.729 101.354 235.438 98.5625C234.021 98.5625 233.312 99.25 233.312 100.625C233.312 101.583 233.792 102.542 234.75 103.5C233.417 104.583 231.812 105.458 229.938 106.125C228.062 106.792 225.292 107.125 221.625 107.125C218 107.125 214.458 106.375 211 104.875C206.708 103.042 203.417 100.229 201.125 96.4375C198.333 91.9375 196.938 86.2292 196.938 79.3125V63.625C194.812 59.9167 193.75 55.8333 193.75 51.375C193.75 49.0833 194.042 46.7083 194.625 44.25C195.208 41.7917 196.146 39.6042 197.438 37.6875H211.188C216.354 37.6875 220.396 38.9167 223.312 41.375C226.271 43.7917 227.75 47.4792 227.75 52.4375V72.6875C227.75 76.7292 228.521 78.75 230.062 78.75ZM301.812 49.75V74.5C301.812 80.7083 303.312 84.75 306.312 86.625C306.354 86.8333 306.375 87.2292 306.375 87.8125V88.9375C306.375 95.0625 304.708 99.6667 301.375 102.75C298.292 105.667 294.167 107.125 289 107.125C283.875 107.125 279.646 105.667 276.312 102.75C272.104 99.0417 270 93.625 270 86.5V45.875C270.75 45.3333 271.562 44.8958 272.438 44.5625C273.312 44.2292 274.229 43.8125 275.188 43.3125C273.396 42.3958 271.771 40.8125 270.312 38.5625C268.854 36.2708 268.125 33.6042 268.125 30.5625C268.125 25.3125 269.854 21.0208 273.312 17.6875C276.771 14.3542 281 12.6875 286 12.6875C291.042 12.6875 295.25 14.3958 298.625 17.8125C302.042 21.1875 303.75 25.4375 303.75 30.5625C303.75 34.6875 302.458 38.3125 299.875 41.4375C297.292 44.5208 294.146 46.4583 290.438 47.25C290.438 48.8333 291.042 49.625 292.25 49.625C294.375 49.625 296.542 48.7917 298.75 47.125C300.417 48.4167 301.438 49.2917 301.812 49.75ZM369.562 53.6875C369.562 54.8125 369.396 56.4583 369.062 58.625C368.729 60.75 368.333 62.4583 367.875 63.75C364 69.0833 359.354 73.5833 353.938 77.25C348.604 77.5 344.688 78.0417 342.188 78.875C339.729 79.7083 338.5 80.6458 338.5 81.6875C338.5 82.3542 338.729 82.8542 339.188 83.1875C340.938 82.2292 343.354 81.4792 346.438 80.9375C349.521 80.3542 352.479 80.0625 355.312 80.0625H367.375C368.458 81.9375 369.333 84.0417 370 86.375C370.667 88.6667 371 90.6875 371 92.4375C371 97.2708 369.688 100.854 367.062 103.188C364.979 105.062 362.125 106 358.5 106H313.938C310.229 102.125 308.375 96.0833 308.375 87.875C308.375 84.875 308.917 81.3125 310 77.1875C313.792 72.9792 319.167 68.2083 326.125 62.875C327.5 61.7917 329.042 60.5208 330.75 59.0625C330.5 58.1042 329.938 57.625 329.062 57.625C328.896 57.625 328.604 57.6667 328.188 57.75C326.979 58.125 324.458 60.1042 320.625 63.6875H312.875C310.417 59.6458 309.188 55.3125 309.188 50.6875C309.188 47.7708 309.646 45.1875 310.562 42.9375C311.479 40.6875 312.604 38.9375 313.938 37.6875H365.5C368.208 41.6458 369.562 46.9792 369.562 53.6875ZM438.125 61.5625C438.292 61.6875 438.771 61.75 439.562 61.75C440.354 61.75 440.958 61.4375 441.375 60.8125C441.792 60.1875 442 59.1667 442 57.75V55.5C442 54 441.812 52.9375 441.438 52.3125C441.104 51.6458 440.521 51.3125 439.688 51.3125C438.896 51.3125 438.354 51.3958 438.062 51.5625C438.104 51.7708 438.125 52.125 438.125 52.625V61.5625ZM470.375 75.8125L481.188 86.875C480.438 93.375 478.375 98.375 475 101.875C471.667 105.375 467.042 107.125 461.125 107.125C456.667 107.125 452.792 106.062 449.5 103.938C445.292 101.271 442.146 97.0208 440.062 91.1875L437.812 85.0625C436.062 85.0208 433.854 84.7917 431.188 84.375C430.854 84.7083 430.688 85.1667 430.688 85.75C430.688 86.875 432.375 87.5417 435.75 87.75L439.312 96.75V102.062C434.521 105.438 428.375 107.125 420.875 107.125C415.5 107.125 411.208 106.021 408 103.812C404.792 101.604 403.188 98.3958 403.188 94.1875V34.8125C403.188 32.9792 404.875 31.2083 408.25 29.5C411.625 27.75 416.042 26.3542 421.5 25.3125C426.958 24.2292 432.417 23.6875 437.875 23.6875C450.375 23.6875 460.146 26.25 467.188 31.375C474.604 36.75 478.312 44.3125 478.312 54.0625C478.312 59.6458 476.729 64.4375 473.562 68.4375C470.438 72.3958 466.479 75.1458 461.688 76.6875C461.688 78.0208 462.479 78.6875 464.062 78.6875C465.688 78.6875 467.792 77.7292 470.375 75.8125ZM518.75 107.938C507.208 107.938 498.104 104.729 491.438 98.3125C484.604 91.8542 481.188 83.0208 481.188 71.8125C481.188 60.5625 484.708 51.6458 491.75 45.0625C498.25 38.9375 506.479 35.875 516.438 35.875C526.396 35.875 534.375 38.625 540.375 44.125C546.417 49.5833 549.438 56.3125 549.438 64.3125C549.438 71.4375 546.958 76.8125 542 80.4375C537.417 83.8542 531.167 85.5625 523.25 85.5625C517.333 85.5625 512.333 84.3333 508.25 81.875C507.917 82.125 507.75 82.5833 507.75 83.25C507.75 84.5 509.396 85.6458 512.688 86.6875C515.979 87.8125 519.708 88.375 523.875 88.375C528.083 88.375 531.896 87.8542 535.312 86.8125C538.771 85.7292 541.542 84.4583 543.625 83C544.625 83.875 545.417 85.5 546 87.875C546.625 90.2083 546.938 92.3542 546.938 94.3125C546.938 96.2292 546.75 97.9375 546.375 99.4375C543.125 102.188 539.792 104.146 536.375 105.312C531.542 107.062 525.667 107.938 518.75 107.938ZM517.938 65.625C520.021 65.625 521.062 64.8333 521.062 63.25C521.062 61.75 519.958 61 517.75 61C515.542 61 514.271 62.1875 513.938 64.5625C515.104 65.2708 516.438 65.625 517.938 65.625ZM586.75 57C585.667 57.3333 585.125 57.9792 585.125 58.9375V59.25C585.125 59.4583 585.146 59.5833 585.188 59.625C585.646 59.5833 586.25 59.5625 587 59.5625H588.5C593.25 59.5625 597.688 60.2917 601.812 61.75C605.979 63.1667 609.375 65.4583 612 68.625C614.917 72.2083 616.375 76.7292 616.375 82.1875C616.375 90.6875 613.438 97.1042 607.562 101.438C601.688 105.771 593.833 107.938 584 107.938C574.167 107.938 566.458 106.312 560.875 103.062C555.333 99.8125 552.562 95.0417 552.562 88.75C552.562 86.4167 553.062 84.2917 554.062 82.375C555.062 80.4167 556.188 79.0417 557.438 78.25C559.729 80.1667 563.042 81.8333 567.375 83.25C571.75 84.625 576.375 85.3125 581.25 85.3125C583.208 85.3125 584.188 84.7708 584.188 83.6875C584.188 83.1875 584.125 82.7708 584 82.4375C583.708 82.4792 583.354 82.5 582.938 82.5H582.25C573.417 82.5 566.354 80.75 561.062 77.25C555.062 73.2917 552.062 67.7083 552.062 60.5C552.062 53.2917 554.75 47.4583 560.125 43C566.083 38.0833 574.271 35.625 584.688 35.625C589.812 35.625 594.583 36.1667 599 37.25C603.458 38.3333 607.271 39.7708 610.438 41.5625C611.229 43.2708 611.625 45.7917 611.625 49.125C611.625 54.2083 610.229 58.1042 607.438 60.8125C605.312 59.6458 602.708 58.6875 599.625 57.9375C596.583 57.1458 593.833 56.75 591.375 56.75C588.917 56.75 587.375 56.8333 586.75 57ZM652.688 78.75C653.188 78.75 653.729 78.5417 654.312 78.125C653.896 76.75 653.688 74.6042 653.688 71.6875V40.8125C658.104 38.1458 663.417 36.8125 669.625 36.8125C673.125 36.8125 676.188 37.2917 678.812 38.25C681.479 39.1667 683.521 40.3958 684.938 41.9375V74.5C684.938 80.7083 686.438 84.75 689.438 86.625C689.479 86.8333 689.5 87.2292 689.5 87.8125V88.9375C689.5 95.0208 687.896 99.625 684.688 102.75C681.771 105.667 677.75 107.125 672.625 107.125C669.417 107.125 666.5 106.396 663.875 104.938C661.292 103.479 659.354 101.354 658.062 98.5625C656.646 98.5625 655.938 99.25 655.938 100.625C655.938 101.583 656.417 102.542 657.375 103.5C656.042 104.583 654.438 105.458 652.562 106.125C650.688 106.792 647.917 107.125 644.25 107.125C640.625 107.125 637.083 106.375 633.625 104.875C629.333 103.042 626.042 100.229 623.75 96.4375C620.958 91.9375 619.562 86.2292 619.562 79.3125V63.625C617.438 59.9167 616.375 55.8333 616.375 51.375C616.375 49.0833 616.667 46.7083 617.25 44.25C617.833 41.7917 618.771 39.6042 620.062 37.6875H633.812C638.979 37.6875 643.021 38.9167 645.938 41.375C648.896 43.7917 650.375 47.4792 650.375 52.4375V72.6875C650.375 76.7292 651.146 78.75 652.688 78.75ZM724.188 30.5625V74.5C724.188 80.7083 725.688 84.75 728.688 86.625C728.729 86.8333 728.75 87.2292 728.75 87.8125V88.9375C728.75 94.8958 727.229 99.4167 724.188 102.5C721.188 105.583 716.917 107.125 711.375 107.125C705.833 107.125 701.438 105.583 698.188 102.5C694.312 98.8333 692.375 93.2917 692.375 85.875V20.9375C696.75 18.2708 701.75 16.9375 707.375 16.9375C713.042 16.9375 717.25 18.1458 720 20.5625C722.792 22.9375 724.188 26.2708 724.188 30.5625ZM736.938 66.5H740.812C742.896 66.5 743.938 65.8125 743.938 64.4375C743.938 64.2708 743.896 64.0208 743.812 63.6875H729.812C728.896 60.7708 728.438 57.5208 728.438 53.9375C728.438 50.3125 728.708 47.375 729.25 45.125C731.625 43.625 734.896 41.3333 739.062 38.25C740.229 35.4167 741.75 30.9167 743.625 24.75C743.875 23.9167 744.167 23.1042 744.5 22.3125C747.75 21.4792 751.458 21.0625 755.625 21.0625C759.792 21.0625 763.896 21.5 767.938 22.375V37.6875H778.75C781.167 41.3542 782.375 45.6667 782.375 50.625C782.375 52.875 782.062 55.1875 781.438 57.5625C780.812 59.9375 779.917 61.9583 778.75 63.625H769.812V73.0625C769.812 78.3958 772.042 81.0625 776.5 81.0625H779.188C780.062 84.2292 780.5 86.9792 780.5 89.3125C780.5 95.0625 778.688 99.4792 775.062 102.562C771.479 105.604 766.25 107.125 759.375 107.125C752.542 107.125 747.083 105.229 743 101.438C738.958 97.6042 736.938 91.9792 736.938 84.5625V66.5ZM818.625 57C817.542 57.3333 817 57.9792 817 58.9375V59.25C817 59.4583 817.021 59.5833 817.062 59.625C817.521 59.5833 818.125 59.5625 818.875 59.5625H820.375C825.125 59.5625 829.562 60.2917 833.688 61.75C837.854 63.1667 841.25 65.4583 843.875 68.625C846.792 72.2083 848.25 76.7292 848.25 82.1875C848.25 90.6875 845.312 97.1042 839.438 101.438C833.562 105.771 825.708 107.938 815.875 107.938C806.042 107.938 798.333 106.312 792.75 103.062C787.208 99.8125 784.438 95.0417 784.438 88.75C784.438 86.4167 784.938 84.2917 785.938 82.375C786.938 80.4167 788.062 79.0417 789.312 78.25C791.604 80.1667 794.917 81.8333 799.25 83.25C803.625 84.625 808.25 85.3125 813.125 85.3125C815.083 85.3125 816.062 84.7708 816.062 83.6875C816.062 83.1875 816 82.7708 815.875 82.4375C815.583 82.4792 815.229 82.5 814.812 82.5H814.125C805.292 82.5 798.229 80.75 792.938 77.25C786.938 73.2917 783.938 67.7083 783.938 60.5C783.938 53.2917 786.625 47.4583 792 43C797.958 38.0833 806.146 35.625 816.562 35.625C821.688 35.625 826.458 36.1667 830.875 37.25C835.333 38.3333 839.146 39.7708 842.312 41.5625C843.104 43.2708 843.5 45.7917 843.5 49.125C843.5 54.2083 842.104 58.1042 839.312 60.8125C837.188 59.6458 834.583 58.6875 831.5 57.9375C828.458 57.1458 825.708 56.75 823.25 56.75C820.792 56.75 819.25 56.8333 818.625 57Z"/>
</mask>
<path d="M141.375 76.4375C141.375 77.1458 141.708 77.625 142.375 77.875C143.375 76.75 144.792 75.7708 146.625 74.9375C148.458 74.0625 150.521 73.625 152.812 73.625C157.188 73.625 160.812 74.9167 163.688 77.5C163.688 77.5 163.833 77.625 164.125 77.875C164.667 77.5833 164.938 77.0625 164.938 76.3125C164.938 75.0208 163.917 73.7917 161.875 72.625C159.5 71.3333 156.458 70.6875 152.75 70.6875C151.75 70.6875 150.833 70.7708 150 70.9375V54.625C150 52.8333 149.375 51.9375 148.125 51.9375C146.917 51.9375 146.312 52.8542 146.312 54.6875V71.8125C143.021 73.1458 141.375 74.6875 141.375 76.4375ZM146.5 106.062C139.292 106.062 132.75 104.708 126.875 102C121 99.25 116.312 95.0208 112.812 89.3125C108.896 82.8542 106.938 74.8125 106.938 65.1875C106.938 55.5625 108.938 47.4583 112.938 40.875C116.521 34.9583 121.375 30.5625 127.5 27.6875C133.667 24.8125 140.292 23.375 147.375 23.375C160.292 23.375 170.417 27.1667 177.75 34.75C185.125 42.2917 188.812 52.1667 188.812 64.375C188.812 71.8333 187.229 78.375 184.062 84H193.125C194.625 88.5 195.375 92.75 195.375 96.75C195.375 102.833 193.688 107.729 190.312 111.438C186.938 115.146 182.229 117 176.188 117C170.146 117 165.125 115 161.125 111C157.167 107.042 153.938 100.771 151.438 92.1875H151.125C149.792 92.1875 149.125 92.8542 149.125 94.1875C149.125 96.6875 150.521 100.521 153.312 105.688C151.146 105.938 148.875 106.062 146.5 106.062ZM230.062 78.75C230.562 78.75 231.104 78.5417 231.688 78.125C231.271 76.75 231.062 74.6042 231.062 71.6875V40.8125C235.479 38.1458 240.792 36.8125 247 36.8125C250.5 36.8125 253.562 37.2917 256.188 38.25C258.854 39.1667 260.896 40.3958 262.312 41.9375V74.5C262.312 80.7083 263.812 84.75 266.812 86.625C266.854 86.8333 266.875 87.2292 266.875 87.8125V88.9375C266.875 95.0208 265.271 99.625 262.062 102.75C259.146 105.667 255.125 107.125 250 107.125C246.792 107.125 243.875 106.396 241.25 104.938C238.667 103.479 236.729 101.354 235.438 98.5625C234.021 98.5625 233.312 99.25 233.312 100.625C233.312 101.583 233.792 102.542 234.75 103.5C233.417 104.583 231.812 105.458 229.938 106.125C228.062 106.792 225.292 107.125 221.625 107.125C218 107.125 214.458 106.375 211 104.875C206.708 103.042 203.417 100.229 201.125 96.4375C198.333 91.9375 196.938 86.2292 196.938 79.3125V63.625C194.812 59.9167 193.75 55.8333 193.75 51.375C193.75 49.0833 194.042 46.7083 194.625 44.25C195.208 41.7917 196.146 39.6042 197.438 37.6875H211.188C216.354 37.6875 220.396 38.9167 223.312 41.375C226.271 43.7917 227.75 47.4792 227.75 52.4375V72.6875C227.75 76.7292 228.521 78.75 230.062 78.75ZM301.812 49.75V74.5C301.812 80.7083 303.312 84.75 306.312 86.625C306.354 86.8333 306.375 87.2292 306.375 87.8125V88.9375C306.375 95.0625 304.708 99.6667 301.375 102.75C298.292 105.667 294.167 107.125 289 107.125C283.875 107.125 279.646 105.667 276.312 102.75C272.104 99.0417 270 93.625 270 86.5V45.875C270.75 45.3333 271.562 44.8958 272.438 44.5625C273.312 44.2292 274.229 43.8125 275.188 43.3125C273.396 42.3958 271.771 40.8125 270.312 38.5625C268.854 36.2708 268.125 33.6042 268.125 30.5625C268.125 25.3125 269.854 21.0208 273.312 17.6875C276.771 14.3542 281 12.6875 286 12.6875C291.042 12.6875 295.25 14.3958 298.625 17.8125C302.042 21.1875 303.75 25.4375 303.75 30.5625C303.75 34.6875 302.458 38.3125 299.875 41.4375C297.292 44.5208 294.146 46.4583 290.438 47.25C290.438 48.8333 291.042 49.625 292.25 49.625C294.375 49.625 296.542 48.7917 298.75 47.125C300.417 48.4167 301.438 49.2917 301.812 49.75ZM369.562 53.6875C369.562 54.8125 369.396 56.4583 369.062 58.625C368.729 60.75 368.333 62.4583 367.875 63.75C364 69.0833 359.354 73.5833 353.938 77.25C348.604 77.5 344.688 78.0417 342.188 78.875C339.729 79.7083 338.5 80.6458 338.5 81.6875C338.5 82.3542 338.729 82.8542 339.188 83.1875C340.938 82.2292 343.354 81.4792 346.438 80.9375C349.521 80.3542 352.479 80.0625 355.312 80.0625H367.375C368.458 81.9375 369.333 84.0417 370 86.375C370.667 88.6667 371 90.6875 371 92.4375C371 97.2708 369.688 100.854 367.062 103.188C364.979 105.062 362.125 106 358.5 106H313.938C310.229 102.125 308.375 96.0833 308.375 87.875C308.375 84.875 308.917 81.3125 310 77.1875C313.792 72.9792 319.167 68.2083 326.125 62.875C327.5 61.7917 329.042 60.5208 330.75 59.0625C330.5 58.1042 329.938 57.625 329.062 57.625C328.896 57.625 328.604 57.6667 328.188 57.75C326.979 58.125 324.458 60.1042 320.625 63.6875H312.875C310.417 59.6458 309.188 55.3125 309.188 50.6875C309.188 47.7708 309.646 45.1875 310.562 42.9375C311.479 40.6875 312.604 38.9375 313.938 37.6875H365.5C368.208 41.6458 369.562 46.9792 369.562 53.6875ZM438.125 61.5625C438.292 61.6875 438.771 61.75 439.562 61.75C440.354 61.75 440.958 61.4375 441.375 60.8125C441.792 60.1875 442 59.1667 442 57.75V55.5C442 54 441.812 52.9375 441.438 52.3125C441.104 51.6458 440.521 51.3125 439.688 51.3125C438.896 51.3125 438.354 51.3958 438.062 51.5625C438.104 51.7708 438.125 52.125 438.125 52.625V61.5625ZM470.375 75.8125L481.188 86.875C480.438 93.375 478.375 98.375 475 101.875C471.667 105.375 467.042 107.125 461.125 107.125C456.667 107.125 452.792 106.062 449.5 103.938C445.292 101.271 442.146 97.0208 440.062 91.1875L437.812 85.0625C436.062 85.0208 433.854 84.7917 431.188 84.375C430.854 84.7083 430.688 85.1667 430.688 85.75C430.688 86.875 432.375 87.5417 435.75 87.75L439.312 96.75V102.062C434.521 105.438 428.375 107.125 420.875 107.125C415.5 107.125 411.208 106.021 408 103.812C404.792 101.604 403.188 98.3958 403.188 94.1875V34.8125C403.188 32.9792 404.875 31.2083 408.25 29.5C411.625 27.75 416.042 26.3542 421.5 25.3125C426.958 24.2292 432.417 23.6875 437.875 23.6875C450.375 23.6875 460.146 26.25 467.188 31.375C474.604 36.75 478.312 44.3125 478.312 54.0625C478.312 59.6458 476.729 64.4375 473.562 68.4375C470.438 72.3958 466.479 75.1458 461.688 76.6875C461.688 78.0208 462.479 78.6875 464.062 78.6875C465.688 78.6875 467.792 77.7292 470.375 75.8125ZM518.75 107.938C507.208 107.938 498.104 104.729 491.438 98.3125C484.604 91.8542 481.188 83.0208 481.188 71.8125C481.188 60.5625 484.708 51.6458 491.75 45.0625C498.25 38.9375 506.479 35.875 516.438 35.875C526.396 35.875 534.375 38.625 540.375 44.125C546.417 49.5833 549.438 56.3125 549.438 64.3125C549.438 71.4375 546.958 76.8125 542 80.4375C537.417 83.8542 531.167 85.5625 523.25 85.5625C517.333 85.5625 512.333 84.3333 508.25 81.875C507.917 82.125 507.75 82.5833 507.75 83.25C507.75 84.5 509.396 85.6458 512.688 86.6875C515.979 87.8125 519.708 88.375 523.875 88.375C528.083 88.375 531.896 87.8542 535.312 86.8125C538.771 85.7292 541.542 84.4583 543.625 83C544.625 83.875 545.417 85.5 546 87.875C546.625 90.2083 546.938 92.3542 546.938 94.3125C546.938 96.2292 546.75 97.9375 546.375 99.4375C543.125 102.188 539.792 104.146 536.375 105.312C531.542 107.062 525.667 107.938 518.75 107.938ZM517.938 65.625C520.021 65.625 521.062 64.8333 521.062 63.25C521.062 61.75 519.958 61 517.75 61C515.542 61 514.271 62.1875 513.938 64.5625C515.104 65.2708 516.438 65.625 517.938 65.625ZM586.75 57C585.667 57.3333 585.125 57.9792 585.125 58.9375V59.25C585.125 59.4583 585.146 59.5833 585.188 59.625C585.646 59.5833 586.25 59.5625 587 59.5625H588.5C593.25 59.5625 597.688 60.2917 601.812 61.75C605.979 63.1667 609.375 65.4583 612 68.625C614.917 72.2083 616.375 76.7292 616.375 82.1875C616.375 90.6875 613.438 97.1042 607.562 101.438C601.688 105.771 593.833 107.938 584 107.938C574.167 107.938 566.458 106.312 560.875 103.062C555.333 99.8125 552.562 95.0417 552.562 88.75C552.562 86.4167 553.062 84.2917 554.062 82.375C555.062 80.4167 556.188 79.0417 557.438 78.25C559.729 80.1667 563.042 81.8333 567.375 83.25C571.75 84.625 576.375 85.3125 581.25 85.3125C583.208 85.3125 584.188 84.7708 584.188 83.6875C584.188 83.1875 584.125 82.7708 584 82.4375C583.708 82.4792 583.354 82.5 582.938 82.5H582.25C573.417 82.5 566.354 80.75 561.062 77.25C555.062 73.2917 552.062 67.7083 552.062 60.5C552.062 53.2917 554.75 47.4583 560.125 43C566.083 38.0833 574.271 35.625 584.688 35.625C589.812 35.625 594.583 36.1667 599 37.25C603.458 38.3333 607.271 39.7708 610.438 41.5625C611.229 43.2708 611.625 45.7917 611.625 49.125C611.625 54.2083 610.229 58.1042 607.438 60.8125C605.312 59.6458 602.708 58.6875 599.625 57.9375C596.583 57.1458 593.833 56.75 591.375 56.75C588.917 56.75 587.375 56.8333 586.75 57ZM652.688 78.75C653.188 78.75 653.729 78.5417 654.312 78.125C653.896 76.75 653.688 74.6042 653.688 71.6875V40.8125C658.104 38.1458 663.417 36.8125 669.625 36.8125C673.125 36.8125 676.188 37.2917 678.812 38.25C681.479 39.1667 683.521 40.3958 684.938 41.9375V74.5C684.938 80.7083 686.438 84.75 689.438 86.625C689.479 86.8333 689.5 87.2292 689.5 87.8125V88.9375C689.5 95.0208 687.896 99.625 684.688 102.75C681.771 105.667 677.75 107.125 672.625 107.125C669.417 107.125 666.5 106.396 663.875 104.938C661.292 103.479 659.354 101.354 658.062 98.5625C656.646 98.5625 655.938 99.25 655.938 100.625C655.938 101.583 656.417 102.542 657.375 103.5C656.042 104.583 654.438 105.458 652.562 106.125C650.688 106.792 647.917 107.125 644.25 107.125C640.625 107.125 637.083 106.375 633.625 104.875C629.333 103.042 626.042 100.229 623.75 96.4375C620.958 91.9375 619.562 86.2292 619.562 79.3125V63.625C617.438 59.9167 616.375 55.8333 616.375 51.375C616.375 49.0833 616.667 46.7083 617.25 44.25C617.833 41.7917 618.771 39.6042 620.062 37.6875H633.812C638.979 37.6875 643.021 38.9167 645.938 41.375C648.896 43.7917 650.375 47.4792 650.375 52.4375V72.6875C650.375 76.7292 651.146 78.75 652.688 78.75ZM724.188 30.5625V74.5C724.188 80.7083 725.688 84.75 728.688 86.625C728.729 86.8333 728.75 87.2292 728.75 87.8125V88.9375C728.75 94.8958 727.229 99.4167 724.188 102.5C721.188 105.583 716.917 107.125 711.375 107.125C705.833 107.125 701.438 105.583 698.188 102.5C694.312 98.8333 692.375 93.2917 692.375 85.875V20.9375C696.75 18.2708 701.75 16.9375 707.375 16.9375C713.042 16.9375 717.25 18.1458 720 20.5625C722.792 22.9375 724.188 26.2708 724.188 30.5625ZM736.938 66.5H740.812C742.896 66.5 743.938 65.8125 743.938 64.4375C743.938 64.2708 743.896 64.0208 743.812 63.6875H729.812C728.896 60.7708 728.438 57.5208 728.438 53.9375C728.438 50.3125 728.708 47.375 729.25 45.125C731.625 43.625 734.896 41.3333 739.062 38.25C740.229 35.4167 741.75 30.9167 743.625 24.75C743.875 23.9167 744.167 23.1042 744.5 22.3125C747.75 21.4792 751.458 21.0625 755.625 21.0625C759.792 21.0625 763.896 21.5 767.938 22.375V37.6875H778.75C781.167 41.3542 782.375 45.6667 782.375 50.625C782.375 52.875 782.062 55.1875 781.438 57.5625C780.812 59.9375 779.917 61.9583 778.75 63.625H769.812V73.0625C769.812 78.3958 772.042 81.0625 776.5 81.0625H779.188C780.062 84.2292 780.5 86.9792 780.5 89.3125C780.5 95.0625 778.688 99.4792 775.062 102.562C771.479 105.604 766.25 107.125 759.375 107.125C752.542 107.125 747.083 105.229 743 101.438C738.958 97.6042 736.938 91.9792 736.938 84.5625V66.5ZM818.625 57C817.542 57.3333 817 57.9792 817 58.9375V59.25C817 59.4583 817.021 59.5833 817.062 59.625C817.521 59.5833 818.125 59.5625 818.875 59.5625H820.375C825.125 59.5625 829.562 60.2917 833.688 61.75C837.854 63.1667 841.25 65.4583 843.875 68.625C846.792 72.2083 848.25 76.7292 848.25 82.1875C848.25 90.6875 845.312 97.1042 839.438 101.438C833.562 105.771 825.708 107.938 815.875 107.938C806.042 107.938 798.333 106.312 792.75 103.062C787.208 99.8125 784.438 95.0417 784.438 88.75C784.438 86.4167 784.938 84.2917 785.938 82.375C786.938 80.4167 788.062 79.0417 789.312 78.25C791.604 80.1667 794.917 81.8333 799.25 83.25C803.625 84.625 808.25 85.3125 813.125 85.3125C815.083 85.3125 816.062 84.7708 816.062 83.6875C816.062 83.1875 816 82.7708 815.875 82.4375C815.583 82.4792 815.229 82.5 814.812 82.5H814.125C805.292 82.5 798.229 80.75 792.938 77.25C786.938 73.2917 783.938 67.7083 783.938 60.5C783.938 53.2917 786.625 47.4583 792 43C797.958 38.0833 806.146 35.625 816.562 35.625C821.688 35.625 826.458 36.1667 830.875 37.25C835.333 38.3333 839.146 39.7708 842.312 41.5625C843.104 43.2708 843.5 45.7917 843.5 49.125C843.5 54.2083 842.104 58.1042 839.312 60.8125C837.188 59.6458 834.583 58.6875 831.5 57.9375C828.458 57.1458 825.708 56.75 823.25 56.75C820.792 56.75 819.25 56.8333 818.625 57Z" fill="#FFDBE7"/>
<path d="M142.375 77.875L140.619 82.5566L143.832 83.7615L146.112 81.1968L142.375 77.875ZM146.625 74.9375L148.694 79.4893L148.737 79.47L148.779 79.4499L146.625 74.9375ZM163.688 77.5L160.346 81.2191L160.389 81.2582L160.434 81.2963L163.688 77.5ZM164.125 77.875L160.871 81.6713L163.475 83.9036L166.495 82.2774L164.125 77.875ZM161.875 72.625L164.356 68.2838L164.31 68.2577L164.264 68.2326L161.875 72.625ZM150 70.9375H145V77.0365L150.981 75.8404L150 70.9375ZM146.312 71.8125L148.19 76.4467L151.312 75.1818V71.8125H146.312ZM126.875 102L124.755 106.528L124.769 106.535L124.782 106.541L126.875 102ZM112.812 89.3125L108.537 91.9052L108.544 91.9156L108.55 91.926L112.812 89.3125ZM112.938 40.875L117.211 43.4713L117.214 43.4652L112.938 40.875ZM127.5 27.6875L125.387 23.1558L125.375 23.1613L127.5 27.6875ZM177.75 34.75L174.156 38.2258L174.165 38.2358L174.175 38.2458L177.75 34.75ZM184.062 84L179.705 81.5472L175.51 89H184.062V84ZM193.125 84L197.868 82.4189L196.729 79H193.125V84ZM190.312 111.438L186.615 108.072L190.312 111.438ZM151.438 92.1875L156.238 90.7893L155.189 87.1875H151.438V92.1875ZM153.312 105.688L153.886 110.655L161.222 109.808L157.711 103.311L153.312 105.688ZM141.375 76.4375H136.375C136.375 77.5911 136.656 78.9408 137.52 80.1834C138.384 81.4241 139.548 82.1547 140.619 82.5566L142.375 77.875L144.131 73.1934C144.536 73.3453 145.2 73.7113 145.73 74.4728C146.261 75.2363 146.375 75.9922 146.375 76.4375H141.375ZM142.375 77.875L146.112 81.1968C146.519 80.7384 147.293 80.1262 148.694 79.4893L146.625 74.9375L144.556 70.3857C142.29 71.4155 140.231 72.7616 138.638 74.5532L142.375 77.875ZM146.625 74.9375L148.779 79.4499C149.858 78.9348 151.17 78.625 152.812 78.625V73.625V68.625C149.872 68.625 147.059 69.1902 144.471 70.4251L146.625 74.9375ZM152.812 73.625V78.625C156.128 78.625 158.51 79.5701 160.346 81.2191L163.688 77.5L167.029 73.7809C163.115 70.2632 158.247 68.625 152.812 68.625V73.625ZM163.688 77.5C160.434 81.2963 160.434 81.2963 160.434 81.2963C160.434 81.2963 160.434 81.2963 160.434 81.2963C160.434 81.2963 160.434 81.2963 160.434 81.2963C160.434 81.2963 160.434 81.2963 160.434 81.2963C160.434 81.2963 160.434 81.2963 160.434 81.2964C160.434 81.2964 160.434 81.2964 160.434 81.2964C160.434 81.2964 160.434 81.2964 160.434 81.2965C160.434 81.2965 160.434 81.2965 160.434 81.2965C160.434 81.2965 160.434 81.2965 160.434 81.2965C160.434 81.2965 160.434 81.2966 160.434 81.2966C160.434 81.2966 160.434 81.2966 160.434 81.2966C160.435 81.2971 160.434 81.297 160.435 81.2977C160.437 81.2994 160.437 81.2995 160.44 81.3021C160.449 81.3095 160.448 81.3084 160.461 81.3197C160.503 81.3562 160.482 81.338 160.543 81.39C160.648 81.4803 160.693 81.5185 160.871 81.6713L164.125 77.875L167.379 74.0787C167.355 74.0579 167.349 74.0532 167.326 74.0333C167.282 73.9959 167.319 74.0273 167.276 73.9908C167.085 73.8268 167.374 74.0748 167.188 73.9147C167.096 73.8365 167.124 73.86 167.051 73.7975C166.917 73.6829 167.132 73.8671 167.003 73.7565C166.994 73.749 166.992 73.7468 166.984 73.7403C166.961 73.7208 166.999 73.7527 166.976 73.7334C166.962 73.7214 166.982 73.7389 166.969 73.7272C166.96 73.7193 166.975 73.7321 166.965 73.7243C166.963 73.7225 166.966 73.7247 166.964 73.723C166.962 73.7215 166.965 73.7238 166.963 73.7223C166.963 73.7222 166.963 73.7221 166.963 73.722C166.963 73.7219 166.963 73.7218 166.962 73.7217C166.945 73.7068 166.974 73.7315 166.957 73.7169C166.954 73.7146 166.95 73.7109 166.948 73.7096C166.938 73.7005 166.956 73.7159 166.945 73.707C166.944 73.7058 166.944 73.7062 166.943 73.7052C166.943 73.7052 166.943 73.7051 166.943 73.7051C166.943 73.7051 166.943 73.705 166.943 73.705C166.943 73.7047 166.943 73.7051 166.943 73.7048C166.942 73.7041 166.943 73.7053 166.942 73.7045C166.942 73.7041 166.943 73.7047 166.942 73.7043C166.942 73.7043 166.942 73.7043 166.942 73.7042C166.942 73.7042 166.942 73.7042 166.942 73.7042C166.942 73.704 166.942 73.7043 166.942 73.7041C166.941 73.7035 166.942 73.7045 166.942 73.7039C166.941 73.7036 166.942 73.7042 166.942 73.7038C166.941 73.7038 166.942 73.7038 166.942 73.7038C166.941 73.7037 166.942 73.7038 166.941 73.7037C166.941 73.7037 166.941 73.7037 166.941 73.7037C166.941 73.7037 166.941 73.7037 166.941 73.7037C166.941 73.7037 166.941 73.7037 166.941 73.7037C166.941 73.7037 166.941 73.7037 163.688 77.5ZM164.125 77.875L166.495 82.2774C169.039 80.9076 169.938 78.4222 169.938 76.3125H164.938H159.938C159.938 76.1013 159.975 75.5812 160.298 74.9589C160.649 74.2853 161.187 73.7782 161.755 73.4726L164.125 77.875ZM164.938 76.3125H169.938C169.938 72.1288 166.68 69.6121 164.356 68.2838L161.875 72.625L159.394 76.9662C159.737 77.162 159.976 77.326 160.134 77.4498C160.294 77.5749 160.341 77.635 160.325 77.6164C160.308 77.5951 160.208 77.4693 160.112 77.2322C160.011 76.983 159.938 76.6664 159.938 76.3125H164.938ZM161.875 72.625L164.264 68.2326C160.934 66.4216 156.997 65.6875 152.75 65.6875V70.6875V75.6875C155.919 75.6875 158.066 76.2451 159.486 77.0174L161.875 72.625ZM152.75 70.6875V65.6875C151.477 65.6875 150.226 65.7932 149.019 66.0346L150 70.9375L150.981 75.8404C151.44 75.7484 152.023 75.6875 152.75 75.6875V70.6875ZM150 70.9375H155V54.625H150H145V70.9375H150ZM150 54.625H155C155 53.3015 154.797 51.4184 153.632 49.7485C152.238 47.751 150.112 46.9375 148.125 46.9375V51.9375V56.9375C147.841 56.9375 147.351 56.8853 146.79 56.617C146.203 56.3368 145.743 55.9177 145.431 55.4703C144.891 54.6961 145 54.1569 145 54.625H150ZM148.125 51.9375V46.9375C146.04 46.9375 143.923 47.8523 142.591 49.8734C141.499 51.5299 141.312 53.3804 141.312 54.6875H146.312H151.312C151.312 54.1613 151.428 54.6367 150.94 55.3766C150.652 55.8141 150.202 56.261 149.589 56.5712C148.995 56.8716 148.459 56.9375 148.125 56.9375V51.9375ZM146.312 54.6875H141.312V71.8125H146.312H151.312V54.6875H146.312ZM146.312 71.8125L144.435 67.1783C142.51 67.9583 140.645 68.9576 139.191 70.3196C137.667 71.7475 136.375 73.8081 136.375 76.4375H141.375H146.375C146.375 76.8163 146.279 77.1541 146.156 77.4001C146.044 77.6227 145.954 77.6867 146.028 77.6179C146.103 77.5471 146.294 77.3902 146.668 77.1724C147.038 76.9572 147.536 76.7114 148.19 76.4467L146.312 71.8125ZM146.5 106.062V101.062C139.931 101.062 134.115 99.8321 128.968 97.4593L126.875 102L124.782 106.541C131.385 109.585 138.652 111.062 146.5 111.062V106.062ZM126.875 102L128.995 97.4715C124.036 95.1503 120.081 91.6015 117.075 86.699L112.812 89.3125L108.55 91.926C112.544 98.4401 117.964 103.35 124.755 106.528L126.875 102ZM112.812 89.3125L117.088 86.7198C113.759 81.2306 111.938 74.1456 111.938 65.1875H106.938H101.938C101.938 75.4794 104.033 84.4778 108.537 91.9052L112.812 89.3125ZM106.938 65.1875H111.938C111.938 56.2514 113.791 49.0986 117.211 43.4713L112.938 40.875L108.664 38.2787C104.084 45.818 101.938 54.8736 101.938 65.1875H106.938ZM112.938 40.875L117.214 43.4652C120.299 38.372 124.413 34.6599 129.625 32.2137L127.5 27.6875L125.375 23.1613C118.337 26.4651 112.743 31.5447 108.661 38.2848L112.938 40.875ZM127.5 27.6875L129.613 32.2192C135.09 29.6654 140.991 28.375 147.375 28.375V23.375V18.375C139.592 18.375 132.243 19.9596 125.387 23.1558L127.5 27.6875ZM147.375 23.375V28.375C159.262 28.375 167.969 31.8279 174.156 38.2258L177.75 34.75L181.344 31.2742C172.865 22.5054 161.322 18.375 147.375 18.375V23.375ZM177.75 34.75L174.175 38.2458C180.492 44.7058 183.812 53.2516 183.812 64.375H188.812H193.812C193.812 51.0817 189.758 39.8775 181.325 31.2542L177.75 34.75ZM188.812 64.375H183.812C183.812 71.109 182.389 76.7803 179.705 81.5472L184.062 84L188.42 86.4528C192.069 79.9697 193.812 72.5577 193.812 64.375H188.812ZM184.062 84V89H193.125V84V79H184.062V84ZM193.125 84L188.382 85.5811C189.742 89.6635 190.375 93.3766 190.375 96.75H195.375H200.375C200.375 92.1234 199.508 87.3365 197.868 82.4189L193.125 84ZM195.375 96.75H190.375C190.375 101.868 188.981 105.472 186.615 108.072L190.312 111.438L194.01 114.803C198.394 109.987 200.375 103.799 200.375 96.75H195.375ZM190.312 111.438L186.615 108.072C184.379 110.528 181.134 112 176.188 112V117V122C183.324 122 189.496 119.763 194.01 114.803L190.312 111.438ZM176.188 117V112C171.372 112 167.654 110.458 164.661 107.464L161.125 111L157.589 114.536C162.596 119.542 168.92 122 176.188 122V117ZM161.125 111L164.661 107.464C161.55 104.354 158.629 98.9986 156.238 90.7893L151.438 92.1875L146.637 93.5857C149.246 102.543 152.783 109.729 157.589 114.536L161.125 111ZM151.438 92.1875V87.1875H151.125V92.1875V97.1875H151.438V92.1875ZM151.125 92.1875V87.1875C149.688 87.1875 147.691 87.5502 146.089 89.152C144.488 90.7537 144.125 92.7501 144.125 94.1875H149.125H154.125C154.125 94.2916 154.096 95.288 153.161 96.223C152.225 97.1581 151.229 97.1875 151.125 97.1875V92.1875ZM149.125 94.1875H144.125C144.125 96.2731 144.686 98.4847 145.474 100.648C146.282 102.869 147.448 105.351 148.914 108.064L153.312 105.688L157.711 103.311C156.386 100.857 155.457 98.839 154.87 97.2267C154.262 95.5569 154.125 94.6019 154.125 94.1875H149.125ZM153.312 105.688L152.739 100.72C150.779 100.947 148.7 101.062 146.5 101.062V106.062V111.062C149.05 111.062 151.513 110.928 153.886 110.655L153.312 105.688ZM231.688 78.125L234.594 82.1937L237.513 80.1084L236.473 76.675L231.688 78.125ZM231.062 40.8125L228.478 36.5322L226.062 37.9907V40.8125H231.062ZM256.188 38.25L254.473 42.9468L254.517 42.963L254.562 42.9784L256.188 38.25ZM262.312 41.9375H267.312V39.9891L265.994 38.5544L262.312 41.9375ZM266.812 86.625L271.715 85.6444L271.292 83.5286L269.462 82.385L266.812 86.625ZM262.062 102.75L258.574 99.1683L258.55 99.1912L258.527 99.2145L262.062 102.75ZM241.25 104.938L238.792 109.292L238.807 109.3L238.822 109.308L241.25 104.938ZM235.438 98.5625L239.975 96.4629L238.633 93.5625H235.438V98.5625ZM234.75 103.5L237.903 107.381L242.206 103.885L238.286 99.9645L234.75 103.5ZM211 104.875L212.99 100.288L212.977 100.282L212.964 100.277L211 104.875ZM201.125 96.4375L205.404 93.8512L205.389 93.8263L205.374 93.8017L201.125 96.4375ZM196.938 63.625H201.938V62.2939L201.276 61.1391L196.938 63.625ZM194.625 44.25L189.76 43.0956L194.625 44.25ZM197.438 37.6875V32.6875H194.778L193.291 34.8932L197.438 37.6875ZM223.312 41.375L220.09 45.1981L220.12 45.2229L220.149 45.2472L223.312 41.375ZM230.062 78.75V83.75C231.968 83.75 233.516 82.9634 234.594 82.1937L231.688 78.125L228.781 74.0563C228.692 74.1199 229.157 73.75 230.062 73.75V78.75ZM231.688 78.125L236.473 76.675C236.28 76.0395 236.062 74.5096 236.062 71.6875H231.062H226.062C226.062 74.6988 226.262 77.4605 226.902 79.575L231.688 78.125ZM231.062 71.6875H236.062V40.8125H231.062H226.062V71.6875H231.062ZM231.062 40.8125L233.647 45.0928C237.139 42.9846 241.517 41.8125 247 41.8125V36.8125V31.8125C240.067 31.8125 233.82 33.307 228.478 36.5322L231.062 40.8125ZM247 36.8125V41.8125C250.057 41.8125 252.516 42.2325 254.473 42.9468L256.188 38.25L257.902 33.5532C254.609 32.3509 250.943 31.8125 247 31.8125V36.8125ZM256.188 38.25L254.562 42.9784C256.704 43.7146 257.938 44.567 258.631 45.3206L262.312 41.9375L265.994 38.5544C263.853 36.2246 261.005 34.6188 257.813 33.5216L256.188 38.25ZM262.312 41.9375H257.312V74.5H262.312H267.312V41.9375H262.312ZM262.312 74.5H257.312C257.312 81.1319 258.862 87.5524 264.163 90.865L266.812 86.625L269.462 82.385C268.763 81.9476 267.312 80.2848 267.312 74.5H262.312ZM266.812 86.625L261.91 87.6056C261.893 87.5243 261.883 87.4602 261.877 87.419C261.871 87.3768 261.868 87.3465 261.866 87.3309C261.863 87.302 261.864 87.3023 261.866 87.3409C261.868 87.3774 261.87 87.4347 261.872 87.5165C261.874 87.5975 261.875 87.6957 261.875 87.8125H266.875H271.875C271.875 87.2807 271.868 86.4079 271.715 85.6444L266.812 86.625ZM266.875 87.8125H261.875V88.9375H266.875H271.875V87.8125H266.875ZM266.875 88.9375H261.875C261.875 94.1699 260.509 97.2829 258.574 99.1683L262.062 102.75L265.551 106.332C270.032 101.967 271.875 95.8717 271.875 88.9375H266.875ZM262.062 102.75L258.527 99.2145C256.764 100.977 254.139 102.125 250 102.125V107.125V112.125C256.111 112.125 261.528 110.356 265.598 106.286L262.062 102.75ZM250 107.125V102.125C247.581 102.125 245.51 101.584 243.678 100.567L241.25 104.938L238.822 109.308C242.24 111.207 246.002 112.125 250 112.125V107.125ZM241.25 104.938L243.708 100.583C242.072 99.66 240.844 98.3412 239.975 96.4629L235.438 98.5625L230.9 100.662C232.614 104.367 235.261 107.298 238.792 109.292L241.25 104.938ZM235.438 98.5625V93.5625C233.995 93.5625 231.988 93.9111 230.361 95.4902C228.707 97.0963 228.312 99.1282 228.312 100.625H233.312H238.312C238.312 100.747 238.273 101.747 237.326 102.666C236.407 103.558 235.463 103.562 235.438 103.562V98.5625ZM233.312 100.625H228.312C228.312 103.377 229.711 105.532 231.214 107.036L234.75 103.5L238.286 99.9645C238.09 99.7694 238.089 99.717 238.144 99.8264C238.21 99.9587 238.312 100.24 238.312 100.625H233.312ZM234.75 103.5L231.597 99.6194C230.769 100.292 229.685 100.908 228.262 101.414L229.938 106.125L231.613 110.836C233.94 110.008 236.064 108.875 237.903 107.381L234.75 103.5ZM229.938 106.125L228.262 101.414C227.202 101.791 225.118 102.125 221.625 102.125V107.125V112.125C225.466 112.125 228.923 111.793 231.613 110.836L229.938 106.125ZM221.625 107.125V102.125C218.712 102.125 215.846 101.527 212.99 100.288L211 104.875L209.01 109.462C213.071 111.223 217.288 112.125 221.625 112.125V107.125ZM211 104.875L212.964 100.277C209.581 98.8318 207.124 96.6968 205.404 93.8512L201.125 96.4375L196.846 99.0238C199.709 103.762 203.835 107.252 209.036 109.473L211 104.875ZM201.125 96.4375L205.374 93.8017C203.202 90.3011 201.938 85.5772 201.938 79.3125H196.938H191.938C191.938 86.8812 193.465 93.5739 196.876 99.0733L201.125 96.4375ZM196.938 79.3125H201.938V63.625H196.938H191.938V79.3125H196.938ZM196.938 63.625L201.276 61.1391C199.603 58.2207 198.75 55.0003 198.75 51.375H193.75H188.75C188.75 56.6663 190.022 61.6126 192.599 66.1109L196.938 63.625ZM193.75 51.375H198.75C198.75 49.5094 198.987 47.5227 199.49 45.4044L194.625 44.25L189.76 43.0956C189.096 45.894 188.75 48.6572 188.75 51.375H193.75ZM194.625 44.25L199.49 45.4044C199.947 43.4769 200.658 41.855 201.584 40.4818L197.438 37.6875L193.291 34.8932C191.633 37.3533 190.469 40.1065 189.76 43.0956L194.625 44.25ZM197.438 37.6875V42.6875H211.188V37.6875V32.6875H197.438V37.6875ZM211.188 37.6875V42.6875C215.594 42.6875 218.351 43.7321 220.09 45.1981L223.312 41.375L226.535 37.5519C222.441 34.1013 217.114 32.6875 211.188 32.6875V37.6875ZM223.312 41.375L220.149 45.2472C221.617 46.4462 222.75 48.4978 222.75 52.4375H227.75H232.75C232.75 46.4605 230.925 41.1371 226.476 37.5028L223.312 41.375ZM227.75 52.4375H222.75V72.6875H227.75H232.75V52.4375H227.75ZM227.75 72.6875H222.75C222.75 74.8826 222.94 77.1375 223.656 79.0164C224.028 79.9917 224.656 81.1707 225.761 82.1361C226.965 83.1884 228.472 83.75 230.062 83.75V78.75V73.75C230.426 73.75 230.844 73.8116 231.274 73.9729C231.705 74.1342 232.063 74.363 232.341 74.6061C232.611 74.8423 232.779 75.0676 232.873 75.215C232.965 75.3603 233 75.4519 233 75.4524C233.001 75.4545 232.979 75.3983 232.949 75.2663C232.919 75.136 232.886 74.9531 232.855 74.7092C232.792 74.2148 232.75 73.5499 232.75 72.6875H227.75ZM301.812 49.75H306.812V47.9652L305.682 46.5838L301.812 49.75ZM306.312 86.625L311.215 85.6444L310.792 83.5286L308.962 82.385L306.312 86.625ZM301.375 102.75L297.98 99.0795L297.959 99.0985L297.939 99.1177L301.375 102.75ZM276.312 102.75L273.007 106.501L273.013 106.507L273.02 106.513L276.312 102.75ZM270 45.875L267.073 41.8216L265 43.3184V45.875H270ZM275.188 43.3125L277.5 47.7454L286.08 43.269L277.465 38.8613L275.188 43.3125ZM270.312 38.5625L266.094 41.2469L266.105 41.2645L266.117 41.282L270.312 38.5625ZM273.312 17.6875L269.843 14.0875L273.312 17.6875ZM298.625 17.8125L295.068 21.3263L295.089 21.3481L295.111 21.3697L298.625 17.8125ZM299.875 41.4375L303.708 44.6486L303.718 44.636L303.729 44.6232L299.875 41.4375ZM290.438 47.25L289.394 42.3602L285.438 43.2047V47.25H290.438ZM298.75 47.125L301.813 43.1729L298.79 40.8304L295.738 43.1341L298.75 47.125ZM301.812 49.75H296.812V74.5H301.812H306.812V49.75H301.812ZM301.812 74.5H296.812C296.812 81.1319 298.362 87.5524 303.663 90.865L306.312 86.625L308.962 82.385C308.263 81.9476 306.812 80.2848 306.812 74.5H301.812ZM306.312 86.625L301.41 87.6056C301.393 87.5243 301.383 87.4602 301.377 87.419C301.371 87.3768 301.368 87.3465 301.366 87.3309C301.363 87.302 301.364 87.3023 301.366 87.3409C301.368 87.3774 301.37 87.4347 301.372 87.5165C301.374 87.5975 301.375 87.6957 301.375 87.8125H306.375H311.375C311.375 87.2807 311.368 86.4079 311.215 85.6444L306.312 86.625ZM306.375 87.8125H301.375V88.9375H306.375H311.375V87.8125H306.375ZM306.375 88.9375H301.375C301.375 94.1753 299.97 97.239 297.98 99.0795L301.375 102.75L304.77 106.42C309.447 102.094 311.375 95.9497 311.375 88.9375H306.375ZM301.375 102.75L297.939 99.1177C295.977 100.973 293.182 102.125 289 102.125V107.125V112.125C295.151 112.125 300.606 110.36 304.811 106.382L301.375 102.75ZM289 107.125V102.125C284.884 102.125 281.886 100.983 279.605 98.9871L276.312 102.75L273.02 106.513C277.406 110.351 282.866 112.125 289 112.125V107.125ZM276.312 102.75L279.618 98.9986C276.764 96.4837 275 92.6054 275 86.5H270H265C265 94.6446 267.444 101.6 273.007 106.501L276.312 102.75ZM270 86.5H275V45.875H270H265V86.5H270ZM270 45.875L272.927 49.9284C273.319 49.6454 273.745 49.4148 274.217 49.2349L272.438 44.5625L270.658 39.8901C269.38 40.3769 268.181 41.0213 267.073 41.8216L270 45.875ZM272.438 44.5625L274.217 49.2349C275.3 48.8226 276.395 48.3222 277.5 47.7454L275.188 43.3125L272.875 38.8796C272.063 39.3028 271.325 39.6357 270.658 39.8901L272.438 44.5625ZM275.188 43.3125L277.465 38.8613C276.671 38.4549 275.643 37.5939 274.508 35.843L270.312 38.5625L266.117 41.282C267.899 44.0311 270.121 46.3367 272.91 47.7637L275.188 43.3125ZM270.312 38.5625L274.531 35.8781C273.643 34.4824 273.125 32.7707 273.125 30.5625H268.125H263.125C263.125 34.4376 264.066 38.0593 266.094 41.2469L270.312 38.5625ZM268.125 30.5625H273.125C273.125 26.5307 274.398 23.5856 276.782 21.2875L273.312 17.6875L269.843 14.0875C265.31 18.4561 263.125 24.0943 263.125 30.5625H268.125ZM273.312 17.6875L276.782 21.2875C279.267 18.8923 282.235 17.6875 286 17.6875V12.6875V7.6875C279.765 7.6875 274.274 9.81602 269.843 14.0875L273.312 17.6875ZM286 12.6875V17.6875C289.779 17.6875 292.683 18.9121 295.068 21.3263L298.625 17.8125L302.182 14.2987C297.817 9.87954 292.304 7.6875 286 7.6875V12.6875ZM298.625 17.8125L295.111 21.3697C297.508 23.7375 298.75 26.6746 298.75 30.5625H303.75H308.75C308.75 24.2004 306.575 18.6375 302.139 14.2553L298.625 17.8125ZM303.75 30.5625H298.75C298.75 33.5467 297.85 36.0399 296.021 38.2518L299.875 41.4375L303.729 44.6232C307.067 40.5851 308.75 35.8283 308.75 30.5625H303.75ZM299.875 41.4375L296.042 38.2264C294.129 40.5105 291.942 41.8161 289.394 42.3602L290.438 47.25L291.481 52.1398C296.35 51.1006 300.455 48.5312 303.708 44.6486L299.875 41.4375ZM290.438 47.25H285.438C285.438 48.5363 285.658 50.4168 286.916 52.0646C288.368 53.9679 290.458 54.625 292.25 54.625V49.625V44.625C292.488 44.625 292.93 44.6638 293.458 44.8946C294.016 45.1382 294.505 45.5253 294.865 45.9979C295.519 46.854 295.438 47.5471 295.438 47.25H290.438ZM292.25 49.625V54.625C295.75 54.625 298.949 53.2393 301.762 51.1159L298.75 47.125L295.738 43.1341C294.135 44.344 293 44.625 292.25 44.625V49.625ZM298.75 47.125L295.687 51.0771C296.487 51.6973 297.088 52.1833 297.512 52.5463C297.723 52.7274 297.867 52.8577 297.956 52.9437C298.063 53.0451 298.033 53.0266 297.943 52.9162L301.812 49.75L305.682 46.5838C304.875 45.5966 303.346 44.361 301.813 43.1729L298.75 47.125ZM369.062 58.625L374.002 59.3998L374.003 59.3926L374.004 59.3853L369.062 58.625ZM367.875 63.75L371.92 66.689L372.345 66.1038L372.587 65.4221L367.875 63.75ZM353.938 77.25L354.172 82.2445L355.576 82.1787L356.74 81.3905L353.938 77.25ZM342.188 78.875L340.606 74.1316L340.594 74.1356L340.582 74.1397L342.188 78.875ZM339.188 83.1875L336.247 87.2312L338.81 89.0951L341.589 87.573L339.188 83.1875ZM346.438 80.9375L347.303 85.8621L347.335 85.8564L347.367 85.8503L346.438 80.9375ZM367.375 80.0625L371.704 77.5611L370.261 75.0625H367.375V80.0625ZM370 86.375L365.192 87.7486L365.196 87.7601L365.199 87.7717L370 86.375ZM367.062 103.188L363.741 99.4505L363.729 99.4607L363.718 99.471L367.062 103.188ZM313.938 106L310.325 109.457L311.802 111H313.938V106ZM310 77.1875L306.285 73.8406L305.472 74.7429L305.164 75.9174L310 77.1875ZM326.125 62.875L329.167 66.8434L329.193 66.8231L329.219 66.8025L326.125 62.875ZM330.75 59.0625L333.996 62.8653L336.379 60.8315L335.588 57.8004L330.75 59.0625ZM328.188 57.75L327.207 52.8471L326.953 52.8979L326.706 52.9747L328.188 57.75ZM320.625 63.6875V68.6875H322.598L324.039 67.3401L320.625 63.6875ZM312.875 63.6875L308.603 66.2858L310.064 68.6875H312.875V63.6875ZM313.938 37.6875V32.6875H311.96L310.518 34.0398L313.938 37.6875ZM365.5 37.6875L369.627 34.8641L368.137 32.6875H365.5V37.6875ZM369.562 53.6875H364.562C364.562 54.42 364.444 55.761 364.121 57.8647L369.062 58.625L374.004 59.3853C374.347 57.1557 374.562 55.205 374.562 53.6875H369.562ZM369.062 58.625L364.123 57.8502C363.814 59.821 363.477 61.1932 363.163 62.0779L367.875 63.75L372.587 65.4221C373.19 63.7234 373.645 61.679 374.002 59.3998L369.062 58.625ZM367.875 63.75L363.83 60.811C360.293 65.6785 356.067 69.7708 351.135 73.1095L353.938 77.25L356.74 81.3905C362.642 77.3959 367.707 72.4881 371.92 66.689L367.875 63.75ZM353.938 77.25L353.703 72.2555C348.28 72.5097 343.79 73.0703 340.606 74.1316L342.188 78.875L343.769 83.6184C345.585 83.013 348.928 82.4903 354.172 82.2445L353.938 77.25ZM342.188 78.875L340.582 74.1397C339.138 74.6291 337.63 75.2813 336.39 76.2275C335.158 77.1669 333.5 78.9624 333.5 81.6875H338.5H343.5C343.5 82.4667 343.256 83.1156 342.978 83.5637C342.725 83.9705 342.481 84.1583 342.454 84.1787C342.42 84.2044 342.492 84.145 342.739 84.0267C342.977 83.9122 343.321 83.7703 343.793 83.6103L342.188 78.875ZM338.5 81.6875H333.5C333.5 83.6329 334.255 85.7829 336.247 87.2312L339.188 83.1875L342.128 79.1438C342.571 79.466 342.963 79.9245 343.217 80.4792C343.459 81.0064 343.5 81.4514 343.5 81.6875H338.5ZM339.188 83.1875L341.589 87.573C342.667 86.9825 344.487 86.3566 347.303 85.8621L346.438 80.9375L345.572 76.0129C342.221 76.6017 339.208 77.4758 336.786 78.802L339.188 83.1875ZM346.438 80.9375L347.367 85.8503C350.176 85.3189 352.822 85.0625 355.312 85.0625V80.0625V75.0625C352.136 75.0625 348.866 75.3895 345.508 76.0247L346.438 80.9375ZM355.312 80.0625V85.0625H367.375V80.0625V75.0625H355.312V80.0625ZM367.375 80.0625L363.046 82.5639C363.901 84.0443 364.625 85.7627 365.192 87.7486L370 86.375L374.808 85.0014C374.042 82.3206 373.016 79.8307 371.704 77.5611L367.375 80.0625ZM370 86.375L365.199 87.7717C365.778 89.7622 366 91.2964 366 92.4375H371H376C376 90.0786 375.555 87.5711 374.801 84.9783L370 86.375ZM371 92.4375H366C366 96.4019 364.942 98.383 363.741 99.4505L367.062 103.188L370.384 106.925C374.433 103.325 376 98.1398 376 92.4375H371ZM367.062 103.188L363.718 99.471C362.796 100.301 361.262 101 358.5 101V106V111C362.988 111 367.162 109.824 370.407 106.904L367.062 103.188ZM358.5 106V101H313.938V106V111H358.5V106ZM313.938 106L317.55 102.543C315.105 99.9882 313.375 95.4606 313.375 87.875H308.375H303.375C303.375 96.7061 305.353 104.262 310.325 109.457L313.938 106ZM308.375 87.875H313.375C313.375 85.4416 313.82 82.3268 314.836 78.4576L310 77.1875L305.164 75.9174C304.013 80.2982 303.375 84.3084 303.375 87.875H308.375ZM310 77.1875L313.715 80.5344C317.222 76.6411 322.335 72.0798 329.167 66.8434L326.125 62.875L323.083 58.9066C315.999 64.3369 310.361 69.3172 306.285 73.8406L310 77.1875ZM326.125 62.875L329.219 66.8025C330.658 65.6691 332.251 64.355 333.996 62.8653L330.75 59.0625L327.504 55.2597C325.832 56.6867 324.342 57.9142 323.031 58.9475L326.125 62.875ZM330.75 59.0625L335.588 57.8004C335.291 56.6615 334.67 55.2745 333.383 54.1782C332.036 53.0311 330.459 52.625 329.062 52.625V57.625V62.625C328.541 62.625 327.682 62.4585 326.898 61.7906C326.174 61.1735 325.959 60.5052 325.912 60.3246L330.75 59.0625ZM329.062 57.625V52.625C328.34 52.625 327.601 52.7683 327.207 52.8471L328.188 57.75L329.168 62.6529C329.242 62.6382 329.3 62.6272 329.345 62.6192C329.391 62.6111 329.417 62.6072 329.426 62.606C329.436 62.6045 329.414 62.608 329.367 62.6123C329.342 62.6145 329.305 62.6175 329.257 62.62C329.21 62.6225 329.144 62.625 329.062 62.625V57.625ZM328.188 57.75L326.706 52.9747C325.115 53.4684 323.525 54.6232 322.303 55.5829C320.882 56.6988 319.175 58.1983 317.211 60.0349L320.625 63.6875L324.039 67.3401C325.908 65.5933 327.379 64.3116 328.478 63.4483C329.028 63.0164 329.431 62.7324 329.704 62.56C330.031 62.3539 329.984 62.4279 329.669 62.5253L328.188 57.75ZM320.625 63.6875V58.6875H312.875V63.6875V68.6875H320.625V63.6875ZM312.875 63.6875L317.147 61.0892C315.153 57.8117 314.188 54.3742 314.188 50.6875H309.188H304.188C304.188 56.2508 305.68 61.48 308.603 66.2858L312.875 63.6875ZM309.188 50.6875H314.188C314.188 48.2909 314.564 46.3678 315.193 44.824L310.562 42.9375L305.932 41.051C304.728 44.0072 304.188 47.2508 304.188 50.6875H309.188ZM310.562 42.9375L315.193 44.824C315.923 43.0322 316.693 41.9581 317.357 41.3352L313.938 37.6875L310.518 34.0398C308.516 35.9169 307.035 38.3428 305.932 41.051L310.562 42.9375ZM313.938 37.6875V42.6875H365.5V37.6875V32.6875H313.938V37.6875ZM365.5 37.6875L361.373 40.5109C363.327 43.3664 364.562 47.5987 364.562 53.6875H369.562H374.562C374.562 46.3596 373.089 39.9252 369.627 34.8641L365.5 37.6875ZM438.125 61.5625H433.125V64.0625L435.125 65.5625L438.125 61.5625ZM441.438 52.3125L436.965 54.5486L437.051 54.7203L437.15 54.885L441.438 52.3125ZM438.062 51.5625L435.582 47.2213L432.453 49.0093L433.16 52.5431L438.062 51.5625ZM470.375 75.8125L473.951 72.3176L470.9 69.1968L467.396 71.797L470.375 75.8125ZM481.188 86.875L486.155 87.4481L486.427 85.0828L484.763 83.3801L481.188 86.875ZM475 101.875L471.401 98.4043L471.39 98.4155L471.379 98.4267L475 101.875ZM449.5 103.938L452.212 99.7368L452.194 99.7253L452.176 99.714L449.5 103.938ZM440.062 91.1875L444.771 89.5058L444.764 89.4846L444.756 89.4634L440.062 91.1875ZM437.812 85.0625L442.506 83.3384L441.333 80.1449L437.932 80.0639L437.812 85.0625ZM431.188 84.375L431.959 79.4349L429.449 79.0427L427.652 80.8395L431.188 84.375ZM435.75 87.75L440.399 85.9098L439.23 82.9553L436.058 82.7595L435.75 87.75ZM439.312 96.75H444.312V95.7964L443.962 94.9098L439.312 96.75ZM439.312 102.062L442.192 106.15L444.312 104.657V102.062H439.312ZM408.25 29.5L410.508 33.9611L410.53 33.95L410.552 33.9388L408.25 29.5ZM421.5 25.3125L422.437 30.2239L422.455 30.2204L422.473 30.2168L421.5 25.3125ZM467.188 31.375L464.245 35.4177L464.253 35.4236L467.188 31.375ZM473.562 68.4375L469.642 65.334L469.638 65.3393L473.562 68.4375ZM461.688 76.6875L460.156 71.9278L456.688 73.0438V76.6875H461.688ZM438.125 61.5625L435.125 65.5625C435.854 66.1093 436.566 66.345 436.915 66.4463C437.32 66.5641 437.689 66.6255 437.963 66.6611C438.508 66.7323 439.068 66.75 439.562 66.75V61.75V56.75C439.265 56.75 439.19 56.7365 439.256 56.7451C439.29 56.7495 439.458 56.7719 439.703 56.8428C439.83 56.8798 440.018 56.9415 440.242 57.0414C440.46 57.1388 440.777 57.3015 441.125 57.5625L438.125 61.5625ZM439.562 61.75V66.75C441.918 66.75 444.133 65.6892 445.535 63.586L441.375 60.8125L437.215 58.039C437.426 57.722 437.786 57.3469 438.312 57.0745C438.828 56.8077 439.29 56.75 439.562 56.75V61.75ZM441.375 60.8125L445.535 63.586C446.802 61.6854 447 59.4104 447 57.75H442H437C437 57.9837 436.991 58.1694 436.979 58.3125C436.967 58.4566 436.952 58.5419 436.945 58.5783C436.937 58.616 436.941 58.5815 436.974 58.4945C437.007 58.4075 437.079 58.2432 437.215 58.039L441.375 60.8125ZM442 57.75H447V55.5H442H437V57.75H442ZM442 55.5H447C447 53.8676 446.847 51.6103 445.725 49.74L441.438 52.3125L437.15 54.885C437.02 54.6689 436.961 54.5069 436.94 54.4444C436.919 54.3799 436.923 54.374 436.935 54.4471C436.963 54.6049 437 54.9378 437 55.5H442ZM441.438 52.3125L445.91 50.0764C445.352 48.9605 444.472 47.9306 443.231 47.2213C442.022 46.5307 440.767 46.3125 439.688 46.3125V51.3125V56.3125C439.441 56.3125 438.895 56.261 438.269 55.9037C437.611 55.5278 437.19 54.9978 436.965 54.5486L441.438 52.3125ZM439.688 51.3125V46.3125C439.139 46.3125 438.533 46.3399 437.927 46.4331C437.384 46.5167 436.49 46.7025 435.582 47.2213L438.062 51.5625L440.543 55.9037C440.206 56.0963 439.924 56.1945 439.765 56.2423C439.599 56.292 439.485 56.3111 439.448 56.3169C439.384 56.3267 439.445 56.3125 439.688 56.3125V51.3125ZM438.062 51.5625L433.16 52.5431C433.146 52.4763 433.137 52.4222 433.132 52.384C433.126 52.3454 433.122 52.3162 433.12 52.2983C433.117 52.2643 433.117 52.2553 433.118 52.278C433.119 52.2992 433.121 52.3387 433.123 52.3993C433.124 52.4593 433.125 52.534 433.125 52.625H438.125H443.125C443.125 52.1172 443.114 51.3225 442.965 50.5819L438.062 51.5625ZM438.125 52.625H433.125V61.5625H438.125H443.125V52.625H438.125ZM470.375 75.8125L466.799 79.3074L477.612 90.3699L481.188 86.875L484.763 83.3801L473.951 72.3176L470.375 75.8125ZM481.188 86.875L476.22 86.3019C475.553 92.0859 473.789 95.9276 471.401 98.4043L475 101.875L478.599 105.346C482.961 100.822 485.322 94.6641 486.155 87.4481L481.188 86.875ZM475 101.875L471.379 98.4267C469.195 100.721 466.002 102.125 461.125 102.125V107.125V112.125C468.081 112.125 474.139 110.029 478.621 105.323L475 101.875ZM461.125 107.125V102.125C457.492 102.125 454.588 101.271 452.212 99.7368L449.5 103.938L446.788 108.138C450.995 110.854 455.841 112.125 461.125 112.125V107.125ZM449.5 103.938L452.176 99.714C449.12 97.7774 446.573 94.55 444.771 89.5058L440.062 91.1875L435.354 92.8692C437.719 99.4916 441.463 104.764 446.824 108.161L449.5 103.938ZM440.062 91.1875L444.756 89.4634L442.506 83.3384L437.812 85.0625L433.119 86.7866L435.369 92.9116L440.062 91.1875ZM437.812 85.0625L437.932 80.0639C436.484 80.0294 434.512 79.8338 431.959 79.4349L431.188 84.375L430.416 89.3151C433.196 89.7495 435.641 90.0122 437.693 90.0611L437.812 85.0625ZM431.188 84.375L427.652 80.8395C426.169 82.3227 425.688 84.1743 425.688 85.75H430.688H435.688C435.688 85.9299 435.662 86.2634 435.511 86.6775C435.354 87.1105 435.091 87.5425 434.723 87.9105L431.188 84.375ZM430.688 85.75H425.688C425.688 89.4869 428.682 91.1777 430.116 91.744C431.703 92.371 433.6 92.6268 435.442 92.7405L435.75 87.75L436.058 82.7595C435.343 82.7154 434.794 82.6512 434.387 82.5809C434.186 82.5462 434.036 82.5128 433.931 82.4852C433.824 82.4572 433.782 82.4402 433.79 82.4435C433.796 82.4458 433.886 82.481 434.026 82.5676C434.165 82.6538 434.394 82.8149 434.644 83.0797C434.9 83.3517 435.175 83.7307 435.381 84.2239C435.59 84.7248 435.688 85.2478 435.688 85.75H430.688ZM435.75 87.75L431.101 89.5902L434.663 98.5902L439.312 96.75L443.962 94.9098L440.399 85.9098L435.75 87.75ZM439.312 96.75H434.312V102.062H439.312H444.312V96.75H439.312ZM439.312 102.062L436.433 97.9747C432.693 100.609 427.632 102.125 420.875 102.125V107.125V112.125C429.118 112.125 436.349 110.266 442.192 106.15L439.312 102.062ZM420.875 107.125V102.125C416.139 102.125 412.947 101.148 410.835 99.6938L408 103.812L405.165 107.931C409.47 110.894 414.861 112.125 420.875 112.125V107.125ZM408 103.812L410.835 99.6938C409.106 98.5036 408.188 96.9064 408.188 94.1875H403.188H398.188C398.188 99.8853 400.478 104.705 405.165 107.931L408 103.812ZM403.188 94.1875H408.188V34.8125H403.188H398.188V94.1875H403.188ZM403.188 34.8125H408.188C408.188 35.5616 407.811 35.833 408.073 35.5587C408.37 35.247 409.082 34.6829 410.508 33.9611L408.25 29.5L405.992 25.0389C404.043 26.0255 402.224 27.2009 400.833 28.66C399.407 30.1566 398.188 32.23 398.188 34.8125H403.188ZM408.25 29.5L410.552 33.9388C413.349 32.4884 417.256 31.2126 422.437 30.2239L421.5 25.3125L420.563 20.4011C414.827 21.4957 409.901 23.0116 405.948 25.0612L408.25 29.5ZM421.5 25.3125L422.473 30.2168C427.617 29.1959 432.75 28.6875 437.875 28.6875V23.6875V18.6875C432.084 18.6875 426.299 19.2625 420.527 20.4082L421.5 25.3125ZM437.875 23.6875V28.6875C449.761 28.6875 458.358 31.133 464.245 35.4176L467.188 31.375L470.13 27.3324C461.934 21.367 450.989 18.6875 437.875 18.6875V23.6875ZM467.188 31.375L464.253 35.4236C470.277 39.7893 473.312 45.794 473.312 54.0625H478.312H483.312C483.312 42.831 478.931 33.7107 470.122 27.3264L467.188 31.375ZM478.312 54.0625H473.312C473.312 58.6324 472.043 62.3021 469.642 65.334L473.562 68.4375L477.483 71.541C481.416 66.5729 483.312 60.6593 483.312 54.0625H478.312ZM473.562 68.4375L469.638 65.3393C467.127 68.5201 464.001 70.6908 460.156 71.9278L461.688 76.6875L463.219 81.4472C468.957 79.6009 473.748 76.2715 477.487 71.5357L473.562 68.4375ZM461.688 76.6875H456.688C456.688 78.3718 457.228 80.469 459.061 82.0121C460.728 83.4165 462.69 83.6875 464.062 83.6875V78.6875V73.6875C463.852 73.6875 464.626 73.6252 465.502 74.3629C466.543 75.2393 466.688 76.3366 466.688 76.6875H461.688ZM464.062 78.6875V83.6875C467.395 83.6875 470.618 81.8581 473.354 79.828L470.375 75.8125L467.396 71.797C466.286 72.6205 465.422 73.1293 464.787 73.4185C464.13 73.7176 463.924 73.6875 464.062 73.6875V78.6875ZM491.438 98.3125L494.905 94.7101L494.888 94.6943L494.872 94.6787L491.438 98.3125ZM491.75 45.0625L495.165 48.7149L495.172 48.7082L495.179 48.7014L491.75 45.0625ZM540.375 44.125L536.996 47.8108L537.01 47.823L537.023 47.8351L540.375 44.125ZM542 80.4375L539.049 76.4012L539.03 76.4149L539.012 76.4288L542 80.4375ZM508.25 81.875L510.829 77.5914L507.944 75.8545L505.25 77.875L508.25 81.875ZM512.688 86.6875L514.305 81.9562L514.25 81.9377L514.196 81.9205L512.688 86.6875ZM535.312 86.8125L536.771 91.5952L536.789 91.5896L536.807 91.5839L535.312 86.8125ZM543.625 83L546.918 79.2371L543.968 76.6565L540.758 78.9038L543.625 83ZM546 87.875L541.144 89.0676L541.157 89.1183L541.17 89.1687L546 87.875ZM546.375 99.4375L549.605 103.254L550.835 102.214L551.226 100.65L546.375 99.4375ZM536.375 105.312L534.759 100.581L534.716 100.596L534.673 100.611L536.375 105.312ZM513.938 64.5625L508.986 63.8676L508.528 67.1278L511.343 68.8364L513.938 64.5625ZM518.75 107.938V102.938C508.165 102.938 500.423 100.021 494.905 94.7101L491.438 98.3125L487.97 101.915C495.785 109.437 506.251 112.938 518.75 112.938V107.938ZM491.438 98.3125L494.872 94.6787C489.228 89.3447 486.188 81.9316 486.188 71.8125H481.188H476.188C476.188 84.11 479.98 94.3637 488.003 101.946L491.438 98.3125ZM481.188 71.8125H486.188C486.188 61.6946 489.305 54.1932 495.165 48.7149L491.75 45.0625L488.335 41.4101C480.112 49.0985 476.188 59.4304 476.188 71.8125H481.188ZM491.75 45.0625L495.179 48.7014C500.642 43.5539 507.595 40.875 516.438 40.875V35.875V30.875C505.363 30.875 495.858 34.3211 488.321 41.4236L491.75 45.0625ZM516.438 35.875V40.875C525.438 40.875 532.114 43.3354 536.996 47.8108L540.375 44.125L543.754 40.4392C536.636 33.9146 527.353 30.875 516.438 30.875V35.875ZM540.375 44.125L537.023 47.8351C542.037 52.3647 544.438 57.755 544.438 64.3125H549.438H554.438C554.438 54.87 550.797 46.802 543.727 40.4149L540.375 44.125ZM549.438 64.3125H544.438C544.438 70.1336 542.501 73.8774 539.049 76.4012L542 80.4375L544.951 84.4738C551.416 79.7476 554.438 72.7414 554.438 64.3125H549.438ZM542 80.4375L539.012 76.4288C535.568 78.9955 530.495 80.5625 523.25 80.5625V85.5625V90.5625C531.838 90.5625 539.265 88.7128 544.988 84.4462L542 80.4375ZM523.25 85.5625V80.5625C518.024 80.5625 513.966 79.48 510.829 77.5914L508.25 81.875L505.671 86.1586C510.701 89.1866 516.643 90.5625 523.25 90.5625V85.5625ZM508.25 81.875L505.25 77.875C503.053 79.5229 502.75 81.9622 502.75 83.25H507.75H512.75C512.75 83.3003 512.748 83.6362 512.574 84.115C512.383 84.6396 511.985 85.3237 511.25 85.875L508.25 81.875ZM507.75 83.25H502.75C502.75 86.3114 504.79 88.2194 506.128 89.1503C507.557 90.1457 509.346 90.8745 511.179 91.4545L512.688 86.6875L514.196 81.9205C513.503 81.7012 512.963 81.4969 512.553 81.3153C512.134 81.1297 511.919 80.9976 511.841 80.9434C511.75 80.8797 511.942 80.9899 512.18 81.3368C512.451 81.7312 512.75 82.3949 512.75 83.25H507.75ZM512.688 86.6875L511.07 91.4188C514.974 92.7529 519.264 93.375 523.875 93.375V88.375V83.375C520.153 83.375 516.984 82.8721 514.305 81.9562L512.688 86.6875ZM523.875 88.375V93.375C528.492 93.375 532.806 92.8039 536.771 91.5952L535.312 86.8125L533.854 82.0298C530.986 82.9044 527.675 83.375 523.875 83.375V88.375ZM535.312 86.8125L536.807 91.5839C540.565 90.4067 543.852 88.9444 546.492 87.0962L543.625 83L540.758 78.9038C539.231 79.9723 536.977 81.0516 533.818 82.0411L535.312 86.8125ZM543.625 83L540.332 86.7629C540.185 86.6339 540.271 86.6488 540.474 87.0648C540.671 87.4695 540.91 88.1124 541.144 89.0676L546 87.875L550.856 86.6824C550.205 84.0345 549.107 81.1527 546.918 79.2371L543.625 83ZM546 87.875L541.17 89.1687C541.707 91.1741 541.938 92.8786 541.938 94.3125H546.938H551.938C551.938 91.8297 551.543 89.2426 550.83 86.5813L546 87.875ZM546.938 94.3125H541.938C541.938 95.9136 541.78 97.2027 541.524 98.2248L546.375 99.4375L551.226 100.65C551.72 98.6723 551.938 96.5448 551.938 94.3125H546.938ZM546.375 99.4375L543.145 95.6206C540.288 98.0384 537.49 99.6483 534.759 100.581L536.375 105.312L537.991 110.044C542.093 108.643 545.962 106.337 549.605 103.254L546.375 99.4375ZM536.375 105.312L534.673 100.611C530.538 102.108 525.274 102.938 518.75 102.938V107.938V112.938C526.059 112.938 532.546 112.017 538.077 110.014L536.375 105.312ZM517.938 65.625V70.625C519.47 70.625 521.535 70.3585 523.307 69.0121C525.337 67.4687 526.062 65.237 526.062 63.25H521.062H516.062C516.062 63.1037 516.087 62.7407 516.288 62.2808C516.503 61.7914 516.845 61.3623 517.256 61.0504C517.986 60.4957 518.488 60.625 517.938 60.625V65.625ZM521.062 63.25H526.062C526.062 61.0831 525.153 58.8591 523.044 57.4264C521.28 56.2287 519.264 56 517.75 56V61V66C518.035 66 518.133 66.0257 518.095 66.0172C518.058 66.0089 517.786 65.9436 517.425 65.6986C517.031 65.4312 516.636 65.0173 516.367 64.4684C516.109 63.9419 516.062 63.4899 516.062 63.25H521.062ZM517.75 61V56C515.734 56 513.519 56.5627 511.727 58.2373C509.988 59.8621 509.252 61.9722 508.986 63.8676L513.938 64.5625L518.889 65.2574C518.956 64.7778 519.022 65.1066 518.554 65.5439C518.326 65.7569 518.08 65.8879 517.885 65.9546C517.707 66.0153 517.64 66 517.75 66V61ZM513.938 64.5625L511.343 68.8364C513.368 70.066 515.616 70.625 517.938 70.625V65.625V60.625C517.259 60.625 516.841 60.4757 516.532 60.2886L513.938 64.5625ZM586.75 57L585.462 52.1688L585.37 52.1932L585.28 52.2211L586.75 57ZM585.188 59.625L581.652 63.1605L583.308 64.8165L585.64 64.6045L585.188 59.625ZM601.812 61.75L600.146 66.4641L600.174 66.4741L600.203 66.4839L601.812 61.75ZM612 68.625L615.878 65.4686L615.864 65.4513L615.849 65.4341L612 68.625ZM560.875 103.062L558.346 107.376L558.353 107.38L558.36 107.384L560.875 103.062ZM554.062 82.375L558.495 84.6878L558.506 84.6684L558.516 84.6489L554.062 82.375ZM557.438 78.25L560.645 74.4146L557.846 72.0731L554.762 74.0259L557.438 78.25ZM567.375 83.25L565.821 88.0025L565.849 88.0114L565.876 88.02L567.375 83.25ZM584 82.4375L588.682 80.6819L587.271 76.9195L583.293 77.4878L584 82.4375ZM561.062 77.25L563.821 73.0797L563.816 73.0764L561.062 77.25ZM560.125 43L556.943 39.1435L556.933 39.1516L560.125 43ZM599 37.25L597.809 42.1061L597.819 42.1086L599 37.25ZM610.438 41.5625L614.974 39.4602L614.298 38.0021L612.9 37.2108L610.438 41.5625ZM607.438 60.8125L605.031 65.1954L608.268 66.9727L610.919 64.4012L607.438 60.8125ZM599.625 57.9375L598.366 62.7763L598.404 62.7864L598.443 62.7958L599.625 57.9375ZM586.75 57L585.28 52.2211C584.126 52.5761 582.77 53.2458 581.7 54.5213C580.571 55.8672 580.125 57.4539 580.125 58.9375H585.125H590.125C590.125 59.4628 589.949 60.2474 589.362 60.9474C588.834 61.5772 588.291 61.7573 588.22 61.7789L586.75 57ZM585.125 58.9375H580.125V59.25H585.125H590.125V58.9375H585.125ZM585.125 59.25H580.125C580.125 59.4783 580.133 59.871 580.209 60.322C580.232 60.4637 580.424 61.9321 581.652 63.1605L585.188 59.625L588.723 56.0895C589.408 56.7744 589.715 57.4846 589.842 57.8225C589.984 58.2012 590.045 58.5127 590.073 58.678C590.127 59.004 590.125 59.23 590.125 59.25H585.125ZM585.188 59.625L585.64 64.6045C585.884 64.5823 586.32 64.5625 587 64.5625V59.5625V54.5625C586.18 54.5625 585.407 54.5844 584.735 54.6455L585.188 59.625ZM587 59.5625V64.5625H588.5V59.5625V54.5625H587V59.5625ZM588.5 59.5625V64.5625C592.731 64.5625 596.6 65.2105 600.146 66.4641L601.812 61.75L603.479 57.0359C598.775 55.3728 593.769 54.5625 588.5 54.5625V59.5625ZM601.812 61.75L600.203 66.4839C603.558 67.6247 606.157 69.4108 608.151 71.8159L612 68.625L615.849 65.4341C612.593 61.5059 608.4 58.7086 603.422 57.0161L601.812 61.75ZM612 68.625L608.122 71.7814C610.186 74.3175 611.375 77.6613 611.375 82.1875H616.375H621.375C621.375 75.7971 619.647 70.0992 615.878 65.4686L612 68.625ZM616.375 82.1875H611.375C611.375 89.3967 608.97 94.1863 604.595 97.4137L607.562 101.438L610.53 105.461C617.905 100.022 621.375 91.9783 621.375 82.1875H616.375ZM607.562 101.438L604.595 97.4137C599.833 100.926 593.131 102.938 584 102.938V107.938V112.938C594.535 112.938 603.542 110.616 610.53 105.461L607.562 101.438ZM584 107.938V102.938C574.625 102.938 567.911 101.373 563.39 98.7413L560.875 103.062L558.36 107.384C565.005 111.252 573.708 112.938 584 112.938V107.938ZM560.875 103.062L563.404 98.7495C559.353 96.3737 557.562 93.2218 557.562 88.75H552.562H547.562C547.562 96.8615 551.313 103.251 558.346 107.376L560.875 103.062ZM552.562 88.75H557.562C557.562 87.1566 557.897 85.8346 558.495 84.6878L554.062 82.375L549.63 80.0622C548.228 82.7487 547.562 85.6767 547.562 88.75H552.562ZM554.062 82.375L558.516 84.6489C559.293 83.1271 559.901 82.6084 560.113 82.4741L557.438 78.25L554.762 74.0259C552.474 75.475 550.832 77.7062 549.609 80.1011L554.062 82.375ZM557.438 78.25L554.23 82.0854C557.196 84.5666 561.169 86.4815 565.821 88.0025L567.375 83.25L568.929 78.4975C564.914 77.1852 562.262 75.7668 560.645 74.4146L557.438 78.25ZM567.375 83.25L565.876 88.02C570.766 89.5568 575.899 90.3125 581.25 90.3125V85.3125V80.3125C576.851 80.3125 572.734 79.6932 568.874 78.48L567.375 83.25ZM581.25 85.3125V90.3125C582.526 90.3125 584.277 90.1643 585.873 89.2814C586.747 88.7982 587.636 88.0583 588.286 86.979C588.942 85.8913 589.188 84.736 589.188 83.6875H584.188H579.188C579.188 83.1807 579.311 82.4993 579.721 81.8179C580.127 81.1448 580.649 80.7435 581.033 80.5311C581.217 80.4291 581.369 80.3705 581.465 80.3386C581.562 80.3065 581.62 80.2954 581.628 80.2938C581.636 80.2925 581.523 80.3125 581.25 80.3125V85.3125ZM584.188 83.6875H589.188C589.188 82.8119 589.084 81.7538 588.682 80.6819L584 82.4375L579.318 84.1931C579.238 83.9787 579.207 83.8185 579.196 83.7417C579.184 83.6642 579.188 83.6414 579.188 83.6875H584.188ZM584 82.4375L583.293 77.4878C583.309 77.4855 583.288 77.4891 583.222 77.493C583.158 77.4968 583.064 77.5 582.938 77.5V82.5V87.5C583.502 87.5 584.107 87.4729 584.707 87.3872L584 82.4375ZM582.938 82.5V77.5H582.25V82.5V87.5H582.938V82.5ZM582.25 82.5V77.5C574.026 77.5 568.032 75.8648 563.821 73.0797L561.062 77.25L558.304 81.4203C564.677 85.6352 572.807 87.5 582.25 87.5V82.5ZM561.062 77.25L563.816 73.0764C559.223 70.0466 557.062 66.0338 557.062 60.5H552.062H547.062C547.062 69.3829 550.902 76.5368 558.309 81.4236L561.062 77.25ZM552.062 60.5H557.062C557.062 54.7243 559.129 50.3221 563.317 46.8484L560.125 43L556.933 39.1516C550.371 44.5946 547.062 51.859 547.062 60.5H552.062ZM560.125 43L563.307 46.8565C568.101 42.9013 575.027 40.625 584.688 40.625V35.625V30.625C573.515 30.625 564.066 33.2654 556.943 39.1435L560.125 43ZM584.688 35.625V40.625C589.461 40.625 593.828 41.1295 597.809 42.1061L599 37.25L600.191 32.3939C595.339 31.2038 590.164 30.625 584.688 30.625V35.625ZM599 37.25L597.819 42.1086C601.94 43.11 605.299 44.4 607.975 45.9142L610.438 41.5625L612.9 37.2108C609.243 35.1416 604.976 33.5567 600.181 32.3914L599 37.25ZM610.438 41.5625L605.901 43.6648C606.236 44.388 606.625 46.0421 606.625 49.125H611.625H616.625C616.625 45.5413 616.222 42.1537 614.974 39.4602L610.438 41.5625ZM611.625 49.125H606.625C606.625 53.2899 605.504 55.7216 603.956 57.2238L607.438 60.8125L610.919 64.4012C614.954 60.4867 616.625 55.1268 616.625 49.125H611.625ZM607.438 60.8125L609.844 56.4296C607.236 54.9978 604.194 53.903 600.807 53.0792L599.625 57.9375L598.443 62.7958C601.223 63.472 603.389 64.2939 605.031 65.1954L607.438 60.8125ZM599.625 57.9375L600.884 53.0987C597.539 52.2281 594.357 51.75 591.375 51.75V56.75V61.75C593.31 61.75 595.627 62.0636 598.366 62.7763L599.625 57.9375ZM591.375 56.75V51.75C590.102 51.75 589.002 51.7713 588.105 51.8198C587.332 51.8616 586.326 51.9384 585.462 52.1688L586.75 57L588.038 61.8312C587.855 61.8801 587.795 61.8772 587.964 61.8577C588.102 61.8417 588.323 61.8226 588.645 61.8052C589.289 61.7704 590.19 61.75 591.375 61.75V56.75ZM654.312 78.125L657.219 82.1937L660.138 80.1084L659.098 76.675L654.312 78.125ZM653.688 40.8125L651.103 36.5322L648.688 37.9907V40.8125H653.688ZM678.812 38.25L677.098 42.9468L677.142 42.963L677.187 42.9784L678.812 38.25ZM684.938 41.9375H689.938V39.9891L688.619 38.5544L684.938 41.9375ZM689.438 86.625L694.34 85.6444L693.917 83.5286L692.088 82.385L689.438 86.625ZM684.688 102.75L681.199 99.1683L681.175 99.1912L681.152 99.2145L684.688 102.75ZM663.875 104.938L661.417 109.292L661.432 109.3L661.447 109.308L663.875 104.938ZM658.062 98.5625L662.6 96.4629L661.258 93.5625H658.062V98.5625ZM657.375 103.5L660.528 107.381L664.831 103.885L660.911 99.9645L657.375 103.5ZM633.625 104.875L635.615 100.288L635.602 100.282L635.589 100.277L633.625 104.875ZM623.75 96.4375L628.029 93.8512L628.014 93.8263L627.999 93.8017L623.75 96.4375ZM619.562 63.625H624.562V62.2939L623.901 61.1391L619.562 63.625ZM617.25 44.25L612.385 43.0956L617.25 44.25ZM620.062 37.6875V32.6875H617.403L615.916 34.8932L620.062 37.6875ZM645.938 41.375L642.715 45.1981L642.745 45.2229L642.774 45.2472L645.938 41.375ZM652.688 78.75V83.75C654.593 83.75 656.141 82.9634 657.219 82.1937L654.312 78.125L651.406 74.0563C651.317 74.1199 651.782 73.75 652.688 73.75V78.75ZM654.312 78.125L659.098 76.675C658.905 76.0395 658.688 74.5096 658.688 71.6875H653.688H648.688C648.688 74.6988 648.887 77.4605 649.527 79.575L654.312 78.125ZM653.688 71.6875H658.688V40.8125H653.688H648.688V71.6875H653.688ZM653.688 40.8125L656.272 45.0928C659.764 42.9846 664.142 41.8125 669.625 41.8125V36.8125V31.8125C662.692 31.8125 656.445 33.307 651.103 36.5322L653.688 40.8125ZM669.625 36.8125V41.8125C672.682 41.8125 675.141 42.2325 677.098 42.9468L678.812 38.25L680.527 33.5532C677.234 32.3509 673.568 31.8125 669.625 31.8125V36.8125ZM678.812 38.25L677.187 42.9784C679.329 43.7146 680.563 44.567 681.256 45.3206L684.938 41.9375L688.619 38.5544C686.478 36.2246 683.63 34.6188 680.438 33.5216L678.812 38.25ZM684.938 41.9375H679.938V74.5H684.938H689.938V41.9375H684.938ZM684.938 74.5H679.938C679.938 81.1319 681.487 87.5524 686.787 90.865L689.438 86.625L692.088 82.385C691.388 81.9476 689.938 80.2848 689.938 74.5H684.938ZM689.438 86.625L684.535 87.6056C684.518 87.5243 684.508 87.4602 684.502 87.419C684.496 87.3768 684.493 87.3465 684.491 87.3309C684.488 87.302 684.489 87.3023 684.491 87.3409C684.493 87.3774 684.495 87.4347 684.497 87.5165C684.499 87.5975 684.5 87.6957 684.5 87.8125H689.5H694.5C694.5 87.2807 694.493 86.4079 694.34 85.6444L689.438 86.625ZM689.5 87.8125H684.5V88.9375H689.5H694.5V87.8125H689.5ZM689.5 88.9375H684.5C684.5 94.1699 683.134 97.2829 681.199 99.1683L684.688 102.75L688.176 106.332C692.657 101.967 694.5 95.8717 694.5 88.9375H689.5ZM684.688 102.75L681.152 99.2145C679.389 100.977 676.764 102.125 672.625 102.125V107.125V112.125C678.736 112.125 684.153 110.356 688.223 106.286L684.688 102.75ZM672.625 107.125V102.125C670.206 102.125 668.135 101.584 666.303 100.567L663.875 104.938L661.447 109.308C664.865 111.207 668.627 112.125 672.625 112.125V107.125ZM663.875 104.938L666.333 100.583C664.697 99.66 663.469 98.3412 662.6 96.4629L658.062 98.5625L653.525 100.662C655.239 104.367 657.886 107.298 661.417 109.292L663.875 104.938ZM658.062 98.5625V93.5625C656.62 93.5625 654.613 93.9111 652.986 95.4902C651.332 97.0963 650.938 99.1282 650.938 100.625H655.938H660.938C660.938 100.747 660.898 101.747 659.951 102.666C659.032 103.558 658.088 103.562 658.062 103.562V98.5625ZM655.938 100.625H650.938C650.938 103.377 652.336 105.532 653.839 107.036L657.375 103.5L660.911 99.9645C660.715 99.7694 660.714 99.717 660.769 99.8264C660.835 99.9587 660.938 100.24 660.938 100.625H655.938ZM657.375 103.5L654.222 99.6194C653.394 100.292 652.31 100.908 650.887 101.414L652.562 106.125L654.238 110.836C656.565 110.008 658.689 108.875 660.528 107.381L657.375 103.5ZM652.562 106.125L650.887 101.414C649.827 101.791 647.742 102.125 644.25 102.125V107.125V112.125C648.091 112.125 651.548 111.793 654.238 110.836L652.562 106.125ZM644.25 107.125V102.125C641.337 102.125 638.471 101.527 635.615 100.288L633.625 104.875L631.635 109.462C635.696 111.223 639.913 112.125 644.25 112.125V107.125ZM633.625 104.875L635.589 100.277C632.206 98.8318 629.749 96.6968 628.029 93.8512L623.75 96.4375L619.471 99.0238C622.334 103.762 626.46 107.252 631.661 109.473L633.625 104.875ZM623.75 96.4375L627.999 93.8017C625.827 90.3011 624.562 85.5772 624.562 79.3125H619.562H614.562C614.562 86.8812 616.09 93.5739 619.501 99.0733L623.75 96.4375ZM619.562 79.3125H624.562V63.625H619.562H614.562V79.3125H619.562ZM619.562 63.625L623.901 61.1391C622.228 58.2207 621.375 55.0003 621.375 51.375H616.375H611.375C611.375 56.6663 612.647 61.6126 615.224 66.1109L619.562 63.625ZM616.375 51.375H621.375C621.375 49.5094 621.612 47.5227 622.115 45.4044L617.25 44.25L612.385 43.0956C611.721 45.894 611.375 48.6572 611.375 51.375H616.375ZM617.25 44.25L622.115 45.4044C622.572 43.4769 623.283 41.855 624.209 40.4818L620.062 37.6875L615.916 34.8932C614.258 37.3533 613.094 40.1065 612.385 43.0956L617.25 44.25ZM620.062 37.6875V42.6875H633.812V37.6875V32.6875H620.062V37.6875ZM633.812 37.6875V42.6875C638.219 42.6875 640.976 43.7321 642.715 45.1981L645.938 41.375L649.16 37.5519C645.066 34.1013 639.74 32.6875 633.812 32.6875V37.6875ZM645.938 41.375L642.774 45.2472C644.242 46.4462 645.375 48.4978 645.375 52.4375H650.375H655.375C655.375 46.4605 653.55 41.1371 649.101 37.5028L645.938 41.375ZM650.375 52.4375H645.375V72.6875H650.375H655.375V52.4375H650.375ZM650.375 72.6875H645.375C645.375 74.8826 645.565 77.1375 646.281 79.0164C646.654 79.9917 647.281 81.1707 648.386 82.1361C649.59 83.1884 651.097 83.75 652.688 83.75V78.75V73.75C653.051 73.75 653.469 73.8116 653.899 73.9729C654.33 74.1342 654.688 74.363 654.966 74.6061C655.236 74.8423 655.404 75.0676 655.498 75.215C655.59 75.3603 655.625 75.4519 655.625 75.4524C655.626 75.4545 655.604 75.3983 655.574 75.2663C655.544 75.136 655.511 74.9531 655.48 74.7092C655.417 74.2148 655.375 73.5499 655.375 72.6875H650.375ZM728.688 86.625L733.59 85.6444L733.167 83.5286L731.338 82.385L728.688 86.625ZM724.188 102.5L720.628 98.9886L720.616 99.0009L720.604 99.0132L724.188 102.5ZM698.188 102.5L701.629 98.8727L701.624 98.8682L698.188 102.5ZM692.375 20.9375L689.773 16.6681L687.375 18.1295V20.9375H692.375ZM720 20.5625L716.699 24.3183L716.73 24.3448L716.76 24.3708L720 20.5625ZM724.188 30.5625H719.188V74.5H724.188H729.188V30.5625H724.188ZM724.188 74.5H719.188C719.188 81.1319 720.737 87.5524 726.037 90.865L728.688 86.625L731.338 82.385C730.638 81.9476 729.188 80.2848 729.188 74.5H724.188ZM728.688 86.625L723.785 87.6056C723.768 87.5243 723.758 87.4602 723.752 87.419C723.746 87.3768 723.743 87.3465 723.741 87.3309C723.738 87.302 723.739 87.3023 723.741 87.3409C723.743 87.3774 723.745 87.4347 723.747 87.5165C723.749 87.5975 723.75 87.6957 723.75 87.8125H728.75H733.75C733.75 87.2807 733.743 86.4079 733.59 85.6444L728.688 86.625ZM728.75 87.8125H723.75V88.9375H728.75H733.75V87.8125H728.75ZM728.75 88.9375H723.75C723.75 94.0849 722.445 97.1468 720.628 98.9886L724.188 102.5L727.747 106.011C732.013 101.687 733.75 95.7068 733.75 88.9375H728.75ZM724.188 102.5L720.604 99.0132C718.796 100.871 715.975 102.125 711.375 102.125V107.125V112.125C717.858 112.125 723.579 110.296 727.771 105.987L724.188 102.5ZM711.375 107.125V102.125C706.795 102.125 703.742 100.877 701.629 98.8727L698.188 102.5L694.746 106.127C699.133 110.29 704.872 112.125 711.375 112.125V107.125ZM698.188 102.5L701.624 98.8682C699.087 96.4671 697.375 92.468 697.375 85.875H692.375H687.375C687.375 94.1153 689.538 101.2 694.751 106.132L698.188 102.5ZM692.375 85.875H697.375V20.9375H692.375H687.375V85.875H692.375ZM692.375 20.9375L694.977 25.2069C698.493 23.0642 702.575 21.9375 707.375 21.9375V16.9375V11.9375C700.925 11.9375 695.007 13.4775 689.773 16.6681L692.375 20.9375ZM707.375 16.9375V21.9375C712.464 21.9375 715.248 23.0427 716.699 24.3183L720 20.5625L723.301 16.8067C719.252 13.2489 713.619 11.9375 707.375 11.9375V16.9375ZM720 20.5625L716.76 24.3708C718.24 25.6296 719.188 27.4594 719.188 30.5625H724.188H729.188C729.188 25.0823 727.344 20.2454 723.24 16.7542L720 20.5625ZM736.938 66.5V61.5H731.938V66.5H736.938ZM743.812 63.6875L748.663 62.4748L747.716 58.6875H743.812V63.6875ZM729.812 63.6875L725.043 65.1866L726.143 68.6875H729.812V63.6875ZM729.25 45.125L726.58 40.8976L724.864 41.9814L724.389 43.9547L729.25 45.125ZM739.062 38.25L742.037 42.2692L743.156 41.4411L743.686 40.1537L739.062 38.25ZM743.625 24.75L748.409 26.2045L748.411 26.1956L748.414 26.1867L743.625 24.75ZM744.5 22.3125L743.258 17.4692L740.855 18.0854L739.892 20.3722L744.5 22.3125ZM767.938 22.375H772.938V18.3416L768.995 17.4882L767.938 22.375ZM767.938 37.6875H762.938V42.6875H767.938V37.6875ZM778.75 37.6875L782.925 34.9359L781.443 32.6875H778.75V37.6875ZM778.75 63.625V68.625H781.353L782.846 66.4923L778.75 63.625ZM769.812 63.625V58.625H764.812V63.625H769.812ZM779.188 81.0625L784.007 79.7308L782.993 76.0625H779.188V81.0625ZM775.062 102.562L778.298 106.374L778.302 106.371L775.062 102.562ZM743 101.438L739.559 105.065L739.578 105.083L739.598 105.101L743 101.438ZM736.938 66.5V71.5H740.812V66.5V61.5H736.938V66.5ZM740.812 66.5V71.5C742.245 71.5 744.191 71.2924 745.91 70.1574C747.994 68.7823 748.938 66.6031 748.938 64.4375H743.938H738.938C738.938 64.1461 738.995 63.6479 739.279 63.0858C739.573 62.504 739.996 62.0796 740.402 61.8113C740.775 61.5652 741.058 61.4982 741.105 61.4879C741.155 61.477 741.074 61.5 740.812 61.5V66.5ZM743.938 64.4375H748.938C748.938 63.6252 748.764 62.8787 748.663 62.4748L743.812 63.6875L738.962 64.9002C738.982 64.9797 738.981 64.9899 738.974 64.947C738.97 64.9233 738.962 64.8706 738.955 64.7944C738.947 64.7209 738.938 64.5976 738.938 64.4375H743.938ZM743.812 63.6875V58.6875H729.812V63.6875V68.6875H743.812V63.6875ZM729.812 63.6875L734.582 62.1884C733.842 59.8319 733.438 57.0975 733.438 53.9375H728.438H723.438C723.438 57.9441 723.95 61.7098 725.043 65.1866L729.812 63.6875ZM728.438 53.9375H733.438C733.438 50.5115 733.698 48.01 734.111 46.2953L729.25 45.125L724.389 43.9547C723.718 46.74 723.438 50.1135 723.438 53.9375H728.438ZM729.25 45.125L731.92 49.3524C734.452 47.7536 737.839 45.3757 742.037 42.2692L739.062 38.25L736.088 34.2308C731.953 37.2909 728.798 39.4964 726.58 40.8976L729.25 45.125ZM739.062 38.25L743.686 40.1537C744.949 37.0872 746.526 32.3957 748.409 26.2045L743.625 24.75L738.841 23.2955C736.974 29.4376 735.51 33.7462 734.439 36.3463L739.062 38.25ZM743.625 24.75L748.414 26.1867C748.614 25.5222 748.845 24.8779 749.108 24.2528L744.5 22.3125L739.892 20.3722C739.488 21.3305 739.136 22.3112 738.836 23.3133L743.625 24.75ZM744.5 22.3125L745.742 27.1558C748.502 26.448 751.781 26.0625 755.625 26.0625V21.0625V16.0625C751.136 16.0625 746.998 16.5103 743.258 17.4692L744.5 22.3125ZM755.625 21.0625V26.0625C759.439 26.0625 763.188 26.4626 766.88 27.2618L767.938 22.375L768.995 17.4882C764.604 16.5374 760.145 16.0625 755.625 16.0625V21.0625ZM767.938 22.375H762.938V37.6875H767.938H772.938V22.375H767.938ZM767.938 37.6875V42.6875H778.75V37.6875V32.6875H767.938V37.6875ZM778.75 37.6875L774.575 40.4391C776.386 43.1866 777.375 46.5145 777.375 50.625H782.375H787.375C787.375 44.8189 785.947 39.5218 782.925 34.9359L778.75 37.6875ZM782.375 50.625H777.375C777.375 52.4083 777.128 54.2928 776.602 56.29L781.438 57.5625L786.273 58.835C786.997 56.0822 787.375 53.3417 787.375 50.625H782.375ZM781.438 57.5625L776.602 56.29C776.097 58.2088 775.42 59.6634 774.654 60.7577L778.75 63.625L782.846 66.4923C784.414 64.2533 785.528 61.6662 786.273 58.835L781.438 57.5625ZM778.75 63.625V58.625H769.812V63.625V68.625H778.75V63.625ZM769.812 63.625H764.812V73.0625H769.812H774.812V63.625H769.812ZM769.812 73.0625H764.812C764.812 76.3033 765.471 79.665 767.648 82.2693C769.969 85.0452 773.241 86.0625 776.5 86.0625V81.0625V76.0625C775.873 76.0625 775.551 75.9678 775.426 75.9181C775.332 75.8806 775.327 75.8628 775.321 75.8557C775.268 75.7933 774.812 75.155 774.812 73.0625H769.812ZM776.5 81.0625V86.0625H779.188V81.0625V76.0625H776.5V81.0625ZM779.188 81.0625L774.368 82.3942C775.168 85.2887 775.5 87.5706 775.5 89.3125H780.5H785.5C785.5 86.3877 784.957 83.1696 784.007 79.7308L779.188 81.0625ZM780.5 89.3125H775.5C775.5 93.9312 774.099 96.818 771.823 98.7539L775.062 102.562L778.302 106.371C783.276 102.14 785.5 96.1938 785.5 89.3125H780.5ZM775.062 102.562L771.827 98.7506C769.485 100.739 765.599 102.125 759.375 102.125V107.125V112.125C766.901 112.125 773.474 110.47 778.298 106.374L775.062 102.562ZM759.375 107.125V102.125C753.504 102.125 749.362 100.522 746.402 97.7735L743 101.438L739.598 105.101C744.805 109.936 751.58 112.125 759.375 112.125V107.125ZM743 101.438L746.441 97.8097C743.693 95.2034 741.938 91.0812 741.938 84.5625H736.938H731.938C731.938 92.8772 734.224 100.005 739.559 105.065L743 101.438ZM736.938 84.5625H741.938V66.5H736.938H731.938V84.5625H736.938ZM818.625 57L817.337 52.1688L817.245 52.1932L817.155 52.2211L818.625 57ZM817.062 59.625L813.527 63.1605L815.183 64.8165L817.515 64.6045L817.062 59.625ZM833.688 61.75L832.021 66.4641L832.049 66.4741L832.078 66.4839L833.688 61.75ZM843.875 68.625L847.753 65.4686L847.739 65.4513L847.724 65.4341L843.875 68.625ZM792.75 103.062L790.221 107.376L790.228 107.38L790.235 107.384L792.75 103.062ZM785.938 82.375L790.37 84.6878L790.381 84.6684L790.391 84.6489L785.938 82.375ZM789.312 78.25L792.52 74.4146L789.721 72.0731L786.637 74.0259L789.312 78.25ZM799.25 83.25L797.696 88.0025L797.724 88.0114L797.751 88.02L799.25 83.25ZM815.875 82.4375L820.557 80.6819L819.146 76.9195L815.168 77.4878L815.875 82.4375ZM792.938 77.25L795.696 73.0797L795.691 73.0764L792.938 77.25ZM792 43L788.818 39.1435L788.808 39.1516L792 43ZM830.875 37.25L829.684 42.1061L829.694 42.1086L830.875 37.25ZM842.312 41.5625L846.849 39.4602L846.173 38.0021L844.775 37.2108L842.312 41.5625ZM839.312 60.8125L836.906 65.1954L840.143 66.9727L842.794 64.4012L839.312 60.8125ZM831.5 57.9375L830.241 62.7763L830.279 62.7864L830.318 62.7958L831.5 57.9375ZM818.625 57L817.155 52.2211C816.001 52.5761 814.645 53.2458 813.575 54.5213C812.446 55.8672 812 57.4539 812 58.9375H817H822C822 59.4628 821.824 60.2474 821.237 60.9474C820.709 61.5772 820.166 61.7573 820.095 61.7789L818.625 57ZM817 58.9375H812V59.25H817H822V58.9375H817ZM817 59.25H812C812 59.4783 812.008 59.871 812.084 60.322C812.107 60.4637 812.299 61.9321 813.527 63.1605L817.062 59.625L820.598 56.0895C821.283 56.7744 821.59 57.4846 821.717 57.8225C821.859 58.2012 821.92 58.5127 821.948 58.678C822.002 59.004 822 59.23 822 59.25H817ZM817.062 59.625L817.515 64.6045C817.759 64.5823 818.195 64.5625 818.875 64.5625V59.5625V54.5625C818.055 54.5625 817.282 54.5844 816.61 54.6455L817.062 59.625ZM818.875 59.5625V64.5625H820.375V59.5625V54.5625H818.875V59.5625ZM820.375 59.5625V64.5625C824.606 64.5625 828.475 65.2105 832.021 66.4641L833.688 61.75L835.354 57.0359C830.65 55.3728 825.644 54.5625 820.375 54.5625V59.5625ZM833.688 61.75L832.078 66.4839C835.433 67.6247 838.032 69.4108 840.026 71.8159L843.875 68.625L847.724 65.4341C844.468 61.5059 840.275 58.7086 835.297 57.0161L833.688 61.75ZM843.875 68.625L839.997 71.7814C842.061 74.3175 843.25 77.6613 843.25 82.1875H848.25H853.25C853.25 75.7971 851.522 70.0992 847.753 65.4686L843.875 68.625ZM848.25 82.1875H843.25C843.25 89.3967 840.845 94.1863 836.47 97.4137L839.438 101.438L842.405 105.461C849.78 100.022 853.25 91.9783 853.25 82.1875H848.25ZM839.438 101.438L836.47 97.4137C831.708 100.926 825.006 102.938 815.875 102.938V107.938V112.938C826.41 112.938 835.417 110.616 842.405 105.461L839.438 101.438ZM815.875 107.938V102.938C806.5 102.938 799.786 101.373 795.265 98.7413L792.75 103.062L790.235 107.384C796.88 111.252 805.583 112.938 815.875 112.938V107.938ZM792.75 103.062L795.279 98.7495C791.228 96.3737 789.438 93.2218 789.438 88.75H784.438H779.438C779.438 96.8615 783.188 103.251 790.221 107.376L792.75 103.062ZM784.438 88.75H789.438C789.438 87.1566 789.772 85.8346 790.37 84.6878L785.938 82.375L781.505 80.0622C780.103 82.7487 779.438 85.6767 779.438 88.75H784.438ZM785.938 82.375L790.391 84.6489C791.168 83.1271 791.776 82.6084 791.988 82.4741L789.312 78.25L786.637 74.0259C784.349 75.475 782.707 77.7062 781.484 80.1011L785.938 82.375ZM789.312 78.25L786.105 82.0854C789.071 84.5666 793.044 86.4815 797.696 88.0025L799.25 83.25L800.804 78.4975C796.789 77.1852 794.137 75.7668 792.52 74.4146L789.312 78.25ZM799.25 83.25L797.751 88.02C802.641 89.5568 807.774 90.3125 813.125 90.3125V85.3125V80.3125C808.726 80.3125 804.609 79.6932 800.749 78.48L799.25 83.25ZM813.125 85.3125V90.3125C814.401 90.3125 816.152 90.1643 817.748 89.2814C818.622 88.7982 819.511 88.0583 820.161 86.979C820.817 85.8913 821.062 84.736 821.062 83.6875H816.062H811.062C811.062 83.1807 811.186 82.4993 811.596 81.8179C812.002 81.1448 812.524 80.7435 812.908 80.5311C813.092 80.4291 813.244 80.3705 813.34 80.3386C813.437 80.3065 813.495 80.2954 813.503 80.2938C813.511 80.2925 813.398 80.3125 813.125 80.3125V85.3125ZM816.062 83.6875H821.062C821.062 82.8119 820.959 81.7538 820.557 80.6819L815.875 82.4375L811.193 84.1931C811.113 83.9787 811.082 83.8185 811.071 83.7417C811.059 83.6642 811.062 83.6414 811.062 83.6875H816.062ZM815.875 82.4375L815.168 77.4878C815.184 77.4855 815.163 77.4891 815.097 77.493C815.033 77.4968 814.939 77.5 814.812 77.5V82.5V87.5C815.377 87.5 815.982 87.4729 816.582 87.3872L815.875 82.4375ZM814.812 82.5V77.5H814.125V82.5V87.5H814.812V82.5ZM814.125 82.5V77.5C805.901 77.5 799.907 75.8648 795.696 73.0797L792.938 77.25L790.179 81.4203C796.552 85.6352 804.682 87.5 814.125 87.5V82.5ZM792.938 77.25L795.691 73.0764C791.098 70.0466 788.938 66.0338 788.938 60.5H783.938H778.938C778.938 69.3829 782.777 76.5368 790.184 81.4236L792.938 77.25ZM783.938 60.5H788.938C788.938 54.7243 791.004 50.3221 795.192 46.8484L792 43L788.808 39.1516C782.246 44.5946 778.938 51.859 778.938 60.5H783.938ZM792 43L795.182 46.8565C799.976 42.9013 806.902 40.625 816.562 40.625V35.625V30.625C805.39 30.625 795.941 33.2654 788.818 39.1435L792 43ZM816.562 35.625V40.625C821.336 40.625 825.703 41.1295 829.684 42.1061L830.875 37.25L832.066 32.3939C827.214 31.2038 822.039 30.625 816.562 30.625V35.625ZM830.875 37.25L829.694 42.1086C833.815 43.11 837.174 44.4 839.85 45.9142L842.312 41.5625L844.775 37.2108C841.118 35.1416 836.851 33.5567 832.056 32.3914L830.875 37.25ZM842.312 41.5625L837.776 43.6648C838.111 44.388 838.5 46.0421 838.5 49.125H843.5H848.5C848.5 45.5413 848.097 42.1537 846.849 39.4602L842.312 41.5625ZM843.5 49.125H838.5C838.5 53.2899 837.379 55.7216 835.831 57.2238L839.312 60.8125L842.794 64.4012C846.829 60.4867 848.5 55.1268 848.5 49.125H843.5ZM839.312 60.8125L841.719 56.4296C839.111 54.9978 836.069 53.903 832.682 53.0792L831.5 57.9375L830.318 62.7958C833.098 63.472 835.264 64.2939 836.906 65.1954L839.312 60.8125ZM831.5 57.9375L832.759 53.0987C829.414 52.2281 826.232 51.75 823.25 51.75V56.75V61.75C825.185 61.75 827.502 62.0636 830.241 62.7763L831.5 57.9375ZM823.25 56.75V51.75C821.977 51.75 820.877 51.7713 819.98 51.8198C819.207 51.8616 818.201 51.9384 817.337 52.1688L818.625 57L819.913 61.8312C819.73 61.8801 819.67 61.8772 819.839 61.8577C819.977 61.8417 820.198 61.8226 820.52 61.8052C821.164 61.7704 822.065 61.75 823.25 61.75V56.75Z" fill="#E38594" mask="url(#path-1-outside-1_105_322)"/>
</g>
<defs>
<filter id="filter0_d_105_322" x="97.9375" y="7.6875" width="759.312" height="122.312" filterUnits="userSpaceOnUse" color-interpolation-filters="sRGB">
<feFlood flood-opacity="0" result="BackgroundImageFix"/>
<feColorMatrix in="SourceAlpha" type="matrix" values="0 0 0 0 0 0 0 0 0 0 0 0 0 0 0 0 0 0 127 0" result="hardAlpha"/>
<feOffset dy="4"/>
<feGaussianBlur stdDeviation="2"/>
<feComposite in2="hardAlpha" operator="out"/>
<feColorMatrix type="matrix" values="0 0 0 0 0 0 0 0 0 0 0 0 0 0 0 0 0 0 0.25 0"/>
<feBlend mode="normal" in2="BackgroundImageFix" result="effect1_dropShadow_105_322"/>
<feBlend mode="normal" in="SourceGraphic" in2="effect1_dropShadow_105_322" result="shape"/>
</filter>
</defs>
</svg>
